<svg xmlns="http://www.w3.org/2000/svg" width="32" height="32" fill="none" viewBox="0 0 32 32"><path fill="#000" d="M3.41 23.759l-1.628-1.182L8.04 12.564l4 4.667 5.307-8.616 3.185 4.78a7.238 7.238 0 0 0-2.082.459l-1.028-1.536-5.093 8.285-4.033-4.7-4.885 7.856zm25.357 6.433l-4.372-4.346a4.717 4.717 0 0 1-1.387.687 5.326 5.326 0 0 1-1.575.234c-1.487 0-2.747-.517-3.782-1.552-1.034-1.034-1.55-2.294-1.55-3.782 0-1.487.516-2.747 1.55-3.782 1.035-1.034 2.295-1.55 3.782-1.55 1.488 0 2.748.516 3.782 1.55 1.035 1.035 1.552 2.295 1.552 3.782 0 .552-.08 1.084-.24 1.594-.16.51-.395.982-.706 1.414l4.371 4.326-1.425 1.425zm-7.334-5.425c.934 0 1.723-.322 2.367-.967.645-.644.967-1.433.967-2.367 0-.933-.322-1.722-.967-2.366-.644-.645-1.433-.967-2.367-.967-.933 0-1.722.322-2.366.967-.645.644-.967 1.433-.967 2.366 0 .934.322 1.723.967 2.367.644.645 1.433.967 2.366.967zm2.71-10.898a7.395 7.395 0 0 0-.983-.311 6.009 6.009 0 0 0-1.044-.155L28.59 3.14l1.628 1.182-6.074 9.546z"/></svg>