<svg xmlns="http://www.w3.org/2000/svg"><symbol id="accordion" viewBox="0 0 40 40"><path d="M12.252 35.438l-1.004-.983L20 25.703l8.752 8.752-1.004.983L20 27.712l-7.748 7.726zM20 14.291l-8.752-8.753 1.004-1.004L20 12.282l7.748-7.748 1.004 1.004L20 14.291z"/></symbol><symbol id="add" viewBox="0 0 20 20"><path d="M9.375 15.625v-5h-5v-1.25h5v-5h1.25v5h5v1.25h-5v5h-1.25z"/></symbol><symbol id="code" viewBox="0 0 40 40"><path d="M13.334 28.812l-8.847-8.846 8.88-8.86.993 1.015-7.848 7.848 7.832 7.832-1.01 1.011zm13.299.034l-.993-1.014 7.848-7.848-7.832-7.854 1.01-1.01 8.847 8.846-8.88 8.88z"/></symbol><symbol id="article" viewBox="0 0 40 40"><path d="M12.46 27.506h9.946v-1.41H12.46v1.41zm0-6.801h15.08v-1.41H12.46v1.41zm0-6.801h15.08v-1.41H12.46v1.41zm-3.357 19.43c-.683 0-1.26-.236-1.73-.707-.47-.47-.706-1.047-.706-1.73V9.102c0-.682.235-1.259.706-1.73.47-.47 1.047-.705 1.73-.705h21.795c.683 0 1.26.235 1.73.705.47.471.706 1.048.706 1.73v21.795c0 .683-.236 1.26-.706 1.73s-1.047.706-1.73.706H9.103zm0-1.411h21.795c.256 0 .491-.107.705-.32.214-.214.32-.45.32-.706V9.102c0-.256-.106-.491-.32-.705-.214-.213-.449-.32-.705-.32H9.103c-.257 0-.492.107-.705.32-.214.214-.32.449-.32.705v21.795c0 .257.106.492.32.705.213.214.448.32.705.32z"/></symbol><symbol id="column-config" viewBox="0 0 20 20"><path d="M9.375 17.292v-4.584h1.25v1.667h6.666v1.25h-6.666v1.667h-1.25zm-6.667-1.667v-1.25h4.583v1.25H2.708zm3.333-3.333v-1.667H2.708v-1.25h3.333V7.708h1.25v4.584h-1.25zm3.334-1.667v-1.25h7.916v1.25H9.375zm3.333-3.333V2.709h1.25v1.666h3.333v1.25h-3.333v1.667h-1.25zm-10-1.667v-1.25h7.917v1.25H2.708z"/></symbol><symbol id="column-three" viewBox="0 0 20 20"><path d="M2.917 15.417V4.583h4.301v10.834H2.917zm5.038 0V4.583h4.077v10.834H7.955zm4.815 0V4.583h4.3v10.834h-4.3z"/></symbol><symbol id="copy" viewBox="0 0 20 20"><path d="M4.792 17.756c-.421 0-.778-.145-1.07-.437a1.454 1.454 0 0 1-.437-1.069V5.673h1.25V16.25c0 .064.027.123.08.176.054.054.112.08.177.08h8.076v1.25H4.792zm2.916-2.916c-.42 0-.777-.146-1.069-.438a1.454 1.454 0 0 1-.437-1.069V3.846c0-.42.146-.777.437-1.069a1.454 1.454 0 0 1 1.07-.437h6.986c.421 0 .778.146 1.07.437.29.292.437.648.437 1.07v9.486c0 .421-.146.778-.438 1.07a1.454 1.454 0 0 1-1.069.437H7.708zm0-1.25h6.987a.245.245 0 0 0 .177-.08.245.245 0 0 0 .08-.177V3.846a.245.245 0 0 0-.08-.176.245.245 0 0 0-.177-.08H7.708a.245.245 0 0 0-.176.08.245.245 0 0 0-.08.176v9.487c0 .065.026.123.08.177.053.053.112.08.176.08z"/></symbol><symbol id="button" viewBox="0 0 40 40"><path d="M7.436 28.333c-.683 0-1.26-.235-1.73-.706-.47-.47-.706-1.047-.706-1.73V14.102c0-.682.235-1.259.706-1.73.47-.47 1.047-.706 1.73-.706h25.128c.683 0 1.26.236 1.73.706.47.471.706 1.048.706 1.73v11.795c0 .683-.235 1.26-.706 1.73-.47.47-1.047.706-1.73.706H7.436zm0-1.41h25.128c.3 0 .545-.096.737-.288a.998.998 0 0 0 .289-.738V14.102a.995.995 0 0 0-.289-.737.998.998 0 0 0-.737-.288H7.436c-.3 0-.545.096-.737.288a.998.998 0 0 0-.289.737v11.795c0 .3.096.545.289.738a.998.998 0 0 0 .737.288z"/></symbol><symbol id="crop" viewBox="0 0 20 20"><path d="M14.375 18.958v-3.333H5.882c-.421 0-.778-.146-1.07-.438a1.454 1.454 0 0 1-.437-1.069V5.625H1.042v-1.25h3.333V1.042h1.25v13.076a.25.25 0 0 0 .08.177.25.25 0 0 0 .177.08h13.077v1.25h-3.334v3.333h-1.25zm0-5.833V5.88a.245.245 0 0 0-.08-.176.245.245 0 0 0-.176-.08H6.875v-1.25h7.244c.42 0 .777.146 1.069.437.291.292.437.648.437 1.07v7.243h-1.25z"/></symbol><symbol id="down-arrow-long" viewBox="0 0 20 20"><path d="M4.166 12.5l.875-.875 4.334 4.333V1.667h1.25v14.291l4.333-4.333.875.875L10 18.333 4.166 12.5z"/></symbol><symbol id="delete" viewBox="0 0 20 20"><path d="M6.09 17.083c-.416 0-.77-.147-1.065-.441a1.451 1.451 0 0 1-.442-1.065V5H3.75V3.75H7.5v-.737h5v.737h3.75V5h-.833v10.577c0 .42-.146.777-.438 1.069a1.454 1.454 0 0 1-1.069.437H6.09zM14.167 5H5.833v10.577a.25.25 0 0 0 .072.184.25.25 0 0 0 .185.072h7.82a.245.245 0 0 0 .176-.08.245.245 0 0 0 .08-.176V5zm-6.33 9.166h1.25v-7.5h-1.25v7.5zm3.076 0h1.25v-7.5h-1.25v7.5z"/></symbol><symbol id="down-arrow" viewBox="0 0 20 20"><path d="M10 16.346L3.654 10l.878-.891 4.843 4.843V3.654h1.25v10.298l4.843-4.843.878.89L10 16.347z"/></symbol><symbol id="edit-content" viewBox="0 0 20 20"><g clip-path="url(#a)"><path d="M10.208 17.292v-1.483l4.353-4.352 1.482 1.482-4.353 4.353h-1.482zm-7.5-4.167v-1.25h5.833v1.25H2.708zm13.918-.77l-1.482-1.481.604-.605a.598.598 0 0 1 .44-.18c.171 0 .318.06.438.18l.604.605c.121.12.181.267.181.439s-.06.318-.18.439l-.605.604zM2.708 9.793v-1.25h9.167v1.25H2.708zm0-3.334v-1.25h9.167v1.25H2.708z"/></g><defs><clipPath id="a"><path fill="#fff" d="M0 0h20v20H0z"/></clipPath></defs></symbol><symbol id="grip-dots-vertical" viewBox="0 0 20 20"><path d="M7.5 16.346c-.37 0-.687-.132-.95-.395A1.296 1.296 0 0 1 6.154 15c0-.37.132-.687.396-.95.263-.264.58-.396.95-.396s.688.132.951.395c.264.264.396.58.396.95 0 .371-.132.688-.396.952-.263.263-.58.395-.95.395zm5 0c-.37 0-.687-.132-.95-.395a1.296 1.296 0 0 1-.396-.951c0-.37.132-.687.396-.95.263-.264.58-.396.95-.396s.688.132.951.395c.264.264.396.58.396.95 0 .371-.132.688-.396.952-.264.263-.58.395-.95.395zm-5-5c-.37 0-.687-.132-.95-.395A1.296 1.296 0 0 1 6.154 10c0-.37.132-.687.396-.95.263-.264.58-.396.95-.396s.688.132.951.395c.264.264.396.58.396.95 0 .371-.132.688-.396.952-.263.263-.58.395-.95.395zm5 0c-.37 0-.687-.132-.95-.395a1.296 1.296 0 0 1-.396-.951c0-.37.132-.687.396-.95.263-.264.58-.396.95-.396s.688.132.951.395c.264.264.396.58.396.95 0 .371-.132.688-.396.952-.264.263-.58.395-.95.395zm-5-5c-.37 0-.687-.132-.95-.395A1.296 1.296 0 0 1 6.154 5c0-.37.132-.687.396-.95.263-.264.58-.396.95-.396s.688.132.951.395c.264.264.396.58.396.95 0 .371-.132.688-.396.952-.263.263-.58.395-.95.395zm5 0c-.37 0-.687-.132-.95-.395A1.296 1.296 0 0 1 11.154 5c0-.37.132-.687.396-.95.263-.264.58-.396.95-.396s.688.132.951.395c.264.264.396.58.396.95 0 .371-.132.688-.396.952-.264.263-.58.395-.95.395z"/></symbol><symbol id="form" viewBox="0 0 40 40"><path d="M7.342 33.333c-.683 0-1.26-.235-1.73-.706-.47-.47-.706-1.047-.706-1.73V9.102c0-.682.236-1.259.706-1.73.47-.47 1.047-.705 1.73-.705h25.316c.683 0 1.26.235 1.73.705.471.471.706 1.048.706 1.73v21.795c0 .683-.235 1.26-.706 1.73-.47.47-1.047.706-1.73.706H7.342zm0-1.41h25.316c.257 0 .492-.107.706-.32.213-.214.32-.45.32-.706V9.102c0-.256-.107-.491-.32-.705-.214-.213-.45-.32-.706-.32H7.342c-.256 0-.491.107-.705.32-.214.214-.32.449-.32.705v21.795c0 .257.106.492.32.705.214.214.449.32.705.32zM9.167 27.5h6.667v-1.667H9.167V27.5zm15.083-3.686l7.064-7.064-1.189-1.19-5.875 5.917-2.375-2.375-1.147 1.19 3.522 3.522zm-15.083-2.98h6.667v-1.668H9.167v1.667zm0-6.668h6.667V12.5H9.167v1.666z"/></symbol><symbol id="filter" viewBox="0 0 20 20"><path d="M9.487 16.25a.714.714 0 0 1-.526-.212.713.713 0 0 1-.211-.525v-4.824L4.085 4.763c-.16-.214-.184-.436-.07-.667.114-.23.306-.346.576-.346H15.41c.27 0 .462.115.576.346.113.23.09.453-.07.667l-4.665 5.926v4.824c0 .21-.07.384-.212.525a.714.714 0 0 1-.525.212H9.487zm.513-6L14.125 5h-8.25L10 10.25z"/></symbol><symbol id="left-arrow-long" viewBox="0 0 20 20"><path d="M7.5 4.167l.875.875L4.04 9.375h14.292v1.25H4.041l4.334 4.334-.875.875L1.666 10 7.5 4.167z"/></symbol><symbol id="link" viewBox="0 0 24 24"><path d="M10.808 16.538H7c-1.255 0-2.326-.442-3.21-1.327-.886-.885-1.328-1.955-1.328-3.21 0-1.256.442-2.326 1.327-3.212C4.674 7.904 5.745 7.461 7 7.461h3.808v1.5H7c-.84 0-1.556.297-2.149.89A2.928 2.928 0 0 0 3.961 12c0 .84.297 1.556.89 2.149s1.31.89 2.15.89h3.807v1.5zM8.25 12.75v-1.5h7.5v1.5h-7.5zm4.943 3.788v-1.5H17c.84 0 1.556-.296 2.15-.89A2.927 2.927 0 0 0 20.039 12c0-.84-.297-1.556-.89-2.15A2.928 2.928 0 0 0 17 8.962h-3.807v-1.5H17c1.256 0 2.326.443 3.211 1.328.885.885 1.328 1.955 1.328 3.21 0 1.256-.443 2.326-1.328 3.211-.885.886-1.955 1.328-3.21 1.328h-3.808z"/></symbol><symbol id="location" viewBox="0 0 40 40"><path d="M20 28.556c3.063-2.422 5.377-4.745 6.944-6.97 1.567-2.225 2.35-4.38 2.35-6.464 0-1.739-.316-3.215-.95-4.43-.635-1.214-1.42-2.2-2.356-2.955a9.218 9.218 0 0 0-3.024-1.647c-1.08-.342-2.067-.513-2.962-.513s-1.883.17-2.964.513a9.216 9.216 0 0 0-3.026 1.647c-.936.756-1.721 1.74-2.356 2.956-.634 1.214-.95 2.69-.95 4.429 0 2.084.783 4.24 2.35 6.464 1.567 2.225 3.882 4.549 6.944 6.97zm0 1.794c-3.608-2.72-6.294-5.343-8.058-7.866-1.765-2.524-2.647-4.979-2.647-7.365 0-1.802.322-3.383.965-4.742.644-1.36 1.476-2.502 2.498-3.426a10.392 10.392 0 0 1 3.454-2.086c1.282-.466 2.545-.699 3.788-.699 1.242 0 2.505.233 3.787.7a10.39 10.39 0 0 1 3.456 2.085c1.021.924 1.853 2.066 2.497 3.426.643 1.36.965 2.943.965 4.748 0 2.39-.882 4.844-2.647 7.364-1.764 2.52-4.45 5.14-8.058 7.861zm.004-13.107c.67 0 1.23-.228 1.686-.686.454-.457.682-1.02.682-1.69 0-.668-.229-1.23-.686-1.685-.458-.455-1.021-.682-1.69-.682s-1.23.229-1.686.686c-.454.458-.682 1.02-.682 1.69 0 .669.229 1.23.687 1.685.457.455 1.02.682 1.69.682zm-10.71 18.59v-1.41h21.411v1.41H9.295z"/></symbol><symbol id="image" viewBox="0 0 40 40"><path d="M9.103 33.333c-.683 0-1.26-.235-1.73-.706-.47-.47-.706-1.047-.706-1.73V9.102c0-.682.235-1.259.706-1.73.47-.47 1.047-.705 1.73-.705h21.795c.683 0 1.26.235 1.73.705.47.471.706 1.048.706 1.73v21.795c0 .683-.236 1.26-.706 1.73s-1.047.706-1.73.706H9.103zm0-1.41h21.795c.256 0 .491-.107.705-.32.214-.214.32-.45.32-.706V9.102c0-.256-.106-.491-.32-.705-.214-.213-.449-.32-.705-.32H9.103c-.257 0-.492.107-.705.32-.214.214-.32.449-.32.705v21.795c0 .257.106.492.32.705.213.214.448.32.705.32zm3.35-4.382h15.378l-4.692-6.236-4.5 5.648-2.957-3.613-3.229 4.2zm1.719-11.836c.425 0 .787-.15 1.085-.453.3-.302.449-.665.449-1.09 0-.425-.151-.787-.453-1.086a1.494 1.494 0 0 0-1.09-.448c-.426 0-.787.15-1.086.453a1.494 1.494 0 0 0-.448 1.09c0 .425.15.787.452 1.086.302.299.665.448 1.09.448z"/></symbol><symbol id="order-list" viewBox="0 0 24 24"><path d="M3.5 21.5v-1.192H6V19.25H4.5v-1.192H6V17H3.5v-1.192h2.846c.24 0 .44.08.603.243a.819.819 0 0 1 .243.603v1.192c0 .24-.08.44-.243.603a.819.819 0 0 1-.603.243c.24 0 .44.081.603.244a.819.819 0 0 1 .243.602v1.116c0 .24-.08.44-.243.603a.819.819 0 0 1-.603.243H3.5zm0-6.654V12.25c0-.24.081-.44.243-.603a.819.819 0 0 1 .603-.243H6v-1.058H3.5V9.154h2.846c.24 0 .44.08.603.243a.819.819 0 0 1 .243.603v1.75c0 .24-.08.44-.243.603a.819.819 0 0 1-.603.243H4.692v1.058h2.5v1.192H3.5zM5 8.192v-4.5H3.5V2.5h2.692v5.692H5zM9.308 18.75v-1.5H20.5v1.5H9.308zm0-6v-1.5H20.5v1.5H9.308zm0-6v-1.5H20.5v1.5H9.308z"/></symbol><symbol id="right-arrow-long" viewBox="0 0 20 20"><path d="M12.5 15.833l-.875-.875 4.334-4.333H1.667v-1.25h14.292l-4.334-4.333.875-.875L18.334 10 12.5 15.833z"/></symbol><symbol id="save" viewBox="0 0 20 20"><path d="M17.084 6.01v9.567c0 .42-.146.777-.438 1.069a1.454 1.454 0 0 1-1.069.437H4.423c-.42 0-.777-.146-1.069-.437a1.454 1.454 0 0 1-.437-1.07V4.424c0-.421.146-.777.437-1.069a1.454 1.454 0 0 1 1.07-.438h9.567l3.093 3.093zm-1.25.531l-2.375-2.375H4.423a.25.25 0 0 0-.184.073.25.25 0 0 0-.072.184v11.154a.25.25 0 0 0 .072.184.25.25 0 0 0 .184.072h11.154a.25.25 0 0 0 .184-.072.25.25 0 0 0 .073-.184V6.54zM10 14.391c.577 0 1.069-.203 1.475-.61.406-.405.609-.897.609-1.474 0-.576-.203-1.068-.61-1.474A2.008 2.008 0 0 0 10 10.224c-.577 0-1.068.203-1.474.61a2.008 2.008 0 0 0-.609 1.473c0 .577.203 1.069.609 1.475.406.406.897.609 1.474.609zM5.32 8.237h6.844V5.32H5.32v2.917zM4.168 6.541v9.292V4.166v2.375z"/></symbol><symbol id="more" viewBox="0 0 20 20"><path d="M10 16.667c-.459 0-.85-.163-1.177-.49A1.606 1.606 0 0 1 8.333 15c0-.458.163-.85.49-1.177.326-.326.718-.49 1.177-.49.458 0 .85.164 1.177.49.326.326.49.719.49 1.177 0 .459-.164.851-.49 1.178a1.606 1.606 0 0 1-1.177.489zm0-5c-.459 0-.85-.163-1.177-.49A1.603 1.603 0 0 1 8.333 10c0-.458.163-.85.49-1.177.326-.326.718-.49 1.177-.49.458 0 .85.164 1.177.49.326.326.49.719.49 1.177 0 .459-.164.85-.49 1.177-.326.327-.719.49-1.177.49zm0-5c-.459 0-.85-.163-1.177-.49A1.603 1.603 0 0 1 8.333 5c0-.458.163-.85.49-1.176.326-.327.718-.49 1.177-.49.458 0 .85.163 1.177.49.326.326.49.718.49 1.176 0 .458-.164.85-.49 1.177-.326.327-.719.49-1.177.49z"/></symbol><symbol id="search" viewBox="0 0 16 16"><path d="M13.267 13.983L8.883 9.6a3.673 3.673 0 0 1-1.166.675 4.125 4.125 0 0 1-1.417.242c-1.2 0-2.217-.417-3.05-1.25C2.417 8.433 2 7.427 2 6.25c0-1.178.417-2.183 1.25-3.017.833-.833 1.844-1.25 3.033-1.25 1.178 0 2.18.417 3.009 1.25.827.834 1.241 1.84 1.241 3.017A4.156 4.156 0 0 1 9.6 8.883L14 13.25l-.733.733zM6.283 9.517c.9 0 1.667-.32 2.3-.959a3.16 3.16 0 0 0 .95-2.308c0-.9-.316-1.67-.95-2.308a3.119 3.119 0 0 0-2.3-.959c-.91 0-1.686.32-2.325.959A3.146 3.146 0 0 0 3 6.25c0 .9.32 1.67.958 2.308a3.166 3.166 0 0 0 2.325.959z"/></symbol><symbol id="product" viewBox="0 0 20 20"><path d="M9.375 16.308v-5.949L4.167 7.343v5.805c0 .042.01.082.032.12.021.037.053.07.096.096l5.08 2.944zm1.25 0l5.08-2.944a.276.276 0 0 0 .097-.096.238.238 0 0 0 .032-.12V7.343l-5.209 3.016v5.949zM10 9.282l5.146-2.974-5.018-2.902a.24.24 0 0 0-.128-.04.24.24 0 0 0-.128.04L4.854 6.308 10 9.282zm-6.33 5.18a1.483 1.483 0 0 1-.753-1.302V6.84a1.475 1.475 0 0 1 .753-1.301l5.577-3.21a1.485 1.485 0 0 1 1.507 0l5.576 3.21a1.484 1.484 0 0 1 .754 1.3v6.321a1.475 1.475 0 0 1-.754 1.302l-5.576 3.21a1.484 1.484 0 0 1-1.507 0l-5.577-3.21z"/></symbol><symbol id="settings" viewBox="0 0 20 20"><path d="M8.077 17.917l-.317-2.539a4.415 4.415 0 0 1-1.316-.747l-2.351.994-1.923-3.333 2.034-1.537a4.178 4.178 0 0 1-.041-.373 5.839 5.839 0 0 1 0-.735c.008-.123.021-.256.04-.402L2.17 7.708l1.923-3.317 2.343.986c.2-.16.415-.305.643-.437a4.24 4.24 0 0 1 .673-.318l.325-2.538h3.846l.317 2.546c.25.09.477.197.68.318.201.121.406.264.612.429l2.375-.986 1.923 3.317-2.066 1.561c.03.135.047.26.05.378.002.117.003.235.003.353 0 .113-.002.229-.008.345a2.387 2.387 0 0 1-.057.402l2.05 1.545-1.924 3.333-2.346-1.002c-.206.165-.417.31-.631.437a3.81 3.81 0 0 1-.66.31l-.318 2.547H8.077zM10.01 12.5a2.41 2.41 0 0 0 1.77-.73 2.41 2.41 0 0 0 .73-1.77 2.41 2.41 0 0 0-.73-1.77 2.41 2.41 0 0 0-1.77-.73c-.702 0-1.294.243-1.777.73A2.421 2.421 0 0 0 7.51 10c0 .694.24 1.284.723 1.77.483.487 1.075.73 1.777.73zm0-1.25c-.348 0-.643-.121-.886-.364A1.206 1.206 0 0 1 8.76 10c0-.347.121-.642.364-.885s.538-.365.886-.365c.347 0 .642.122.885.365s.365.538.365.885-.122.643-.365.886a1.206 1.206 0 0 1-.885.364zm-.843 5.417h1.638l.3-2.233a4.642 4.642 0 0 0 1.165-.473 5.147 5.147 0 0 0 1.019-.79l2.07.87.82-1.416-1.807-1.362c.07-.216.117-.427.142-.635a5.222 5.222 0 0 0 0-1.256 3.26 3.26 0 0 0-.142-.619l1.823-1.378-.82-1.417-2.095.883a4.432 4.432 0 0 0-1.002-.79 4.306 4.306 0 0 0-1.182-.485l-.263-2.233H9.18l-.275 2.225c-.425.1-.818.254-1.178.461-.36.208-.704.475-1.03.802l-2.071-.863-.82 1.417 1.8 1.341c-.07.198-.119.404-.147.617a5.235 5.235 0 0 0 0 1.313c.028.208.074.414.138.617l-1.792 1.362.821 1.417 2.063-.875c.316.325.654.59 1.014.798.36.207.758.366 1.194.478l.27 2.224z"/></symbol><symbol id="share" viewBox="0 0 40 40"><path d="M30.086 35.833c-1.135 0-2.1-.398-2.893-1.193-.794-.795-1.191-1.76-1.191-2.897 0-.218.02-.46.06-.722.041-.263.11-.5.205-.713l-13.188-7.765c-.386.482-.856.86-1.41 1.133a3.912 3.912 0 0 1-1.75.41c-1.135 0-2.1-.398-2.894-1.193C6.23 22.1 5.833 21.133 5.833 20c0-1.136.397-2.1 1.192-2.894.794-.794 1.759-1.19 2.893-1.19a4.023 4.023 0 0 1 3.16 1.502l13.189-7.731a2.824 2.824 0 0 1-.204-.702 4.614 4.614 0 0 1-.061-.732c0-1.135.397-2.1 1.192-2.894.794-.794 1.76-1.191 2.895-1.191s2.1.396 2.893 1.19c.794.794 1.19 1.757 1.19 2.891 0 1.153-.396 2.123-1.19 2.91-.795.786-1.76 1.18-2.895 1.18a4.16 4.16 0 0 1-1.741-.37 3.93 3.93 0 0 1-1.413-1.092l-13.166 7.67A4.805 4.805 0 0 1 14.004 20c0 .226-.02.46-.061.706-.04.245-.1.477-.176.694l13.166 7.697c.4-.44.864-.79 1.394-1.047a3.97 3.97 0 0 1 1.76-.387c1.135 0 2.1.392 2.894 1.177.795.784 1.192 1.749 1.192 2.894 0 1.146-.398 2.116-1.192 2.91-.795.793-1.76 1.19-2.895 1.19zm.006-24.906c.737 0 1.366-.262 1.888-.787a2.589 2.589 0 0 0 .783-1.893c0-.737-.263-1.366-.788-1.888a2.588 2.588 0 0 0-1.892-.782c-.737 0-1.367.262-1.888.787a2.588 2.588 0 0 0-.783 1.893c0 .737.262 1.366.787 1.888a2.588 2.588 0 0 0 1.893.782zM9.923 22.675c.737 0 1.366-.262 1.888-.787a2.589 2.589 0 0 0 .783-1.893c0-.737-.263-1.366-.788-1.888a2.589 2.589 0 0 0-1.892-.782c-.737 0-1.366.262-1.888.787a2.588 2.588 0 0 0-.783 1.893c0 .736.263 1.366.788 1.887a2.588 2.588 0 0 0 1.892.783zm20.169 11.748c.737 0 1.366-.263 1.888-.787a2.588 2.588 0 0 0 .783-1.893c0-.737-.263-1.366-.788-1.888a2.589 2.589 0 0 0-1.892-.782c-.737 0-1.367.262-1.888.787a2.588 2.588 0 0 0-.783 1.892c0 .737.262 1.367.787 1.888a2.588 2.588 0 0 0 1.893.783z"/></symbol><symbol id="text-align-right" viewBox="0 0 24 24"><path d="M3.25 20.75v-1.5h17.5v1.5H3.25zm6-4v-1.5h11.5v1.5H9.25zm-6-4v-1.5h17.5v1.5H3.25zm6-4v-1.5h11.5v1.5H9.25zm-6-4v-1.5h17.5v1.5H3.25z"/></symbol><symbol id="space" viewBox="0 0 40 40"><path d="M7.534 35.833v-1.41h24.932v1.41H7.534zm12.5-4.936l-5.419-5.418 1.011-1.011 3.703 3.696V11.835l-3.703 3.697-1.01-1.01 5.418-5.42 5.398 5.42-1.011 1.01-3.682-3.697v16.33l3.682-3.697 1.01 1.01-5.397 5.42zm-12.5-25.32v-1.41h24.932v1.41H7.534z"/></symbol><symbol id="text-align-justify" viewBox="0 0 25 24"><path d="M3.75 20.75v-1.5h17.5v1.5H3.75zm0-4v-1.5h17.5v1.5H3.75zm0-4v-1.5h17.5v1.5H3.75zm0-4v-1.5h17.5v1.5H3.75zm0-4v-1.5h17.5v1.5H3.75z"/></symbol><symbol id="text-align-left" viewBox="0 0 24 24"><path d="M3.25 20.75v-1.5h17.5v1.5H3.25zm0-4v-1.5h11.5v1.5H3.25zm0-4v-1.5h17.5v1.5H3.25zm0-4v-1.5h11.5v1.5H3.25zm0-4v-1.5h17.5v1.5H3.25z"/></symbol><symbol id="text-bold" viewBox="0 0 24 24"><path d="M7.339 18.625V5.375H12.2c1.02 0 1.941.317 2.765.952.824.635 1.235 1.489 1.235 2.563 0 .748-.18 1.357-.541 1.828-.36.471-.75.813-1.166 1.026.512.177 1.002.527 1.469 1.05.466.522.7 1.225.7 2.11 0 1.278-.471 2.218-1.414 2.819-.942.601-1.891.902-2.848.902H7.34zm2.15-1.992h2.83c.788 0 1.344-.219 1.67-.656.325-.437.488-.857.488-1.258s-.162-.82-.488-1.258c-.326-.437-.898-.655-1.716-.655H9.49v3.827zm0-5.758h2.594c.608 0 1.09-.174 1.445-.521.356-.348.534-.764.534-1.248 0-.516-.188-.937-.564-1.264-.377-.327-.838-.49-1.384-.49H9.489v3.523z"/></symbol><symbol id="text-italic" viewBox="0 0 25 24"><path d="M5.895 18.625v-1.808h3.817l3.24-9.634H9.135V5.375h9.154v1.808h-3.51l-3.24 9.634h3.51v1.808H5.894z"/></symbol><symbol id="text-underline" viewBox="0 0 24 24"><path d="M5.346 20.125v-1.5h13.307v1.5H5.346zm6.653-3.596c-1.555 0-2.768-.472-3.64-1.416-.873-.945-1.31-2.21-1.31-3.796V3.414h1.854v7.996c0 1.01.269 1.82.806 2.428.537.61 1.3.914 2.29.914s1.754-.305 2.29-.914c.538-.608.807-1.418.807-2.428V3.414h1.854v7.903c0 1.586-.437 2.851-1.31 3.796-.872.944-2.085 1.416-3.64 1.416z"/></symbol><symbol id="text-aling-center" viewBox="0 0 25 24"><path d="M3.75 20.75v-1.5h17.5v1.5H3.75zm4-4v-1.5h9.5v1.5h-9.5zm-4-4v-1.5h17.5v1.5H3.75zm4-4v-1.5h9.5v1.5h-9.5zm-4-4v-1.5h17.5v1.5H3.75z"/></symbol><symbol id="text" viewBox="0 0 40 40"><path d="M19.32 26.692V14.77h-5v-1.41h11.41v1.41h-5v11.923h-1.41zM4 36.052v-6.708h2.686V10.707H4V4h6.707v2.686h18.637V4h6.707v6.707h-2.686v18.637h2.686v6.707h-6.707v-2.686H10.707v2.686H4zm6.707-4.097h18.637v-2.61h2.611V10.706h-2.611v-2.61H10.707v2.61h-2.61v18.637h2.61v2.611zM5.41 9.297h3.887V5.41H5.41v3.887zm25.344 0h3.887V5.41h-3.887v3.887zm0 25.344h3.887v-3.887h-3.887v3.887zm-25.344 0h3.887v-3.887H5.41v3.887z"/></symbol><symbol id="up-arrow-long" viewBox="0 0 20 20"><path d="M15.834 7.5l-.875.875-4.334-4.333v14.291h-1.25V4.043L5.042 8.375 4.167 7.5 10 1.667 15.834 7.5z"/></symbol><symbol id="video" viewBox="0 0 40 40"><path d="M16.829 25.793l9.038-5.827-9.038-5.806v11.633zm-9.393 5.874c-.683 0-1.26-.236-1.73-.706S5 29.914 5 29.23V10.769c0-.682.235-1.259.706-1.73.47-.47 1.047-.705 1.73-.705h25.128c.683 0 1.26.235 1.73.705.47.471.706 1.048.706 1.73v18.462c0 .683-.235 1.26-.706 1.73-.47.47-1.047.706-1.73.706H7.436zm0-1.41h25.128c.257 0 .492-.107.705-.32.214-.215.32-.45.32-.706V10.769c0-.256-.106-.491-.32-.705-.213-.213-.448-.32-.705-.32H7.436c-.257 0-.492.107-.705.32-.214.214-.32.449-.32.705v18.462c0 .256.106.491.32.705.213.214.448.32.705.32z"/></symbol><symbol id="up-arrow" viewBox="0 0 20 20"><path d="M10 3.654L16.346 10l-.879.891-4.842-4.843v10.298h-1.25V6.048l-4.843 4.843-.879-.89L10 3.653z"/></symbol><symbol id="x-mark" viewBox="0 0 20 20"><path d="M5.333 15.545l-.878-.878L9.122 10 4.455 5.333l.878-.878L10 9.122l4.667-4.667.878.878L10.878 10l4.667 4.667-.878.878L10 10.878l-4.667 4.667z"/></symbol><symbol id="unorder-list" viewBox="0 0 25 24"><path d="M9.808 18.75v-1.5H21v1.5H9.808zm0-6v-1.5H21v1.5H9.808zm0-6v-1.5H21v1.5H9.808zM5.663 19.663c-.457 0-.849-.163-1.174-.488A1.602 1.602 0 0 1 4 18c0-.458.163-.85.489-1.175a1.602 1.602 0 0 1 1.174-.489c.458 0 .85.163 1.175.49.326.325.489.716.489 1.174 0 .457-.163.849-.489 1.175a1.602 1.602 0 0 1-1.175.488zm0-6c-.457 0-.849-.163-1.174-.488A1.602 1.602 0 0 1 4 12c0-.458.163-.85.489-1.175a1.602 1.602 0 0 1 1.174-.489c.458 0 .85.163 1.175.49.326.325.489.716.489 1.174 0 .457-.163.849-.489 1.175a1.602 1.602 0 0 1-1.175.488zm0-6c-.457 0-.849-.163-1.174-.488A1.602 1.602 0 0 1 4 6c0-.458.163-.85.489-1.175a1.602 1.602 0 0 1 1.174-.489 1.6 1.6 0 0 1 1.175.489c.326.326.489.717.489 1.175 0 .457-.163.849-.489 1.175a1.602 1.602 0 0 1-1.175.488z"/></symbol><symbol id="view-column" viewBox="0 0 20 20"><g clip-path="url(#a)"><path fill-rule="evenodd" d="M9.716 16.826a2.25 2.25 0 0 0 2.467-.494l4.654-4.711a2.294 2.294 0 0 0 .663-1.62 2.313 2.313 0 0 0-.663-1.62l-4.654-4.71a2.262 2.262 0 0 0-1.6-.671 2.24 2.24 0 0 0-1.601.671L6.659 6.028l.872.882 2.323-2.354a1.023 1.023 0 0 1 1.455 0l4.658 4.71a1.047 1.047 0 0 1 0 1.472l-4.658 4.71a1.023 1.023 0 0 1-1.455 0l-2.323-2.355-.876.882 2.327 2.355c.21.212.46.38.734.496zM6.94 9.376a2.28 2.28 0 0 0-.576-.994 2.238 2.238 0 0 0-2.466-.496 2.269 2.269 0 0 0-1.016.843 2.31 2.31 0 0 0 0 2.544c.249.377.602.67 1.016.844a2.24 2.24 0 0 0 2.466-.496 2.28 2.28 0 0 0 .576-.995h4.477l-1.852 1.873.872.887 2.91-2.943a.628.628 0 0 0 0-.883L10.44 6.62l-.873.883 1.852 1.874h-4.48zm-2.378 1.647c-.2-.04-.383-.14-.527-.285a1.047 1.047 0 0 1 .527-1.756 1.017 1.017 0 0 1 1.056.442 1.05 1.05 0 0 1-.462 1.54c-.188.079-.395.1-.594.06z" clip-rule="evenodd"/></g><defs><clipPath id="a"><path fill="#fff" d="M0 0h20v20H0z"/></clipPath></defs></symbol><symbol id="clipbord-list" viewBox="0 0 32 32"><path d="M7.077 27.333a2.322 2.322 0 0 1-1.704-.706 2.322 2.322 0 0 1-.706-1.704V7.077c0-.665.235-1.233.706-1.704a2.322 2.322 0 0 1 1.704-.706h5.934c.083-.74.406-1.37.969-1.889A2.879 2.879 0 0 1 16 2c.793 0 1.471.26 2.034.778a2.9 2.9 0 0 1 .956 1.889h5.933c.665 0 1.233.235 1.704.706.471.471.707 1.039.707 1.704v17.846c0 .665-.236 1.233-.707 1.704a2.322 2.322 0 0 1-1.704.706H7.077zm0-2h17.846a.392.392 0 0 0 .282-.128.392.392 0 0 0 .129-.282V7.077a.392.392 0 0 0-.129-.282.392.392 0 0 0-.282-.128H7.077a.392.392 0 0 0-.282.128.392.392 0 0 0-.128.282v17.846c0 .103.043.197.128.282.086.086.18.128.282.128zm2.59-3.154h8.667v-2H9.667v2zm0-5.18h12.667V15H9.667v2zm0-5.178h12.667v-2H9.667v2zM16 5.794a.971.971 0 0 0 .717-.284.972.972 0 0 0 .283-.716.972.972 0 0 0-.283-.717.971.971 0 0 0-.717-.283.971.971 0 0 0-.716.283.971.971 0 0 0-.284.717.971.971 0 0 0 1 1z"/></symbol><symbol id="right-arrow" viewBox="0 0 20 20"><path d="M16.346 10L10 16.346l-.89-.878 4.842-4.843H3.654v-1.25h10.298L9.11 4.532l.89-.878L16.346 10z"/></symbol><symbol id="left-arrow" viewBox="0 0 20 20"><path d="M3.654 10L10 3.654l.89.878-4.842 4.843h10.298v1.25H6.048l4.843 4.843-.89.878L3.654 10z"/></symbol><symbol id="upload-cloud-thin" viewBox="0 0 20 20"><g clip-path="url(#clip0_1174_1158)"><path d="M7.516 10.098l-.473-.473 2.984-2.984 2.985 2.984-.473.473-2.18-2.18v8.722h-.668V7.917l-2.175 2.18zM16.37 5.98c0-.055.008-.106.008-.157A5.166 5.166 0 0 0 11.21.656a5.16 5.16 0 0 0-4.657 2.942 2.663 2.663 0 0 0-3.82 1.934 3.996 3.996 0 0 0 1.293 7.778h4.337v-.67H4.027A3.334 3.334 0 0 1 .7 9.31a3.34 3.34 0 0 1 2.254-3.153l.375-.128.066-.391a1.992 1.992 0 0 1 2.864-1.449l.609.304.293-.613a4.516 4.516 0 0 1 4.05-2.555c2.481 0 4.5 2.02 4.5 4.5 0 .012 0 .028-.003.043-.004.032-.004.067-.004.102l-.015.68.679.003a3.006 3.006 0 0 1 2.992 3 3.005 3.005 0 0 1-2.985 2.997h-4.68v.668h4.684a3.668 3.668 0 0 0-.008-7.336h.001z"/></g><defs><clipPath id="clip0_1174_1158"><path fill="#fff" d="M0 0h20v20H0z"/></clipPath></defs></symbol><symbol id="edit" viewBox="0 0 24 24"><path d="M4.5 19.5h1.1L16.675 8.425l-1.1-1.1L4.5 18.4v1.1zM19.85 7.35l-3.2-3.2L17.7 3.1a1.426 1.426 0 0 1 1.05-.425c.417 0 .767.141 1.05.425l1.1 1.1c.283.283.425.633.425 1.05 0 .416-.142.766-.425 1.05l-1.05 1.05zM18.8 8.4L6.2 21H3v-3.2L15.6 5.2l3.2 3.2zm-2.675-.525l-.55-.55 1.1 1.1-.55-.55z"/></symbol><symbol id="browser" viewBox="0 0 24 24"><path d="M5.308 20.5c-.505 0-.933-.175-1.283-.525a1.745 1.745 0 0 1-.525-1.283V5.308c0-.505.175-.933.525-1.283.35-.35.778-.525 1.283-.525h13.384c.505 0 .933.175 1.283.525.35.35.525.778.525 1.283v13.384c0 .505-.175.933-.525 1.283-.35.35-.778.525-1.283.525H5.308zm0-1.5h13.384a.294.294 0 0 0 .212-.096.294.294 0 0 0 .096-.212v-7H5v7c0 .077.032.148.096.212a.294.294 0 0 0 .212.096zM5 10.192h14V5.308a.294.294 0 0 0-.096-.212.294.294 0 0 0-.212-.096H5.308a.294.294 0 0 0-.212.096.294.294 0 0 0-.096.212v4.884zM12 8h6V6h-6v2z"/></symbol><symbol id="circle-check" viewBox="0 0 24 24"><path d="M10.525 16.55L17.6 9.475 16.45 8.35l-5.925 5.925-3-3L6.4 12.4l4.125 4.15zM12 22a9.676 9.676 0 0 1-3.875-.788 10.144 10.144 0 0 1-3.188-2.15 10.142 10.142 0 0 1-2.15-3.187A9.676 9.676 0 0 1 2 12a9.74 9.74 0 0 1 .788-3.9 9.994 9.994 0 0 1 2.15-3.175 10.25 10.25 0 0 1 3.187-2.137A9.676 9.676 0 0 1 12 2a9.74 9.74 0 0 1 3.9.788 10.098 10.098 0 0 1 3.175 2.137c.9.9 1.613 1.958 2.137 3.175A9.738 9.738 0 0 1 22 12a9.676 9.676 0 0 1-.788 3.875 10.25 10.25 0 0 1-2.137 3.188 9.994 9.994 0 0 1-3.175 2.15A9.738 9.738 0 0 1 12 22zm0-1.5c2.367 0 4.375-.83 6.025-2.488C19.675 16.354 20.5 14.35 20.5 12c0-2.367-.825-4.375-2.475-6.025C16.375 4.325 14.367 3.5 12 3.5c-2.35 0-4.354.825-6.013 2.475C4.33 7.625 3.5 9.633 3.5 12c0 2.35.83 4.354 2.487 6.012C7.646 19.671 9.65 20.5 12 20.5z"/></symbol><symbol id="circle-exclamation" viewBox="0 0 24 24"><path d="M12.002 21.534c5.518 0 9.998-4.48 9.998-9.998 0-5.518-4.48-9.997-9.998-9.997-5.517 0-9.997 4.48-9.997 9.997 0 5.518 4.48 9.998 9.997 9.998zm0-1.5c-4.69 0-8.497-3.808-8.497-8.498a8.5 8.5 0 0 1 8.497-8.497c4.69 0 8.498 3.807 8.498 8.497 0 4.69-3.808 8.498-8.498 8.498zm0-6.5a.75.75 0 0 1-.75-.75v-5.5a.75.75 0 0 1 1.5 0v5.5a.75.75 0 0 1-.75.75zm-.002 3a1 1 0 1 0 0-2 1 1 0 0 0 0 2z"/></symbol><symbol id="triangle-exclamation" viewBox="0 0 24 24"><path d="M2.095 19.886l9.248-16.5a.753.753 0 0 1 1.313 0l9.248 16.5a.75.75 0 0 1-.656 1.116H2.752a.75.75 0 0 1-.657-1.116zm1.935-.384h15.939l-7.97-14.219L4.03 19.502zm7.972-6.497a.75.75 0 0 0-.75.75v3.5a.75.75 0 0 0 1.5 0v-3.5a.75.75 0 0 0-.75-.75zm-.002-3a1 1 0 1 1 0 2 1 1 0 0 1 0-2z"/></symbol><symbol id="product-2" viewBox="0 0 40 40"><path d="M34.956 11.095a.736.736 0 0 0-.35-.499L24.445 5.074a.732.732 0 0 0-.838.143l-3.632 3.99-3.632-3.99a.732.732 0 0 0-.838-.143L5.377 10.596a.736.736 0 0 0-.35.499c-.035.214.035.427.14.606l3.422 4.06-3.422 4.062c-.14.178-.21.392-.14.606a.736.736 0 0 0 .35.499l3.457 1.924v5.557a.8.8 0 0 0 .35.642l10.476 5.842c.035.036.07.036.105.036.035 0 .035 0 .07.035.07 0 .104.036.174.036.07 0 .105 0 .175-.036.035 0 .035 0 .07-.035.034 0 .07-.036.104-.036l10.477-5.843a.752.752 0 0 0 .35-.64v-5.558l3.457-1.924a.736.736 0 0 0 .349-.499c.035-.214-.035-.428-.14-.606l-3.422-4.061L34.85 11.7c.07-.179.14-.392.105-.606zm-28.182.32l8.905-4.845 3.143 3.456-9.15 4.845-2.898-3.455zm2.898 10.297l-2.898-1.64 2.898-3.42 9.115 5.095-3.353 3.17-5.448-3.063a1.212 1.212 0 0 0-.314-.142zm9.604 11.293l-9.08-5.059v-4.31l4.994 2.778c.105.071.21.071.35.071.174 0 .348-.07.488-.178l3.283-3.1v9.798h-.035zm10.477-5.059l-9.08 5.059v-9.797l3.282 3.1c.14.142.315.177.49.177.104 0 .244-.035.349-.07l4.959-2.78v4.311zm3.422-7.873l-8.66 4.845-3.353-3.17 9.114-5.095 2.899 3.42zm-2.899-5.202l-9.15-4.81 3.144-3.455 8.905 4.81-2.899 3.455z"/></symbol><symbol id="seo-content" viewBox="0 0 40 40"><path fill-rule="evenodd" d="M6.607 7.143h26.786A1.607 1.607 0 0 1 35 8.75v22.5a1.607 1.607 0 0 1-1.607 1.607H6.607A1.607 1.607 0 0 1 5 31.25V8.75a1.607 1.607 0 0 1 1.607-1.607zM32.62 9.376a.536.536 0 1 0-.595.89.536.536 0 0 0 .595-.89zm-2.143 0a.536.536 0 1 0-.595.89.536.536 0 0 0 .595-.89zm-2.143 0a.535.535 0 1 0-.595.89.535.535 0 0 0 .595-.89zm5.439 22.253c.1-.1.157-.237.157-.38V12.5H6.07v18.75a.536.536 0 0 0 .536.536h26.786a.536.536 0 0 0 .379-.157zM23.135 17.512a3.75 3.75 0 0 1 2.222-.727 3.75 3.75 0 1 1-1.178 7.308l-1.56 3.112a.536.536 0 0 1-.958-.482l1.553-3.107a3.75 3.75 0 0 1-.079-6.104zm.734 5.25a2.679 2.679 0 1 0 2.976-4.454 2.679 2.679 0 0 0-2.976 4.455zm-9.226-5.977h-3.214a.536.536 0 0 0-.536.536v3.214a.535.535 0 0 0 .536.536h2.678v2.143h-2.143v-.536a.536.536 0 0 0-1.071 0v1.072a.535.535 0 0 0 .536.535h3.214a.536.536 0 0 0 .536-.535v-3.215a.536.536 0 0 0-.536-.535h-2.679v-2.143h2.143v.536a.536.536 0 0 0 1.072 0V17.32a.536.536 0 0 0-.536-.536zm5.736.915c-.1.1-.237.157-.379.157h-2.679V20h1.608a.536.536 0 0 1 0 1.071H17.32v2.143H20a.536.536 0 1 1 0 1.071h-3.214a.536.536 0 0 1-.536-.535v-6.43a.536.536 0 0 1 .536-.536H20a.536.536 0 0 1 .379.915z" clip-rule="evenodd"/></symbol><symbol id="layout" viewBox="0 0 24 24"><path d="M5.308 20.5c-.505 0-.933-.175-1.283-.525a1.745 1.745 0 0 1-.525-1.283V5.308c0-.505.175-.933.525-1.283.35-.35.778-.525 1.283-.525h13.384c.505 0 .933.175 1.283.525.35.35.525.778.525 1.283v13.384c0 .505-.175.933-.525 1.283-.35.35-.778.525-1.283.525H5.308zm0-1.5h5.942V5H5.308a.294.294 0 0 0-.212.096.294.294 0 0 0-.096.212v13.384c0 .077.032.148.096.212a.294.294 0 0 0 .212.096zm7.442 0h5.942a.294.294 0 0 0 .212-.096.294.294 0 0 0 .096-.212V12h-6.25v7zm0-8.5H19V5.308a.294.294 0 0 0-.096-.212.294.294 0 0 0-.212-.096H12.75v5.5z"/></symbol><symbol id="shapes" viewBox="0 0 24 24"><path d="M7.192 10.616L12 2.73l4.808 7.885H7.192zm10.308 11c-1.147 0-2.12-.4-2.918-1.198-.798-.798-1.197-1.77-1.197-2.918 0-1.147.399-2.12 1.197-2.918s1.77-1.197 2.918-1.197c1.148 0 2.12.399 2.918 1.197s1.198 1.77 1.198 2.918c0 1.148-.4 2.12-1.198 2.918-.798.799-1.77 1.198-2.918 1.198zm-14.115-.5v-7.231h7.23v7.23h-7.23zm14.115-1c.732 0 1.351-.253 1.857-.759.506-.505.759-1.124.759-1.857 0-.732-.253-1.35-.759-1.857-.505-.505-1.124-.758-1.857-.758-.732 0-1.35.252-1.857.758-.505.506-.758 1.125-.758 1.857s.252 1.351.758 1.857 1.125.759 1.857.759zm-12.615-.5h4.23v-4.231h-4.23v4.23zm4.954-10.5h4.323L12 5.639 9.84 9.116z"/></symbol></svg>