<svg xmlns="http://www.w3.org/2000/svg"><symbol id="accordion" viewBox="0 0 40 40"><path d="M12.252 35.438l-1.004-.983L20 25.703l8.752 8.752-1.004.983L20 27.712l-7.748 7.726zM20 14.291l-8.752-8.753 1.004-1.004L20 12.282l7.748-7.748 1.004 1.004L20 14.291z"/></symbol><symbol id="add" viewBox="0 0 20 20"><path d="M9.375 15.625v-5h-5v-1.25h5v-5h1.25v5h5v1.25h-5v5h-1.25z"/></symbol><symbol id="code" viewBox="0 0 40 40"><path d="M13.334 28.812l-8.847-8.846 8.88-8.86.993 1.015-7.848 7.848 7.832 7.832-1.01 1.011zm13.299.034l-.993-1.014 7.848-7.848-7.832-7.854 1.01-1.01 8.847 8.846-8.88 8.88z"/></symbol><symbol id="article" viewBox="0 0 40 40"><path d="M12.46 27.506h9.946v-1.41H12.46v1.41zm0-6.801h15.08v-1.41H12.46v1.41zm0-6.801h15.08v-1.41H12.46v1.41zm-3.357 19.43c-.683 0-1.26-.236-1.73-.707-.47-.47-.706-1.047-.706-1.73V9.102c0-.682.235-1.259.706-1.73.47-.47 1.047-.705 1.73-.705h21.795c.683 0 1.26.235 1.73.705.47.471.706 1.048.706 1.73v21.795c0 .683-.236 1.26-.706 1.73s-1.047.706-1.73.706H9.103zm0-1.411h21.795c.256 0 .491-.107.705-.32.214-.214.32-.45.32-.706V9.102c0-.256-.106-.491-.32-.705-.214-.213-.449-.32-.705-.32H9.103c-.257 0-.492.107-.705.32-.214.214-.32.449-.32.705v21.795c0 .257.106.492.32.705.213.214.448.32.705.32z"/></symbol><symbol id="column-config" viewBox="0 0 20 20"><path d="M9.375 17.292v-4.584h1.25v1.667h6.666v1.25h-6.666v1.667h-1.25zm-6.667-1.667v-1.25h4.583v1.25H2.708zm3.333-3.333v-1.667H2.708v-1.25h3.333V7.708h1.25v4.584h-1.25zm3.334-1.667v-1.25h7.916v1.25H9.375zm3.333-3.333V2.709h1.25v1.666h3.333v1.25h-3.333v1.667h-1.25zm-10-1.667v-1.25h7.917v1.25H2.708z"/></symbol><symbol id="column-three" viewBox="0 0 20 20"><path d="M2.917 15.417V4.583h4.301v10.834H2.917zm5.038 0V4.583h4.077v10.834H7.955zm4.815 0V4.583h4.3v10.834h-4.3z"/></symbol><symbol id="copy" viewBox="0 0 20 20"><path d="M4.792 17.756c-.421 0-.778-.145-1.07-.437a1.454 1.454 0 0 1-.437-1.069V5.673h1.25V16.25c0 .064.027.123.08.176.054.054.112.08.177.08h8.076v1.25H4.792zm2.916-2.916c-.42 0-.777-.146-1.069-.438a1.454 1.454 0 0 1-.437-1.069V3.846c0-.42.146-.777.437-1.069a1.454 1.454 0 0 1 1.07-.437h6.986c.421 0 .778.146 1.07.437.29.292.437.648.437 1.07v9.486c0 .421-.146.778-.438 1.07a1.454 1.454 0 0 1-1.069.437H7.708zm0-1.25h6.987a.245.245 0 0 0 .177-.08.245.245 0 0 0 .08-.177V3.846a.245.245 0 0 0-.08-.176.245.245 0 0 0-.177-.08H7.708a.245.245 0 0 0-.176.08.245.245 0 0 0-.08.176v9.487c0 .065.026.123.08.177.053.053.112.08.176.08z"/></symbol><symbol id="button" viewBox="0 0 40 40"><path d="M7.436 28.333c-.683 0-1.26-.235-1.73-.706-.47-.47-.706-1.047-.706-1.73V14.102c0-.682.235-1.259.706-1.73.47-.47 1.047-.706 1.73-.706h25.128c.683 0 1.26.236 1.73.706.47.471.706 1.048.706 1.73v11.795c0 .683-.235 1.26-.706 1.73-.47.47-1.047.706-1.73.706H7.436zm0-1.41h25.128c.3 0 .545-.096.737-.288a.998.998 0 0 0 .289-.738V14.102a.995.995 0 0 0-.289-.737.998.998 0 0 0-.737-.288H7.436c-.3 0-.545.096-.737.288a.998.998 0 0 0-.289.737v11.795c0 .3.096.545.289.738a.998.998 0 0 0 .737.288z"/></symbol><symbol id="crop" viewBox="0 0 20 20"><path d="M14.375 18.958v-3.333H5.882c-.421 0-.778-.146-1.07-.438a1.454 1.454 0 0 1-.437-1.069V5.625H1.042v-1.25h3.333V1.042h1.25v13.076a.25.25 0 0 0 .08.177.25.25 0 0 0 .177.08h13.077v1.25h-3.334v3.333h-1.25zm0-5.833V5.88a.245.245 0 0 0-.08-.176.245.245 0 0 0-.176-.08H6.875v-1.25h7.244c.42 0 .777.146 1.069.437.291.292.437.648.437 1.07v7.243h-1.25z"/></symbol><symbol id="down-arrow-long" viewBox="0 0 20 20"><path d="M4.166 12.5l.875-.875 4.334 4.333V1.667h1.25v14.291l4.333-4.333.875.875L10 18.333 4.166 12.5z"/></symbol><symbol id="delete" viewBox="0 0 20 20"><path d="M6.09 17.083c-.416 0-.77-.147-1.065-.441a1.451 1.451 0 0 1-.442-1.065V5H3.75V3.75H7.5v-.737h5v.737h3.75V5h-.833v10.577c0 .42-.146.777-.438 1.069a1.454 1.454 0 0 1-1.069.437H6.09zM14.167 5H5.833v10.577a.25.25 0 0 0 .072.184.25.25 0 0 0 .185.072h7.82a.245.245 0 0 0 .176-.08.245.245 0 0 0 .08-.176V5zm-6.33 9.166h1.25v-7.5h-1.25v7.5zm3.076 0h1.25v-7.5h-1.25v7.5z"/></symbol><symbol id="down-arrow" viewBox="0 0 20 20"><path d="M10 16.346L3.654 10l.878-.891 4.843 4.843V3.654h1.25v10.298l4.843-4.843.878.89L10 16.347z"/></symbol><symbol id="edit-content" viewBox="0 0 20 20"><g clip-path="url(#a)"><path d="M10.208 17.292v-1.483l4.353-4.352 1.482 1.482-4.353 4.353h-1.482zm-7.5-4.167v-1.25h5.833v1.25H2.708zm13.918-.77l-1.482-1.481.604-.605a.598.598 0 0 1 .44-.18c.171 0 .318.06.438.18l.604.605c.121.12.181.267.181.439s-.06.318-.18.439l-.605.604zM2.708 9.793v-1.25h9.167v1.25H2.708zm0-3.334v-1.25h9.167v1.25H2.708z"/></g><defs><clipPath id="a"><path fill="#fff" d="M0 0h20v20H0z"/></clipPath></defs></symbol><symbol id="grip-dots-vertical" viewBox="0 0 20 20"><path d="M7.5 16.346c-.37 0-.687-.132-.95-.395A1.296 1.296 0 0 1 6.154 15c0-.37.132-.687.396-.95.263-.264.58-.396.95-.396s.688.132.951.395c.264.264.396.58.396.95 0 .371-.132.688-.396.952-.263.263-.58.395-.95.395zm5 0c-.37 0-.687-.132-.95-.395a1.296 1.296 0 0 1-.396-.951c0-.37.132-.687.396-.95.263-.264.58-.396.95-.396s.688.132.951.395c.264.264.396.58.396.95 0 .371-.132.688-.396.952-.264.263-.58.395-.95.395zm-5-5c-.37 0-.687-.132-.95-.395A1.296 1.296 0 0 1 6.154 10c0-.37.132-.687.396-.95.263-.264.58-.396.95-.396s.688.132.951.395c.264.264.396.58.396.95 0 .371-.132.688-.396.952-.263.263-.58.395-.95.395zm5 0c-.37 0-.687-.132-.95-.395a1.296 1.296 0 0 1-.396-.951c0-.37.132-.687.396-.95.263-.264.58-.396.95-.396s.688.132.951.395c.264.264.396.58.396.95 0 .371-.132.688-.396.952-.264.263-.58.395-.95.395zm-5-5c-.37 0-.687-.132-.95-.395A1.296 1.296 0 0 1 6.154 5c0-.37.132-.687.396-.95.263-.264.58-.396.95-.396s.688.132.951.395c.264.264.396.58.396.95 0 .371-.132.688-.396.952-.263.263-.58.395-.95.395zm5 0c-.37 0-.687-.132-.95-.395A1.296 1.296 0 0 1 11.154 5c0-.37.132-.687.396-.95.263-.264.58-.396.95-.396s.688.132.951.395c.264.264.396.58.396.95 0 .371-.132.688-.396.952-.264.263-.58.395-.95.395z"/></symbol><symbol id="form" viewBox="0 0 40 40"><path d="M7.342 33.333c-.683 0-1.26-.235-1.73-.706-.47-.47-.706-1.047-.706-1.73V9.102c0-.682.236-1.259.706-1.73.47-.47 1.047-.705 1.73-.705h25.316c.683 0 1.26.235 1.73.705.471.471.706 1.048.706 1.73v21.795c0 .683-.235 1.26-.706 1.73-.47.47-1.047.706-1.73.706H7.342zm0-1.41h25.316c.257 0 .492-.107.706-.32.213-.214.32-.45.32-.706V9.102c0-.256-.107-.491-.32-.705-.214-.213-.45-.32-.706-.32H7.342c-.256 0-.491.107-.705.32-.214.214-.32.449-.32.705v21.795c0 .257.106.492.32.705.214.214.449.32.705.32zM9.167 27.5h6.667v-1.667H9.167V27.5zm15.083-3.686l7.064-7.064-1.189-1.19-5.875 5.917-2.375-2.375-1.147 1.19 3.522 3.522zm-15.083-2.98h6.667v-1.668H9.167v1.667zm0-6.668h6.667V12.5H9.167v1.666z"/></symbol><symbol id="filter" viewBox="0 0 20 20"><path d="M9.487 16.25a.714.714 0 0 1-.526-.212.713.713 0 0 1-.211-.525v-4.824L4.085 4.763c-.16-.214-.184-.436-.07-.667.114-.23.306-.346.576-.346H15.41c.27 0 .462.115.576.346.113.23.09.453-.07.667l-4.665 5.926v4.824c0 .21-.07.384-.212.525a.714.714 0 0 1-.525.212H9.487zm.513-6L14.125 5h-8.25L10 10.25z"/></symbol><symbol id="left-arrow-long" viewBox="0 0 20 20"><path d="M7.5 4.167l.875.875L4.04 9.375h14.292v1.25H4.041l4.334 4.334-.875.875L1.666 10 7.5 4.167z"/></symbol><symbol id="link" viewBox="0 0 24 24"><path d="M10.808 16.538H7c-1.255 0-2.326-.442-3.21-1.327-.886-.885-1.328-1.955-1.328-3.21 0-1.256.442-2.326 1.327-3.212C4.674 7.904 5.745 7.461 7 7.461h3.808v1.5H7c-.84 0-1.556.297-2.149.89A2.928 2.928 0 0 0 3.961 12c0 .84.297 1.556.89 2.149s1.31.89 2.15.89h3.807v1.5zM8.25 12.75v-1.5h7.5v1.5h-7.5zm4.943 3.788v-1.5H17c.84 0 1.556-.296 2.15-.89A2.927 2.927 0 0 0 20.039 12c0-.84-.297-1.556-.89-2.15A2.928 2.928 0 0 0 17 8.962h-3.807v-1.5H17c1.256 0 2.326.443 3.211 1.328.885.885 1.328 1.955 1.328 3.21 0 1.256-.443 2.326-1.328 3.211-.885.886-1.955 1.328-3.21 1.328h-3.808z"/></symbol><symbol id="location" viewBox="0 0 40 40"><path d="M20 28.556c3.063-2.422 5.377-4.745 6.944-6.97 1.567-2.225 2.35-4.38 2.35-6.464 0-1.739-.316-3.215-.95-4.43-.635-1.214-1.42-2.2-2.356-2.955a9.218 9.218 0 0 0-3.024-1.647c-1.08-.342-2.067-.513-2.962-.513s-1.883.17-2.964.513a9.216 9.216 0 0 0-3.026 1.647c-.936.756-1.721 1.74-2.356 2.956-.634 1.214-.95 2.69-.95 4.429 0 2.084.783 4.24 2.35 6.464 1.567 2.225 3.882 4.549 6.944 6.97zm0 1.794c-3.608-2.72-6.294-5.343-8.058-7.866-1.765-2.524-2.647-4.979-2.647-7.365 0-1.802.322-3.383.965-4.742.644-1.36 1.476-2.502 2.498-3.426a10.392 10.392 0 0 1 3.454-2.086c1.282-.466 2.545-.699 3.788-.699 1.242 0 2.505.233 3.787.7a10.39 10.39 0 0 1 3.456 2.085c1.021.924 1.853 2.066 2.497 3.426.643 1.36.965 2.943.965 4.748 0 2.39-.882 4.844-2.647 7.364-1.764 2.52-4.45 5.14-8.058 7.861zm.004-13.107c.67 0 1.23-.228 1.686-.686.454-.457.682-1.02.682-1.69 0-.668-.229-1.23-.686-1.685-.458-.455-1.021-.682-1.69-.682s-1.23.229-1.686.686c-.454.458-.682 1.02-.682 1.69 0 .669.229 1.23.687 1.685.457.455 1.02.682 1.69.682zm-10.71 18.59v-1.41h21.411v1.41H9.295z"/></symbol><symbol id="image" viewBox="0 0 40 40"><path d="M9.103 33.333c-.683 0-1.26-.235-1.73-.706-.47-.47-.706-1.047-.706-1.73V9.102c0-.682.235-1.259.706-1.73.47-.47 1.047-.705 1.73-.705h21.795c.683 0 1.26.235 1.73.705.47.471.706 1.048.706 1.73v21.795c0 .683-.236 1.26-.706 1.73s-1.047.706-1.73.706H9.103zm0-1.41h21.795c.256 0 .491-.107.705-.32.214-.214.32-.45.32-.706V9.102c0-.256-.106-.491-.32-.705-.214-.213-.449-.32-.705-.32H9.103c-.257 0-.492.107-.705.32-.214.214-.32.449-.32.705v21.795c0 .257.106.492.32.705.213.214.448.32.705.32zm3.35-4.382h15.378l-4.692-6.236-4.5 5.648-2.957-3.613-3.229 4.2zm1.719-11.836c.425 0 .787-.15 1.085-.453.3-.302.449-.665.449-1.09 0-.425-.151-.787-.453-1.086a1.494 1.494 0 0 0-1.09-.448c-.426 0-.787.15-1.086.453a1.494 1.494 0 0 0-.448 1.09c0 .425.15.787.452 1.086.302.299.665.448 1.09.448z"/></symbol><symbol id="order-list" viewBox="0 0 24 24"><path d="M3.5 21.5v-1.192H6V19.25H4.5v-1.192H6V17H3.5v-1.192h2.846c.24 0 .44.08.603.243a.819.819 0 0 1 .243.603v1.192c0 .24-.08.44-.243.603a.819.819 0 0 1-.603.243c.24 0 .44.081.603.244a.819.819 0 0 1 .243.602v1.116c0 .24-.08.44-.243.603a.819.819 0 0 1-.603.243H3.5zm0-6.654V12.25c0-.24.081-.44.243-.603a.819.819 0 0 1 .603-.243H6v-1.058H3.5V9.154h2.846c.24 0 .44.08.603.243a.819.819 0 0 1 .243.603v1.75c0 .24-.08.44-.243.603a.819.819 0 0 1-.603.243H4.692v1.058h2.5v1.192H3.5zM5 8.192v-4.5H3.5V2.5h2.692v5.692H5zM9.308 18.75v-1.5H20.5v1.5H9.308zm0-6v-1.5H20.5v1.5H9.308zm0-6v-1.5H20.5v1.5H9.308z"/></symbol><symbol id="right-arrow-long" viewBox="0 0 20 20"><path d="M12.5 15.833l-.875-.875 4.334-4.333H1.667v-1.25h14.292l-4.334-4.333.875-.875L18.334 10 12.5 15.833z"/></symbol><symbol id="save" viewBox="0 0 20 20"><path d="M17.084 6.01v9.567c0 .42-.146.777-.438 1.069a1.454 1.454 0 0 1-1.069.437H4.423c-.42 0-.777-.146-1.069-.437a1.454 1.454 0 0 1-.437-1.07V4.424c0-.421.146-.777.437-1.069a1.454 1.454 0 0 1 1.07-.438h9.567l3.093 3.093zm-1.25.531l-2.375-2.375H4.423a.25.25 0 0 0-.184.073.25.25 0 0 0-.072.184v11.154a.25.25 0 0 0 .072.184.25.25 0 0 0 .184.072h11.154a.25.25 0 0 0 .184-.072.25.25 0 0 0 .073-.184V6.54zM10 14.391c.577 0 1.069-.203 1.475-.61.406-.405.609-.897.609-1.474 0-.576-.203-1.068-.61-1.474A2.008 2.008 0 0 0 10 10.224c-.577 0-1.068.203-1.474.61a2.008 2.008 0 0 0-.609 1.473c0 .577.203 1.069.609 1.475.406.406.897.609 1.474.609zM5.32 8.237h6.844V5.32H5.32v2.917zM4.168 6.541v9.292V4.166v2.375z"/></symbol><symbol id="more" viewBox="0 0 20 20"><path d="M10 16.667c-.459 0-.85-.163-1.177-.49A1.606 1.606 0 0 1 8.333 15c0-.458.163-.85.49-1.177.326-.326.718-.49 1.177-.49.458 0 .85.164 1.177.49.326.326.49.719.49 1.177 0 .459-.164.851-.49 1.178a1.606 1.606 0 0 1-1.177.489zm0-5c-.459 0-.85-.163-1.177-.49A1.603 1.603 0 0 1 8.333 10c0-.458.163-.85.49-1.177.326-.326.718-.49 1.177-.49.458 0 .85.164 1.177.49.326.326.49.719.49 1.177 0 .459-.164.85-.49 1.177-.326.327-.719.49-1.177.49zm0-5c-.459 0-.85-.163-1.177-.49A1.603 1.603 0 0 1 8.333 5c0-.458.163-.85.49-1.176.326-.327.718-.49 1.177-.49.458 0 .85.163 1.177.49.326.326.49.718.49 1.176 0 .458-.164.85-.49 1.177-.326.327-.719.49-1.177.49z"/></symbol><symbol id="search" viewBox="0 0 16 16"><path d="M13.267 13.983L8.883 9.6a3.673 3.673 0 0 1-1.166.675 4.125 4.125 0 0 1-1.417.242c-1.2 0-2.217-.417-3.05-1.25C2.417 8.433 2 7.427 2 6.25c0-1.178.417-2.183 1.25-3.017.833-.833 1.844-1.25 3.033-1.25 1.178 0 2.18.417 3.009 1.25.827.834 1.241 1.84 1.241 3.017A4.156 4.156 0 0 1 9.6 8.883L14 13.25l-.733.733zM6.283 9.517c.9 0 1.667-.32 2.3-.959a3.16 3.16 0 0 0 .95-2.308c0-.9-.316-1.67-.95-2.308a3.119 3.119 0 0 0-2.3-.959c-.91 0-1.686.32-2.325.959A3.146 3.146 0 0 0 3 6.25c0 .9.32 1.67.958 2.308a3.166 3.166 0 0 0 2.325.959z"/></symbol><symbol id="product" viewBox="0 0 20 20"><path d="M9.375 16.308v-5.949L4.167 7.343v5.805c0 .042.01.082.032.12.021.037.053.07.096.096l5.08 2.944zm1.25 0l5.08-2.944a.276.276 0 0 0 .097-.096.238.238 0 0 0 .032-.12V7.343l-5.209 3.016v5.949zM10 9.282l5.146-2.974-5.018-2.902a.24.24 0 0 0-.128-.04.24.24 0 0 0-.128.04L4.854 6.308 10 9.282zm-6.33 5.18a1.483 1.483 0 0 1-.753-1.302V6.84a1.475 1.475 0 0 1 .753-1.301l5.577-3.21a1.485 1.485 0 0 1 1.507 0l5.576 3.21a1.484 1.484 0 0 1 .754 1.3v6.321a1.475 1.475 0 0 1-.754 1.302l-5.576 3.21a1.484 1.484 0 0 1-1.507 0l-5.577-3.21z"/></symbol><symbol id="settings" viewBox="0 0 20 20"><path d="M8.077 17.917l-.317-2.539a4.415 4.415 0 0 1-1.316-.747l-2.351.994-1.923-3.333 2.034-1.537a4.178 4.178 0 0 1-.041-.373 5.839 5.839 0 0 1 0-.735c.008-.123.021-.256.04-.402L2.17 7.708l1.923-3.317 2.343.986c.2-.16.415-.305.643-.437a4.24 4.24 0 0 1 .673-.318l.325-2.538h3.846l.317 2.546c.25.09.477.197.68.318.201.121.406.264.612.429l2.375-.986 1.923 3.317-2.066 1.561c.03.135.047.26.05.378.002.117.003.235.003.353 0 .113-.002.229-.008.345a2.387 2.387 0 0 1-.057.402l2.05 1.545-1.924 3.333-2.346-1.002c-.206.165-.417.31-.631.437a3.81 3.81 0 0 1-.66.31l-.318 2.547H8.077zM10.01 12.5a2.41 2.41 0 0 0 1.77-.73 2.41 2.41 0 0 0 .73-1.77 2.41 2.41 0 0 0-.73-1.77 2.41 2.41 0 0 0-1.77-.73c-.702 0-1.294.243-1.777.73A2.421 2.421 0 0 0 7.51 10c0 .694.24 1.284.723 1.77.483.487 1.075.73 1.777.73zm0-1.25c-.348 0-.643-.121-.886-.364A1.206 1.206 0 0 1 8.76 10c0-.347.121-.642.364-.885s.538-.365.886-.365c.347 0 .642.122.885.365s.365.538.365.885-.122.643-.365.886a1.206 1.206 0 0 1-.885.364zm-.843 5.417h1.638l.3-2.233a4.642 4.642 0 0 0 1.165-.473 5.147 5.147 0 0 0 1.019-.79l2.07.87.82-1.416-1.807-1.362c.07-.216.117-.427.142-.635a5.222 5.222 0 0 0 0-1.256 3.26 3.26 0 0 0-.142-.619l1.823-1.378-.82-1.417-2.095.883a4.432 4.432 0 0 0-1.002-.79 4.306 4.306 0 0 0-1.182-.485l-.263-2.233H9.18l-.275 2.225c-.425.1-.818.254-1.178.461-.36.208-.704.475-1.03.802l-2.071-.863-.82 1.417 1.8 1.341c-.07.198-.119.404-.147.617a5.235 5.235 0 0 0 0 1.313c.028.208.074.414.138.617l-1.792 1.362.821 1.417 2.063-.875c.316.325.654.59 1.014.798.36.207.758.366 1.194.478l.27 2.224z"/></symbol><symbol id="share" viewBox="0 0 40 40"><path d="M30.086 35.833c-1.135 0-2.1-.398-2.893-1.193-.794-.795-1.191-1.76-1.191-2.897 0-.218.02-.46.06-.722.041-.263.11-.5.205-.713l-13.188-7.765c-.386.482-.856.86-1.41 1.133a3.912 3.912 0 0 1-1.75.41c-1.135 0-2.1-.398-2.894-1.193C6.23 22.1 5.833 21.133 5.833 20c0-1.136.397-2.1 1.192-2.894.794-.794 1.759-1.19 2.893-1.19a4.023 4.023 0 0 1 3.16 1.502l13.189-7.731a2.824 2.824 0 0 1-.204-.702 4.614 4.614 0 0 1-.061-.732c0-1.135.397-2.1 1.192-2.894.794-.794 1.76-1.191 2.895-1.191s2.1.396 2.893 1.19c.794.794 1.19 1.757 1.19 2.891 0 1.153-.396 2.123-1.19 2.91-.795.786-1.76 1.18-2.895 1.18a4.16 4.16 0 0 1-1.741-.37 3.93 3.93 0 0 1-1.413-1.092l-13.166 7.67A4.805 4.805 0 0 1 14.004 20c0 .226-.02.46-.061.706-.04.245-.1.477-.176.694l13.166 7.697c.4-.44.864-.79 1.394-1.047a3.97 3.97 0 0 1 1.76-.387c1.135 0 2.1.392 2.894 1.177.795.784 1.192 1.749 1.192 2.894 0 1.146-.398 2.116-1.192 2.91-.795.793-1.76 1.19-2.895 1.19zm.006-24.906c.737 0 1.366-.262 1.888-.787a2.589 2.589 0 0 0 .783-1.893c0-.737-.263-1.366-.788-1.888a2.588 2.588 0 0 0-1.892-.782c-.737 0-1.367.262-1.888.787a2.588 2.588 0 0 0-.783 1.893c0 .737.262 1.366.787 1.888a2.588 2.588 0 0 0 1.893.782zM9.923 22.675c.737 0 1.366-.262 1.888-.787a2.589 2.589 0 0 0 .783-1.893c0-.737-.263-1.366-.788-1.888a2.589 2.589 0 0 0-1.892-.782c-.737 0-1.366.262-1.888.787a2.588 2.588 0 0 0-.783 1.893c0 .736.263 1.366.788 1.887a2.588 2.588 0 0 0 1.892.783zm20.169 11.748c.737 0 1.366-.263 1.888-.787a2.588 2.588 0 0 0 .783-1.893c0-.737-.263-1.366-.788-1.888a2.589 2.589 0 0 0-1.892-.782c-.737 0-1.367.262-1.888.787a2.588 2.588 0 0 0-.783 1.892c0 .737.262 1.367.787 1.888a2.588 2.588 0 0 0 1.893.783z"/></symbol><symbol id="text-align-right" viewBox="0 0 24 24"><path d="M3.25 20.75v-1.5h17.5v1.5H3.25zm6-4v-1.5h11.5v1.5H9.25zm-6-4v-1.5h17.5v1.5H3.25zm6-4v-1.5h11.5v1.5H9.25zm-6-4v-1.5h17.5v1.5H3.25z"/></symbol><symbol id="space" viewBox="0 0 40 40"><path d="M7.534 35.833v-1.41h24.932v1.41H7.534zm12.5-4.936l-5.419-5.418 1.011-1.011 3.703 3.696V11.835l-3.703 3.697-1.01-1.01 5.418-5.42 5.398 5.42-1.011 1.01-3.682-3.697v16.33l3.682-3.697 1.01 1.01-5.397 5.42zm-12.5-25.32v-1.41h24.932v1.41H7.534z"/></symbol><symbol id="text-align-justify" viewBox="0 0 25 24"><path d="M3.75 20.75v-1.5h17.5v1.5H3.75zm0-4v-1.5h17.5v1.5H3.75zm0-4v-1.5h17.5v1.5H3.75zm0-4v-1.5h17.5v1.5H3.75zm0-4v-1.5h17.5v1.5H3.75z"/></symbol><symbol id="text-align-left" viewBox="0 0 24 24"><path d="M3.25 20.75v-1.5h17.5v1.5H3.25zm0-4v-1.5h11.5v1.5H3.25zm0-4v-1.5h17.5v1.5H3.25zm0-4v-1.5h11.5v1.5H3.25zm0-4v-1.5h17.5v1.5H3.25z"/></symbol><symbol id="text-bold" viewBox="0 0 24 24"><path d="M7.339 18.625V5.375H12.2c1.02 0 1.941.317 2.765.952.824.635 1.235 1.489 1.235 2.563 0 .748-.18 1.357-.541 1.828-.36.471-.75.813-1.166 1.026.512.177 1.002.527 1.469 1.05.466.522.7 1.225.7 2.11 0 1.278-.471 2.218-1.414 2.819-.942.601-1.891.902-2.848.902H7.34zm2.15-1.992h2.83c.788 0 1.344-.219 1.67-.656.325-.437.488-.857.488-1.258s-.162-.82-.488-1.258c-.326-.437-.898-.655-1.716-.655H9.49v3.827zm0-5.758h2.594c.608 0 1.09-.174 1.445-.521.356-.348.534-.764.534-1.248 0-.516-.188-.937-.564-1.264-.377-.327-.838-.49-1.384-.49H9.489v3.523z"/></symbol><symbol id="text-italic" viewBox="0 0 25 24"><path d="M5.895 18.625v-1.808h3.817l3.24-9.634H9.135V5.375h9.154v1.808h-3.51l-3.24 9.634h3.51v1.808H5.894z"/></symbol><symbol id="text-underline" viewBox="0 0 24 24"><path d="M5.346 20.125v-1.5h13.307v1.5H5.346zm6.653-3.596c-1.555 0-2.768-.472-3.64-1.416-.873-.945-1.31-2.21-1.31-3.796V3.414h1.854v7.996c0 1.01.269 1.82.806 2.428.537.61 1.3.914 2.29.914s1.754-.305 2.29-.914c.538-.608.807-1.418.807-2.428V3.414h1.854v7.903c0 1.586-.437 2.851-1.31 3.796-.872.944-2.085 1.416-3.64 1.416z"/></symbol><symbol id="text-aling-center" viewBox="0 0 25 24"><path d="M3.75 20.75v-1.5h17.5v1.5H3.75zm4-4v-1.5h9.5v1.5h-9.5zm-4-4v-1.5h17.5v1.5H3.75zm4-4v-1.5h9.5v1.5h-9.5zm-4-4v-1.5h17.5v1.5H3.75z"/></symbol><symbol id="text" viewBox="0 0 40 40"><path d="M19.32 26.692V14.77h-5v-1.41h11.41v1.41h-5v11.923h-1.41zM4 36.052v-6.708h2.686V10.707H4V4h6.707v2.686h18.637V4h6.707v6.707h-2.686v18.637h2.686v6.707h-6.707v-2.686H10.707v2.686H4zm6.707-4.097h18.637v-2.61h2.611V10.706h-2.611v-2.61H10.707v2.61h-2.61v18.637h2.61v2.611zM5.41 9.297h3.887V5.41H5.41v3.887zm25.344 0h3.887V5.41h-3.887v3.887zm0 25.344h3.887v-3.887h-3.887v3.887zm-25.344 0h3.887v-3.887H5.41v3.887z"/></symbol><symbol id="up-arrow-long" viewBox="0 0 20 20"><path d="M15.834 7.5l-.875.875-4.334-4.333v14.291h-1.25V4.043L5.042 8.375 4.167 7.5 10 1.667 15.834 7.5z"/></symbol><symbol id="video" viewBox="0 0 40 40"><path d="M16.829 25.793l9.038-5.827-9.038-5.806v11.633zm-9.393 5.874c-.683 0-1.26-.236-1.73-.706S5 29.914 5 29.23V10.769c0-.682.235-1.259.706-1.73.47-.47 1.047-.705 1.73-.705h25.128c.683 0 1.26.235 1.73.705.47.471.706 1.048.706 1.73v18.462c0 .683-.235 1.26-.706 1.73-.47.47-1.047.706-1.73.706H7.436zm0-1.41h25.128c.257 0 .492-.107.705-.32.214-.215.32-.45.32-.706V10.769c0-.256-.106-.491-.32-.705-.213-.213-.448-.32-.705-.32H7.436c-.257 0-.492.107-.705.32-.214.214-.32.449-.32.705v18.462c0 .256.106.491.32.705.213.214.448.32.705.32z"/></symbol><symbol id="up-arrow" viewBox="0 0 20 20"><path d="M10 3.654L16.346 10l-.879.891-4.842-4.843v10.298h-1.25V6.048l-4.843 4.843-.879-.89L10 3.653z"/></symbol><symbol id="x-mark" viewBox="0 0 20 20"><path d="M5.333 15.545l-.878-.878L9.122 10 4.455 5.333l.878-.878L10 9.122l4.667-4.667.878.878L10.878 10l4.667 4.667-.878.878L10 10.878l-4.667 4.667z"/></symbol><symbol id="unorder-list" viewBox="0 0 25 24"><path d="M9.808 18.75v-1.5H21v1.5H9.808zm0-6v-1.5H21v1.5H9.808zm0-6v-1.5H21v1.5H9.808zM5.663 19.663c-.457 0-.849-.163-1.174-.488A1.602 1.602 0 0 1 4 18c0-.458.163-.85.489-1.175a1.602 1.602 0 0 1 1.174-.489c.458 0 .85.163 1.175.49.326.325.489.716.489 1.174 0 .457-.163.849-.489 1.175a1.602 1.602 0 0 1-1.175.488zm0-6c-.457 0-.849-.163-1.174-.488A1.602 1.602 0 0 1 4 12c0-.458.163-.85.489-1.175a1.602 1.602 0 0 1 1.174-.489c.458 0 .85.163 1.175.49.326.325.489.716.489 1.174 0 .457-.163.849-.489 1.175a1.602 1.602 0 0 1-1.175.488zm0-6c-.457 0-.849-.163-1.174-.488A1.602 1.602 0 0 1 4 6c0-.458.163-.85.489-1.175a1.602 1.602 0 0 1 1.174-.489 1.6 1.6 0 0 1 1.175.489c.326.326.489.717.489 1.175 0 .457-.163.849-.489 1.175a1.602 1.602 0 0 1-1.175.488z"/></symbol><symbol id="view-column" viewBox="0 0 20 20"><g clip-path="url(#a)"><path fill-rule="evenodd" d="M9.716 16.826a2.25 2.25 0 0 0 2.467-.494l4.654-4.711a2.294 2.294 0 0 0 .663-1.62 2.313 2.313 0 0 0-.663-1.62l-4.654-4.71a2.262 2.262 0 0 0-1.6-.671 2.24 2.24 0 0 0-1.601.671L6.659 6.028l.872.882 2.323-2.354a1.023 1.023 0 0 1 1.455 0l4.658 4.71a1.047 1.047 0 0 1 0 1.472l-4.658 4.71a1.023 1.023 0 0 1-1.455 0l-2.323-2.355-.876.882 2.327 2.355c.21.212.46.38.734.496zM6.94 9.376a2.28 2.28 0 0 0-.576-.994 2.238 2.238 0 0 0-2.466-.496 2.269 2.269 0 0 0-1.016.843 2.31 2.31 0 0 0 0 2.544c.249.377.602.67 1.016.844a2.24 2.24 0 0 0 2.466-.496 2.28 2.28 0 0 0 .576-.995h4.477l-1.852 1.873.872.887 2.91-2.943a.628.628 0 0 0 0-.883L10.44 6.62l-.873.883 1.852 1.874h-4.48zm-2.378 1.647c-.2-.04-.383-.14-.527-.285a1.047 1.047 0 0 1 .527-1.756 1.017 1.017 0 0 1 1.056.442 1.05 1.05 0 0 1-.462 1.54c-.188.079-.395.1-.594.06z" clip-rule="evenodd"/></g><defs><clipPath id="a"><path fill="#fff" d="M0 0h20v20H0z"/></clipPath></defs></symbol><symbol id="clipbord-list" viewBox="0 0 32 32"><path d="M7.077 27.333a2.322 2.322 0 0 1-1.704-.706 2.322 2.322 0 0 1-.706-1.704V7.077c0-.665.235-1.233.706-1.704a2.322 2.322 0 0 1 1.704-.706h5.934c.083-.74.406-1.37.969-1.889A2.879 2.879 0 0 1 16 2c.793 0 1.471.26 2.034.778a2.9 2.9 0 0 1 .956 1.889h5.933c.665 0 1.233.235 1.704.706.471.471.707 1.039.707 1.704v17.846c0 .665-.236 1.233-.707 1.704a2.322 2.322 0 0 1-1.704.706H7.077zm0-2h17.846a.392.392 0 0 0 .282-.128.392.392 0 0 0 .129-.282V7.077a.392.392 0 0 0-.129-.282.392.392 0 0 0-.282-.128H7.077a.392.392 0 0 0-.282.128.392.392 0 0 0-.128.282v17.846c0 .103.043.197.128.282.086.086.18.128.282.128zm2.59-3.154h8.667v-2H9.667v2zm0-5.18h12.667V15H9.667v2zm0-5.178h12.667v-2H9.667v2zM16 5.794a.971.971 0 0 0 .717-.284.972.972 0 0 0 .283-.716.972.972 0 0 0-.283-.717.971.971 0 0 0-.717-.283.971.971 0 0 0-.716.283.971.971 0 0 0-.284.717.971.971 0 0 0 1 1z"/></symbol><symbol id="right-arrow" viewBox="0 0 20 20"><path d="M16.346 10L10 16.346l-.89-.878 4.842-4.843H3.654v-1.25h10.298L9.11 4.532l.89-.878L16.346 10z"/></symbol><symbol id="left-arrow" viewBox="0 0 20 20"><path d="M3.654 10L10 3.654l.89.878-4.842 4.843h10.298v1.25H6.048l4.843 4.843-.89.878L3.654 10z"/></symbol><symbol id="upload-cloud-thin" viewBox="0 0 20 20"><g clip-path="url(#clip0_1174_1158)"><path d="M7.516 10.098l-.473-.473 2.984-2.984 2.985 2.984-.473.473-2.18-2.18v8.722h-.668V7.917l-2.175 2.18zM16.37 5.98c0-.055.008-.106.008-.157A5.166 5.166 0 0 0 11.21.656a5.16 5.16 0 0 0-4.657 2.942 2.663 2.663 0 0 0-3.82 1.934 3.996 3.996 0 0 0 1.293 7.778h4.337v-.67H4.027A3.334 3.334 0 0 1 .7 9.31a3.34 3.34 0 0 1 2.254-3.153l.375-.128.066-.391a1.992 1.992 0 0 1 2.864-1.449l.609.304.293-.613a4.516 4.516 0 0 1 4.05-2.555c2.481 0 4.5 2.02 4.5 4.5 0 .012 0 .028-.003.043-.004.032-.004.067-.004.102l-.015.68.679.003a3.006 3.006 0 0 1 2.992 3 3.005 3.005 0 0 1-2.985 2.997h-4.68v.668h4.684a3.668 3.668 0 0 0-.008-7.336h.001z"/></g><defs><clipPath id="clip0_1174_1158"><path fill="#fff" d="M0 0h20v20H0z"/></clipPath></defs></symbol><symbol id="edit" viewBox="0 0 24 24"><path d="M4.5 19.5h1.1L16.675 8.425l-1.1-1.1L4.5 18.4v1.1zM19.85 7.35l-3.2-3.2L17.7 3.1a1.426 1.426 0 0 1 1.05-.425c.417 0 .767.141 1.05.425l1.1 1.1c.283.283.425.633.425 1.05 0 .416-.142.766-.425 1.05l-1.05 1.05zM18.8 8.4L6.2 21H3v-3.2L15.6 5.2l3.2 3.2zm-2.675-.525l-.55-.55 1.1 1.1-.55-.55z"/></symbol><symbol id="browser" viewBox="0 0 24 24"><path d="M5.308 20.5c-.505 0-.933-.175-1.283-.525a1.745 1.745 0 0 1-.525-1.283V5.308c0-.505.175-.933.525-1.283.35-.35.778-.525 1.283-.525h13.384c.505 0 .933.175 1.283.525.35.35.525.778.525 1.283v13.384c0 .505-.175.933-.525 1.283-.35.35-.778.525-1.283.525H5.308zm0-1.5h13.384a.294.294 0 0 0 .212-.096.294.294 0 0 0 .096-.212v-7H5v7c0 .077.032.148.096.212a.294.294 0 0 0 .212.096zM5 10.192h14V5.308a.294.294 0 0 0-.096-.212.294.294 0 0 0-.212-.096H5.308a.294.294 0 0 0-.212.096.294.294 0 0 0-.096.212v4.884zM12 8h6V6h-6v2z"/></symbol><symbol id="circle-check" viewBox="0 0 24 24"><path d="M10.525 16.55L17.6 9.475 16.45 8.35l-5.925 5.925-3-3L6.4 12.4l4.125 4.15zM12 22a9.676 9.676 0 0 1-3.875-.788 10.144 10.144 0 0 1-3.188-2.15 10.142 10.142 0 0 1-2.15-3.187A9.676 9.676 0 0 1 2 12a9.74 9.74 0 0 1 .788-3.9 9.994 9.994 0 0 1 2.15-3.175 10.25 10.25 0 0 1 3.187-2.137A9.676 9.676 0 0 1 12 2a9.74 9.74 0 0 1 3.9.788 10.098 10.098 0 0 1 3.175 2.137c.9.9 1.613 1.958 2.137 3.175A9.738 9.738 0 0 1 22 12a9.676 9.676 0 0 1-.788 3.875 10.25 10.25 0 0 1-2.137 3.188 9.994 9.994 0 0 1-3.175 2.15A9.738 9.738 0 0 1 12 22zm0-1.5c2.367 0 4.375-.83 6.025-2.488C19.675 16.354 20.5 14.35 20.5 12c0-2.367-.825-4.375-2.475-6.025C16.375 4.325 14.367 3.5 12 3.5c-2.35 0-4.354.825-6.013 2.475C4.33 7.625 3.5 9.633 3.5 12c0 2.35.83 4.354 2.487 6.012C7.646 19.671 9.65 20.5 12 20.5z"/></symbol><symbol id="circle-exclamation" viewBox="0 0 24 24"><path d="M12.002 21.534c5.518 0 9.998-4.48 9.998-9.998 0-5.518-4.48-9.997-9.998-9.997-5.517 0-9.997 4.48-9.997 9.997 0 5.518 4.48 9.998 9.997 9.998zm0-1.5c-4.69 0-8.497-3.808-8.497-8.498a8.5 8.5 0 0 1 8.497-8.497c4.69 0 8.498 3.807 8.498 8.497 0 4.69-3.808 8.498-8.498 8.498zm0-6.5a.75.75 0 0 1-.75-.75v-5.5a.75.75 0 0 1 1.5 0v5.5a.75.75 0 0 1-.75.75zm-.002 3a1 1 0 1 0 0-2 1 1 0 0 0 0 2z"/></symbol><symbol id="triangle-exclamation" viewBox="0 0 24 24"><path d="M2.095 19.886l9.248-16.5a.753.753 0 0 1 1.313 0l9.248 16.5a.75.75 0 0 1-.656 1.116H2.752a.75.75 0 0 1-.657-1.116zm1.935-.384h15.939l-7.97-14.219L4.03 19.502zm7.972-6.497a.75.75 0 0 0-.75.75v3.5a.75.75 0 0 0 1.5 0v-3.5a.75.75 0 0 0-.75-.75zm-.002-3a1 1 0 1 1 0 2 1 1 0 0 1 0-2z"/></symbol><symbol id="product-2" viewBox="0 0 40 40"><path d="M34.956 11.095a.736.736 0 0 0-.35-.499L24.445 5.074a.732.732 0 0 0-.838.143l-3.632 3.99-3.632-3.99a.732.732 0 0 0-.838-.143L5.377 10.596a.736.736 0 0 0-.35.499c-.035.214.035.427.14.606l3.422 4.06-3.422 4.062c-.14.178-.21.392-.14.606a.736.736 0 0 0 .35.499l3.457 1.924v5.557a.8.8 0 0 0 .35.642l10.476 5.842c.035.036.07.036.105.036.035 0 .035 0 .07.035.07 0 .104.036.174.036.07 0 .105 0 .175-.036.035 0 .035 0 .07-.035.034 0 .07-.036.104-.036l10.477-5.843a.752.752 0 0 0 .35-.64v-5.558l3.457-1.924a.736.736 0 0 0 .349-.499c.035-.214-.035-.428-.14-.606l-3.422-4.061L34.85 11.7c.07-.179.14-.392.105-.606zm-28.182.32l8.905-4.845 3.143 3.456-9.15 4.845-2.898-3.455zm2.898 10.297l-2.898-1.64 2.898-3.42 9.115 5.095-3.353 3.17-5.448-3.063a1.212 1.212 0 0 0-.314-.142zm9.604 11.293l-9.08-5.059v-4.31l4.994 2.778c.105.071.21.071.35.071.174 0 .348-.07.488-.178l3.283-3.1v9.798h-.035zm10.477-5.059l-9.08 5.059v-9.797l3.282 3.1c.14.142.315.177.49.177.104 0 .244-.035.349-.07l4.959-2.78v4.311zm3.422-7.873l-8.66 4.845-3.353-3.17 9.114-5.095 2.899 3.42zm-2.899-5.202l-9.15-4.81 3.144-3.455 8.905 4.81-2.899 3.455z"/></symbol><symbol id="seo-content" viewBox="0 0 40 40"><path fill-rule="evenodd" d="M6.607 7.143h26.786A1.607 1.607 0 0 1 35 8.75v22.5a1.607 1.607 0 0 1-1.607 1.607H6.607A1.607 1.607 0 0 1 5 31.25V8.75a1.607 1.607 0 0 1 1.607-1.607zM32.62 9.376a.536.536 0 1 0-.595.89.536.536 0 0 0 .595-.89zm-2.143 0a.536.536 0 1 0-.595.89.536.536 0 0 0 .595-.89zm-2.143 0a.535.535 0 1 0-.595.89.535.535 0 0 0 .595-.89zm5.439 22.253c.1-.1.157-.237.157-.38V12.5H6.07v18.75a.536.536 0 0 0 .536.536h26.786a.536.536 0 0 0 .379-.157zM23.135 17.512a3.75 3.75 0 0 1 2.222-.727 3.75 3.75 0 1 1-1.178 7.308l-1.56 3.112a.536.536 0 0 1-.958-.482l1.553-3.107a3.75 3.75 0 0 1-.079-6.104zm.734 5.25a2.679 2.679 0 1 0 2.976-4.454 2.679 2.679 0 0 0-2.976 4.455zm-9.226-5.977h-3.214a.536.536 0 0 0-.536.536v3.214a.535.535 0 0 0 .536.536h2.678v2.143h-2.143v-.536a.536.536 0 0 0-1.071 0v1.072a.535.535 0 0 0 .536.535h3.214a.536.536 0 0 0 .536-.535v-3.215a.536.536 0 0 0-.536-.535h-2.679v-2.143h2.143v.536a.536.536 0 0 0 1.072 0V17.32a.536.536 0 0 0-.536-.536zm5.736.915c-.1.1-.237.157-.379.157h-2.679V20h1.608a.536.536 0 0 1 0 1.071H17.32v2.143H20a.536.536 0 1 1 0 1.071h-3.214a.536.536 0 0 1-.536-.535v-6.43a.536.536 0 0 1 .536-.536H20a.536.536 0 0 1 .379.915z" clip-rule="evenodd"/></symbol><symbol id="layout" viewBox="0 0 24 24"><path d="M5.308 20.5c-.505 0-.933-.175-1.283-.525a1.745 1.745 0 0 1-.525-1.283V5.308c0-.505.175-.933.525-1.283.35-.35.778-.525 1.283-.525h13.384c.505 0 .933.175 1.283.525.35.35.525.778.525 1.283v13.384c0 .505-.175.933-.525 1.283-.35.35-.778.525-1.283.525H5.308zm0-1.5h5.942V5H5.308a.294.294 0 0 0-.212.096.294.294 0 0 0-.096.212v13.384c0 .077.032.148.096.212a.294.294 0 0 0 .212.096zm7.442 0h5.942a.294.294 0 0 0 .212-.096.294.294 0 0 0 .096-.212V12h-6.25v7zm0-8.5H19V5.308a.294.294 0 0 0-.096-.212.294.294 0 0 0-.212-.096H12.75v5.5z"/></symbol><symbol id="shapes" viewBox="0 0 24 24"><path d="M7.192 10.616L12 2.73l4.808 7.885H7.192zm10.308 11c-1.147 0-2.12-.4-2.918-1.198-.798-.798-1.197-1.77-1.197-2.918 0-1.147.399-2.12 1.197-2.918s1.77-1.197 2.918-1.197c1.148 0 2.12.399 2.918 1.197s1.198 1.77 1.198 2.918c0 1.148-.4 2.12-1.198 2.918-.798.799-1.77 1.198-2.918 1.198zm-14.115-.5v-7.231h7.23v7.23h-7.23zm14.115-1c.732 0 1.351-.253 1.857-.759.506-.505.759-1.124.759-1.857 0-.732-.253-1.35-.759-1.857-.505-.505-1.124-.758-1.857-.758-.732 0-1.35.252-1.857.758-.505.506-.758 1.125-.758 1.857s.252 1.351.758 1.857 1.125.759 1.857.759zm-12.615-.5h4.23v-4.231h-4.23v4.23zm4.954-10.5h4.323L12 5.639 9.84 9.116z"/></symbol><symbol id="product-variation" viewBox="0 0 40 40"><path d="M34.848 30.26v-8.208a.127.127 0 0 0-.013-.057.641.641 0 0 0-.306-.499l-6.79-3.915V9.743c0-.23-.122-.44-.32-.556l-7.103-4.1a.634.634 0 0 0-.639 0l-7.103 4.107c-.013.006-.006.012-.013.025a.629.629 0 0 0-.306.53v7.838l-6.79 3.916a.7.7 0 0 0-.282.345c-.032.07-.032.172-.032.217v8.195c0 .23.122.441.32.556l7.11 4.101a.592.592 0 0 0 .447.064h.019c.019-.007.038-.02.063-.026.032-.012.064-.019.09-.038l6.797-3.922 6.79 3.916c.095.057.21.083.319.083a.628.628 0 0 0 .32-.083l7.103-4.101a.638.638 0 0 0 .319-.55zm-8.38-12.68l-5.833 3.367v-6.733l5.832-3.366v6.733zM19.996 6.384l5.831 3.366-5.831 3.36-5.832-3.366 5.832-3.36zm-6.465 4.471l5.826 3.36v6.733l-5.832-3.366v-6.727h.006zm-1.277 22.402L6.423 29.89v-6.733l5.832 3.366v6.733zm.638-7.838L7.06 22.053l3.884-2.242 1.942-1.124 5.832 3.366-5.826 3.366zm.64 1.105l5.825-3.366v6.733l-5.832 3.366v-6.733h.006zm12.934 6.733l-5.832-3.366v-6.733l5.832 3.366v6.733zm.639-7.838l-5.832-3.366 5.832-3.366 5.826 3.366-5.826 3.366zm6.464 4.472l-5.825 3.366v-6.733l5.825-3.366v6.733z"/></symbol><symbol id="circle-dollar" viewBox="0 0 32 32"><path d="M15.056 25.077h1.82v-1.615a5.878 5.878 0 0 0 2.81-1.166c.838-.636 1.257-1.602 1.257-2.896 0-.933-.275-1.759-.825-2.477-.55-.718-1.626-1.366-3.226-1.943-1.402-.479-2.333-.894-2.792-1.244-.46-.35-.69-.84-.69-1.47 0-.628.235-1.14.706-1.533s1.121-.59 1.95-.59c.694 0 1.254.164 1.68.492.426.327.753.738.982 1.232l1.646-.662a4.35 4.35 0 0 0-1.363-1.822c-.63-.505-1.32-.786-2.068-.844V6.923h-1.82V8.54c-1.137.218-2.01.68-2.62 1.383-.609.703-.914 1.485-.914 2.345 0 1.002.304 1.808.91 2.418.607.61 1.596 1.161 2.967 1.654 1.417.52 2.385.986 2.904 1.398.519.413.778.967.778 1.663 0 .836-.301 1.443-.905 1.822-.603.379-1.284.568-2.043.568-.75 0-1.422-.226-2.014-.677-.593-.451-1.048-1.111-1.366-1.98l-1.687.688c.345.99.842 1.776 1.489 2.359.646.582 1.458.988 2.434 1.215v1.682zm.944 3.59c-1.75 0-3.396-.333-4.938-.999a12.81 12.81 0 0 1-4.021-2.709 12.81 12.81 0 0 1-2.71-4.022c-.665-1.54-.998-3.186-.998-4.937 0-1.75.333-3.396.999-4.937A12.809 12.809 0 0 1 7.04 7.041a12.809 12.809 0 0 1 4.021-2.709c1.542-.666 3.187-.998 4.938-.998 1.75 0 3.396.332 4.937.998a12.81 12.81 0 0 1 4.022 2.71 12.808 12.808 0 0 1 2.709 4.021c.665 1.541.998 3.187.998 4.937 0 1.75-.333 3.396-.998 4.937a12.81 12.81 0 0 1-2.71 4.022 12.811 12.811 0 0 1-4.021 2.709c-1.541.666-3.187.999-4.937.999zm0-2c2.977 0 5.5-1.034 7.566-3.1 2.067-2.067 3.1-4.59 3.1-7.567 0-2.978-1.033-5.5-3.1-7.567-2.066-2.066-4.589-3.1-7.566-3.1-2.978 0-5.5 1.034-7.567 3.1-2.067 2.067-3.1 4.59-3.1 7.567 0 2.978 1.033 5.5 3.1 7.567s4.589 3.1 7.567 3.1z"/></symbol><symbol id="chart-mixed-search" viewBox="0 0 32 32"><path d="M3.41 23.759l-1.628-1.182L8.04 12.564l4 4.667 5.307-8.616 3.185 4.78a7.238 7.238 0 0 0-2.082.459l-1.028-1.536-5.093 8.285-4.033-4.7-4.885 7.856zm25.357 6.433l-4.372-4.346a4.717 4.717 0 0 1-1.387.687 5.326 5.326 0 0 1-1.575.234c-1.487 0-2.747-.517-3.782-1.552-1.034-1.034-1.55-2.294-1.55-3.782 0-1.487.516-2.747 1.55-3.782 1.035-1.034 2.295-1.55 3.782-1.55 1.488 0 2.748.516 3.782 1.55 1.035 1.035 1.552 2.295 1.552 3.782 0 .552-.08 1.084-.24 1.594-.16.51-.395.982-.706 1.414l4.371 4.326-1.425 1.425zm-7.334-5.425c.934 0 1.723-.322 2.367-.967.645-.644.967-1.433.967-2.367 0-.933-.322-1.722-.967-2.366-.644-.645-1.433-.967-2.367-.967-.933 0-1.722.322-2.366.967-.645.644-.967 1.433-.967 2.366 0 .934.322 1.723.967 2.367.644.645 1.433.967 2.366.967zm2.71-10.898a7.395 7.395 0 0 0-.983-.311 6.009 6.009 0 0 0-1.044-.155L28.59 3.14l1.628 1.182-6.074 9.546z"/></symbol><symbol id="glob" viewBox="0 0 32 32"><path d="M16 29.333c-1.866 0-3.61-.35-5.233-1.05a13.465 13.465 0 0 1-4.233-2.85 13.185 13.185 0 0 1-2.834-4.25c-.689-1.633-1.033-3.383-1.033-5.25s.344-3.605 1.033-5.216A13.285 13.285 0 0 1 6.534 6.5c1.2-1.2 2.61-2.139 4.233-2.817 1.622-.678 3.367-1.016 5.233-1.016 1.867 0 3.611.338 5.234 1.016A13.013 13.013 0 0 1 25.467 6.5c1.2 1.2 2.144 2.605 2.833 4.216.69 1.612 1.034 3.35 1.034 5.217 0 1.867-.345 3.617-1.034 5.25-.689 1.634-1.633 3.05-2.833 4.25-1.2 1.2-2.611 2.15-4.233 2.85-1.623.7-3.367 1.05-5.234 1.05zm0-1.933c.778-.8 1.428-1.717 1.95-2.75.523-1.034.95-2.261 1.284-3.683H12.8c.311 1.333.728 2.533 1.25 3.6A11.357 11.357 0 0 0 16 27.4zm-2.833-.4a15.93 15.93 0 0 1-1.433-2.733c-.4-.978-.734-2.078-1-3.3h-5c.844 1.577 1.822 2.816 2.933 3.716 1.111.9 2.611 1.672 4.5 2.317zm5.7-.034a13.347 13.347 0 0 0 4.317-2.3 11.94 11.94 0 0 0 3.083-3.7H21.3a24.163 24.163 0 0 1-1.016 3.267 15.136 15.136 0 0 1-1.417 2.733zm-13.8-8h5.3c-.067-.6-.106-1.138-.117-1.616a60.99 60.99 0 0 1-.016-1.417c0-.555.01-1.05.033-1.483.022-.433.067-.917.133-1.45H5.067a9.72 9.72 0 0 0-.317 1.433 11.68 11.68 0 0 0-.083 1.5c0 .578.028 1.095.083 1.55.056.456.161.95.317 1.483zm7.367 0H19.6c.09-.688.145-1.25.167-1.683a26.411 26.411 0 0 0 0-2.633A23.467 23.467 0 0 0 19.6 13h-7.166a23.467 23.467 0 0 0-.167 1.65 26.411 26.411 0 0 0 0 2.633c.022.433.078.995.167 1.683zm9.166 0h5.334a9.396 9.396 0 0 0 .316-1.483c.056-.455.084-.972.084-1.55 0-.578-.028-1.078-.084-1.5A9.719 9.719 0 0 0 26.934 13h-5.3c.066.778.11 1.372.133 1.783.022.411.033.795.033 1.15 0 .49-.016.95-.05 1.384-.033.433-.083.983-.15 1.65zM21.267 11h5c-.733-1.534-1.739-2.811-3.017-3.833C21.973 6.144 20.5 5.421 18.834 5a14.533 14.533 0 0 1 1.416 2.667c.39.955.728 2.066 1.017 3.333zM12.8 11h6.467a13.006 13.006 0 0 0-1.233-3.417A13.637 13.637 0 0 0 16 4.666c-.71.6-1.31 1.39-1.8 2.367-.489.978-.955 2.3-1.4 3.967zm-7.066 0h5.033c.244-1.2.556-2.272.933-3.217.378-.944.856-1.86 1.434-2.75-1.667.422-3.123 1.133-4.367 2.133-1.244 1-2.256 2.278-3.033 3.834z"/></symbol><symbol id="track" viewBox="0 0 32 32"><path d="M7.792 26.077c-1.04 0-1.924-.364-2.65-1.092-.727-.728-1.09-1.612-1.09-2.652H1.794V8.41c0-.673.233-1.243.7-1.71a2.327 2.327 0 0 1 1.71-.7H22.36v5.077h3.538l4.308 5.77v5.486h-2.41c0 1.04-.364 1.924-1.093 2.652-.728.728-1.613 1.092-2.654 1.092-1.04 0-1.924-.364-2.65-1.092-.727-.728-1.09-1.612-1.09-2.652h-8.77c0 1.043-.364 1.928-1.092 2.654-.729.727-1.613 1.09-2.654 1.09zm.003-2c.489 0 .902-.169 1.238-.505.337-.337.505-.75.505-1.239 0-.489-.168-.901-.505-1.238a1.684 1.684 0 0 0-1.238-.505c-.489 0-.902.168-1.239.505-.336.337-.505.75-.505 1.238 0 .49.169.902.505 1.239.337.337.75.505 1.239.505zm-4-3.744h.964c.284-.494.694-.908 1.23-1.242a3.344 3.344 0 0 1 1.806-.501c.651 0 1.249.165 1.793.495.545.33.959.746 1.243 1.248h9.528V8H4.205a.392.392 0 0 0-.282.128.392.392 0 0 0-.128.282v11.923zm20.256 3.744c.49 0 .902-.169 1.239-.505.337-.337.505-.75.505-1.239 0-.489-.169-.901-.505-1.238a1.684 1.684 0 0 0-1.239-.505c-.489 0-.901.168-1.238.505-.337.337-.505.75-.505 1.238 0 .49.168.902.505 1.239.337.337.75.505 1.238.505zm-1.692-6.41h5.974l-3.461-4.59h-2.513v4.59z"/></symbol><symbol id="shield-mixed-user" viewBox="0 0 32 32"><path d="M22.667 22.667c.555 0 1.027-.195 1.416-.584.39-.388.584-.86.584-1.416a1.93 1.93 0 0 0-.584-1.417 1.929 1.929 0 0 0-1.416-.583c-.556 0-1.028.194-1.417.583a1.929 1.929 0 0 0-.583 1.417c0 .555.194 1.027.583 1.416.389.39.861.584 1.417.584zm0 4c.697 0 1.332-.16 1.906-.477a4.062 4.062 0 0 0 1.407-1.277A6.401 6.401 0 0 0 22.667 24a6.4 6.4 0 0 0-3.313.913c.364.533.833.959 1.406 1.277a3.865 3.865 0 0 0 1.907.477zM16 28.64c-2.884-.786-5.271-2.484-7.163-5.092C6.946 20.94 6 18.024 6 14.8V7.128l10-3.743 10 3.743v7.554c-.311-.126-.638-.24-.98-.342A8.824 8.824 0 0 0 24 14.1V8.52l-8-2.987-8 2.988v6.28c0 1.18.167 2.334.5 3.46a13.693 13.693 0 0 0 1.378 3.156 12.542 12.542 0 0 0 2.099 2.636c.814.778 1.697 1.4 2.649 1.865l.038-.013c.176.49.404.957.685 1.405.28.448.599.855.956 1.22a1.432 1.432 0 0 0-.152.056c-.046.02-.097.038-.153.055zm6.667.026c-1.665 0-3.082-.584-4.25-1.752-1.167-1.167-1.75-2.583-1.75-4.248s.583-3.081 1.75-4.249c1.168-1.167 2.585-1.751 4.25-1.751s3.08.584 4.248 1.751c1.168 1.168 1.752 2.584 1.752 4.249 0 1.665-.584 3.08-1.752 4.248-1.167 1.168-2.583 1.752-4.248 1.752z"/></symbol><symbol id="store" viewBox="0 0 32 32"><path d="M27.687 14.63v10.626c0 .674-.233 1.244-.7 1.71-.467.467-1.037.7-1.71.7H6.764a2.327 2.327 0 0 1-1.71-.7 2.327 2.327 0 0 1-.7-1.71v-10.65c-.537-.442-.94-1.014-1.21-1.717-.269-.704-.274-1.463-.016-2.279l1.349-4.405c.177-.56.48-1.013.905-1.356.425-.344.934-.516 1.525-.516h18.2c.592 0 1.097.165 1.516.493.419.328.724.78.915 1.354l1.375 4.43c.258.816.252 1.573-.017 2.27a4.363 4.363 0 0 1-1.21 1.75zm-8.733-.963c.728 0 1.275-.223 1.642-.668.367-.445.517-.924.45-1.435l-.81-5.23H17.02V11.6c0 .56.19 1.045.57 1.454.379.409.834.613 1.364.613zm-6 0c.613 0 1.111-.204 1.493-.613.382-.409.573-.893.573-1.454V6.333h-3.215l-.81 5.283c-.072.473.077.933.446 1.38.369.447.873.67 1.513.67zm-5.934 0c.494 0 .92-.172 1.275-.517.355-.344.575-.777.659-1.299l.784-5.518h-2.83a.564.564 0 0 0-.347.097.574.574 0 0 0-.192.288l-1.282 4.338c-.176.573-.093 1.151.249 1.735.342.584.903.876 1.684.876zm18 0c.722 0 1.274-.284 1.657-.85.383-.567.475-1.154.277-1.76l-1.35-4.365a.503.503 0 0 0-.191-.275.629.629 0 0 0-.347-.084h-2.764l.785 5.518c.084.522.303.955.659 1.3.356.344.78.516 1.274.516zm-18.256 12h18.513a.4.4 0 0 0 .295-.116.4.4 0 0 0 .115-.294v-9.708a1.788 1.788 0 0 1-.364.099 2.477 2.477 0 0 1-.303.019c-.6 0-1.128-.109-1.583-.326-.456-.217-.897-.565-1.324-1.043a4.27 4.27 0 0 1-1.329.997c-.51.248-1.094.372-1.748.372a3.72 3.72 0 0 1-1.6-.353 5.027 5.027 0 0 1-1.416-1.017 4.336 4.336 0 0 1-1.4 1.017 3.823 3.823 0 0 1-1.584.353 4.381 4.381 0 0 1-1.693-.327 3.605 3.605 0 0 1-1.39-1.043c-.56.561-1.077.93-1.55 1.106a3.95 3.95 0 0 1-1.383.264c-.104 0-.212-.007-.323-.02a1.164 1.164 0 0 1-.343-.098v9.707a.4.4 0 0 0 .115.295.4.4 0 0 0 .295.116z"/></symbol><symbol id="user-images" viewBox="0 0 24 24"><path d="M13.999 11.23c.763 0 1.413-.267 1.948-.801a2.65 2.65 0 0 0 .803-1.947c0-.764-.267-1.413-.802-1.948a2.649 2.649 0 0 0-1.947-.803c-.763 0-1.413.267-1.948.802a2.649 2.649 0 0 0-.803 1.947c0 .763.267 1.413.802 1.948a2.65 2.65 0 0 0 1.947.803zm-5.71 4.616a7.553 7.553 0 0 1 2.584-1.908A7.54 7.54 0 0 1 14 13.27a7.54 7.54 0 0 1 3.127.67 7.554 7.554 0 0 1 2.585 1.907c.083 0 .152-.03.206-.091a.314.314 0 0 0 .082-.217V4.308a.3.3 0 0 0-.087-.221.3.3 0 0 0-.22-.087H8.307a.3.3 0 0 0-.221.087.3.3 0 0 0-.087.22v11.231c0 .084.027.156.082.217.054.06.123.091.206.091zm.019 1.654a1.74 1.74 0 0 1-1.277-.531 1.74 1.74 0 0 1-.531-1.277V4.308c0-.497.177-.923.531-1.277A1.74 1.74 0 0 1 8.308 2.5h11.384c.497 0 .923.177 1.277.531.354.354.531.78.531 1.277v11.384c0 .497-.177.923-.531 1.277a1.74 1.74 0 0 1-1.277.531H8.308zm-4 4a1.74 1.74 0 0 1-1.277-.531 1.74 1.74 0 0 1-.531-1.277V6.5H4v13.192a.3.3 0 0 0 .087.221.3.3 0 0 0 .22.087H17.5v1.5H4.308zM14 9.73c-.348 0-.643-.12-.886-.364a1.205 1.205 0 0 1-.364-.885c0-.348.121-.643.364-.886s.538-.364.886-.364c.347 0 .643.121.886.364s.364.538.364.886c0 .347-.121.642-.364.885a1.206 1.206 0 0 1-.886.365zM10.335 16h7.33a5.566 5.566 0 0 0-1.724-.923A6.21 6.21 0 0 0 14 14.769a6.21 6.21 0 0 0-1.941.308 5.566 5.566 0 0 0-1.724.923z"/></symbol><symbol id="users" viewBox="0 0 40 40"><path d="M19.85 14.02c0 .146-.006.288-.015.434l-.019.193c-.009.08.031.08.003-.016.01.031-.015.096-.018.127a5.394 5.394 0 0 1-.314 1.13c.003.022-.04.093-.05.112a5.722 5.722 0 0 1-.584.984c.054-.078-.058.071-.077.096a6.255 6.255 0 0 1-.27.304 6.272 6.272 0 0 1-.291.283c-.047.04-.09.08-.14.121l-.078.065c-.009.01-.021.016-.03.025-.053.04-.044.034.027-.022-.018.04-.13.096-.164.121l-.134.093a5.458 5.458 0 0 1-.714.398c-.025.012-.05.021-.074.034-.13.062.13-.05-.003.003l-.193.075c-.26.096-.53.17-.804.223-.062.012-.124.025-.186.034-.028.003-.078.022-.106.016.075.018.11-.013.038-.007a6.642 6.642 0 0 1-.429.035 5.782 5.782 0 0 1-.866-.035c-.118-.012.031.01.037.007-.027.009-.096-.016-.127-.019a5.964 5.964 0 0 1-.968-.255c-.065-.024-.127-.05-.193-.074-.074-.028-.015.022.034.015-.027.004-.083-.037-.111-.05a5.523 5.523 0 0 1-.714-.396l-.152-.103c-.038-.025-.13-.068-.15-.108l.063.046a18.996 18.996 0 0 1-.047-.037l-.077-.065a5.623 5.623 0 0 1-.717-.717l-.066-.078c-.003-.006-.009-.01-.012-.016l.022.028c-.04-.018-.084-.111-.109-.149a4.449 4.449 0 0 1-.233-.36 6.525 6.525 0 0 1-.267-.509c-.012-.025-.021-.05-.034-.074-.056-.121.044.111-.003-.003a5.218 5.218 0 0 1-.329-1.164c-.006-.028-.028-.1-.019-.128-.003.01.019.155.007.037a5.156 5.156 0 0 1 .003-1.297c.006-.071-.025-.037-.007.037-.006-.028.013-.077.016-.105a6.65 6.65 0 0 1 .087-.435c.062-.258.149-.506.245-.751.053-.137-.059.127.003-.003.013-.025.022-.05.034-.075a4.953 4.953 0 0 1 .289-.543c.062-.105.13-.208.202-.307.025-.034.077-.146.12-.165-.049.022-.07.087-.02.028.03-.037.058-.074.09-.111a5.59 5.59 0 0 1 .704-.702c.025-.019.174-.13.096-.078-.078.053.071-.052.1-.071a5.568 5.568 0 0 1 .881-.512c.022-.01.09-.056.112-.05-.006 0-.143.056-.034.016l.192-.075c.13-.046.264-.09.397-.127.121-.034.245-.062.367-.09a2.16 2.16 0 0 1 .208-.037c.034-.007.071-.01.105-.016.06-.01-.143.016.003 0a5.473 5.473 0 0 1 1.254 0c.044.006.143.031-.015-.003a3.188 3.188 0 0 1 .332.059 5.631 5.631 0 0 1 .94.286c.032.015.063.027.094.043a5.26 5.26 0 0 1 .698.388l.152.103c.028.018.056.04.084.058.015.013.034.025.05.038.052.04.043.03-.028-.022.096.034.204.168.279.236a5.135 5.135 0 0 1 .562.587c.03.037.087.08.102.127-.015-.022-.03-.04-.046-.062.015.022.034.043.05.065l.07.1a5.84 5.84 0 0 1 .491.85c.016.03.028.062.044.093.04.08-.056-.146-.006-.016a5.584 5.584 0 0 1 .35 1.289c-.03-.15-.01-.078-.006-.038.006.072.016.143.022.215-.013.127-.01.273-.01.419 0 .325.286.636.621.62.335-.015.621-.273.621-.62-.006-1.242-.382-2.493-1.111-3.505a6.257 6.257 0 0 0-2.93-2.235c-2.356-.866-5.147-.105-6.736 1.835a6.206 6.206 0 0 0-1.4 3.47 6.083 6.083 0 0 0 3.51 5.963 6.244 6.244 0 0 0 3.8.444c2.418-.478 4.405-2.527 4.777-4.967a7.17 7.17 0 0 0 .087-1.002c0-.326-.286-.637-.62-.621a.63.63 0 0 0-.619.618zm10.999 1.722c0 .102-.003.201-.013.304-.003.05-.009.1-.012.149-.016.155.019-.103-.006.046a3.88 3.88 0 0 1-.242.863c-.04.103.052-.108-.01.022-.024.05-.046.1-.071.15-.09.176-.19.344-.304.505-.022.031-.062.112-.096.13-.004.003.083-.096.034-.046l-.038.046c-.068.084-.14.165-.217.243a3.051 3.051 0 0 1-.205.195c-.03.028-.062.053-.093.08l-.062.054c-.087.074.078-.053.012-.01a4.614 4.614 0 0 1-.748.45c-.018.01-.037.016-.055.025-.075.04.111-.043.034-.015-.053.018-.103.04-.155.059a3.888 3.888 0 0 1-.727.186c-.146.025.09-.006-.025.003a3.678 3.678 0 0 1-.323.025 4.697 4.697 0 0 1-.627-.025c-.114-.012.122.019-.024-.003-.05-.01-.097-.016-.146-.025a4.891 4.891 0 0 1-.305-.074 2.901 2.901 0 0 1-.276-.09c-.046-.016-.09-.035-.133-.053-.084-.031.015.021.034.015a.266.266 0 0 1-.075-.034c-.18-.084-.35-.18-.518-.285-.08-.053-.155-.11-.233-.165-.068-.046.09.078.031.022a15.185 15.185 0 0 1-.046-.038c-.04-.034-.084-.068-.125-.105a4.01 4.01 0 0 1-.406-.422c-.019-.022-.034-.044-.053-.062-.047-.053.037.046.034.046-.03-.018-.062-.084-.084-.114a4.465 4.465 0 0 1-.307-.503 4.84 4.84 0 0 1-.062-.128l-.034-.074c-.037-.072.056.146.006.015a4.232 4.232 0 0 1-.236-.84s-.018-.078-.012-.085c-.003.003.018.162.006.038a3.828 3.828 0 0 1-.012-.798c.003-.05.009-.1.015-.15.012-.114-.022.134.003-.024.016-.102.037-.208.062-.31.047-.196.115-.382.186-.572.025-.065-.021.056-.021.053-.003-.006.028-.062.034-.074a4.5 4.5 0 0 1 .366-.636l.084-.115c.04-.056-.034.046-.034.046a.361.361 0 0 1 .065-.078 4.01 4.01 0 0 1 .53-.53c.041-.066.184-.134.25-.177.164-.109.338-.205.518-.286.012-.006.068-.037.074-.034.003 0-.118.047-.053.022a3.274 3.274 0 0 1 .428-.149c.094-.028.19-.05.286-.069l.146-.027c.028-.004.06-.007.084-.013-.031.01-.124.016-.037.006.214-.021.431-.03.648-.024.094.003.187.012.28.021.161.019-.09-.015.025.003.056.01.111.019.167.031a3.702 3.702 0 0 1 .717.214c.112.044-.03-.015-.034-.015a4.558 4.558 0 0 1 .348.174c.084.046.164.096.245.146.065.043.208.108.248.177.004.003-.099-.081-.046-.034.018.018.043.034.062.052.037.031.071.062.109.093.074.069.149.137.217.211.065.069.127.14.19.212l.037.046c.043.05.043.012-.022-.03.037.024.071.095.096.13.112.16.214.329.304.505.022.044.044.087.062.13.01.02.016.038.025.057.037.074-.043-.115-.015-.034.034.096.074.192.105.291.062.193.109.391.143.59.025.146-.006-.09.003.025l.015.149c.007.102.01.211.01.32.003.326.285.636.62.62.336-.015.625-.273.621-.62a4.762 4.762 0 0 0-3.135-4.436c-1.803-.661-3.957-.078-5.174 1.406a4.824 4.824 0 0 0-1.093 2.682c-.08.956.162 1.95.655 2.769.478.791 1.201 1.462 2.049 1.844a4.834 4.834 0 0 0 2.961.341c1.85-.37 3.38-1.952 3.666-3.821.04-.26.068-.521.068-.785.003-.326-.285-.637-.62-.621a.632.632 0 0 0-.618.62zM23.743 27.93v2.039c0 .096-.003.189-.003.285 0 .143.037-.133 0 .003a3.39 3.39 0 0 1-.019.081c-.003.01-.03.118-.037.118 0 0 .068-.127.003-.019-.018.028-.03.06-.05.09-.006.013-.015.022-.021.035-.037.055-.031.046.025-.028.009.028-.15.155-.168.174-.1.093.115-.066-.003 0a.505.505 0 0 0-.068.043.519.519 0 0 1-.109.056l.071-.031c-.024.01-.052.018-.077.028a.778.778 0 0 1-.08.021l-.041.01c-.069.012-.056.009.04-.003-.003.009-.118.006-.13.006h-.047c-.878.003-1.757 0-2.635 0H6.872c-.015 0-.028 0-.043-.003a.445.445 0 0 0 .037.006c-.003.006-.09-.019-.102-.022-.035-.01-.066-.021-.1-.028-.133-.034.118.069-.003 0a1.297 1.297 0 0 1-.09-.05c-.018-.009-.034-.021-.053-.03-.055-.038-.046-.031.028.024-.024.007-.127-.114-.146-.136-.009-.01-.018-.019-.027-.031a.425.425 0 0 0 .021.03.53.53 0 0 1-.065-.102 1.469 1.469 0 0 0-.037-.071c-.068-.121.034.13 0-.003-.01-.04-.025-.078-.034-.121l-.01-.04c-.012-.069-.009-.056.003.04-.018-.006-.006-.283-.006-.31v-2.059a5.485 5.485 0 0 1 .034-.648l.01-.084a.885.885 0 0 0-.007.037c.004-.028.01-.056.013-.084a6.48 6.48 0 0 1 .35-1.313c.013-.03.026-.065.038-.096.053-.137-.06.127.003-.003l.102-.224a6.262 6.262 0 0 1 .569-.946c.015-.025.046-.084.07-.1-.015.022-.03.04-.046.062l.05-.065a6.423 6.423 0 0 1 .944-.95c.028-.021.062-.062.096-.074-.134.062-.04.03.003 0 .056-.04.109-.08.165-.118.127-.09.26-.174.397-.252.124-.07.251-.14.379-.204.062-.032.124-.06.186-.087.028-.013.084-.05.112-.05a.636.636 0 0 0-.035.015c.025-.009.05-.021.078-.03a6.195 6.195 0 0 1 1.291-.351c.04-.007.087-.022.128-.019-.165-.006-.044.006.003 0a7.685 7.685 0 0 1 .72-.037h6.211c.143 0 .286.006.432.015.087.007.177.013.264.025.024.003.198.028.043.003.053.01.102.016.155.025a6.03 6.03 0 0 1 1.118.301l.118.047a5.372 5.372 0 0 1 .27.121 6.15 6.15 0 0 1 1.071.658 6.856 6.856 0 0 1 .233.196c.254.223.49.468.704.732l.071.09c.06.075-.087-.121 0 .003l.15.208a6.15 6.15 0 0 1 .505.888c.016.034.031.071.05.105.068.146-.046-.124.01.025a6.423 6.423 0 0 1 .357 1.23c.009.046.015.096.024.142l.006.028c.016.078.019.162.025.242.022.171.028.351.028.534 0 .326.286.637.62.621.336-.015.622-.273.622-.62a6.965 6.965 0 0 0-1.527-4.312 6.808 6.808 0 0 0-3.915-2.406c-.73-.149-1.453-.149-2.191-.149h-4.936c-.739 0-1.471.022-2.194.199-2.602.633-4.694 2.862-5.116 5.513-.137.866-.1 1.747-.1 2.62 0 .297-.018.602.007.9.071.816.655 1.564 1.48 1.732.311.062.624.046.941.046h15.62c.525-.003 1.052-.21 1.41-.602.3-.332.471-.733.508-1.176.01-.106.007-.212.007-.32v-2.048c0-.327-.286-.637-.621-.622a.632.632 0 0 0-.615.624z"/><path d="M33.754 26.296v1.927c0 .056-.003.109 0 .165v.053c-.01-.01.034-.118.01-.062a.41.41 0 0 0-.016.059c-.022.117.003-.044.019-.035 0 0-.025.05-.028.053-.063.121.009-.018.015-.012a.713.713 0 0 1-.084.084c-.025-.025.118-.069.028-.028a.434.434 0 0 0-.053.028c-.055.04.053-.035.056-.022 0 .003-.068.018-.077.022-.109.034.12.003-.003-.003h-7.475c-.584 0-1.173-.022-1.76 0h-.028l.62.62c0-.617.032-1.244-.03-1.86-.124-1.207-.537-2.377-1.257-3.36a7.478 7.478 0 0 0-1.481-1.506c.04.326.084.648.124.974.037-.03.075-.065.112-.096.018-.015.149-.115.028-.025a4.744 4.744 0 0 1 .708-.437c.043-.022.09-.04.133-.062.149-.072-.121.043.034-.016.078-.028.155-.059.233-.084a4.25 4.25 0 0 1 .584-.152c.046-.01.102-.025.152-.025-.156.003.009 0 .037-.003.087-.01.17-.015.258-.018.074-.004.149-.007.226-.007h5.125c.087 0 .174.003.26.01.069.006.2-.01.258.024l-.08-.009c.028.003.055.01.083.013l.125.021a2.5 2.5 0 0 1 .204.047c.162.04.323.087.479.146l.114.043c.13.05-.096-.046-.015-.006.068.034.137.062.205.096a4.448 4.448 0 0 1 .627.385l.034.025c.053.04.043.031-.028-.022.037.006.096.078.127.103.13.108.252.226.367.35.059.066.118.13.173.2.016.02.072.067.078.095-.05-.068-.062-.08-.034-.046.012.015.025.03.037.05a4.2 4.2 0 0 1 .286.447 6.072 6.072 0 0 1 .167.329c.013.024.022.05.034.074a4.943 4.943 0 0 1 .155.478c.022.08.041.164.06.245.009.04.015.084.024.124.007.044.02.233.01.047.015.186.04.37.04.559.003.326.286.636.62.62.336-.015.625-.273.622-.62-.007-1.453-.64-2.884-1.751-3.828a5.186 5.186 0 0 0-3.38-1.235h-4.672c-.385 0-.76.01-1.142.065-.966.14-1.853.584-2.586 1.22-.146.127-.196.338-.17.521.027.208.136.33.294.454-.121-.093.025.021.056.046l.158.134a5.717 5.717 0 0 1 .571.571l.122.14c.018.024.04.046.059.071.012.016.09.121.037.047-.06-.081.03.043.034.05.018.024.037.049.053.074.037.05.071.102.105.152a6.08 6.08 0 0 1 .398.683c.027.056.055.112.08.167l.037.084c.06.127-.037-.096.01.025.1.248.186.503.254.76.034.13.066.264.09.398l.038.214c.003.025.018.078.015.096l-.01-.068.01.071c.04.345.04.693.04 1.037v.894c0 .335.286.62.621.62h8.956c.282 0 .555.007.825-.108.516-.217.835-.707.85-1.266.004-.152 0-.308 0-.463v-1.636c0-.326-.285-.636-.62-.62-.338.024-.624.282-.624.63z"/></symbol><symbol id="arrow-rotate-left" viewBox="0 0 20 20"><path d="M11.459 17.083c1.967 0 3.64-.688 5.017-2.065 1.377-1.378 2.066-3.05 2.066-5.017 0-.984-.186-1.905-.558-2.764a7.172 7.172 0 0 0-1.516-2.247 7.174 7.174 0 0 0-2.246-1.516 6.877 6.877 0 0 0-2.763-.558 6.88 6.88 0 0 0-2.763.558A7.172 7.172 0 0 0 6.449 4.99a7.174 7.174 0 0 0-1.516 2.247A6.88 6.88 0 0 0 4.375 10v.671l-1.4-1.421-.891.87L5 13.037l2.917-2.917-.891-.87-1.4 1.4V10c0-1.611.569-2.986 1.708-4.125 1.139-1.14 2.514-1.709 4.125-1.709 1.61 0 2.986.57 4.125 1.709 1.139 1.139 1.708 2.514 1.708 4.125-.009 1.616-.579 2.993-1.71 4.129-1.133 1.136-2.507 1.704-4.123 1.704a5.537 5.537 0 0 1-2.193-.432 6.219 6.219 0 0 1-1.822-1.186l-.899.89a7.338 7.338 0 0 0 2.24 1.453c.84.35 1.731.525 2.674.525z"/></symbol><symbol id="arrow-up-right-from-square" viewBox="0 0 16 16"><path d="M3.538 13.667c-.337 0-.622-.117-.855-.35a1.163 1.163 0 0 1-.35-.855V3.539c0-.337.117-.622.35-.856.233-.233.518-.35.855-.35h4.205v1H3.538a.196.196 0 0 0-.14.065.196.196 0 0 0-.065.14v8.924c0 .051.021.098.064.14.043.043.09.065.141.065h8.923a.196.196 0 0 0 .141-.064.196.196 0 0 0 .064-.141V8.257h1v4.205c0 .336-.116.622-.35.855-.233.233-.518.35-.855.35H3.538zm2.941-3.444l-.702-.702 6.187-6.188H9.333v-1h4.333v4.334h-1V4.036L6.48 10.223z"/></symbol><symbol id="arrow-up-right" viewBox="0 0 16 16"><path d="M11.772 11.771l-1.002-.012V5.938l-6.187 6.187-.707-.707 6.187-6.187H4.24l-.012-1.002h7.543v7.542z"/></symbol><symbol id="house" viewBox="0 0 20 20"><path d="M4.583 16.25h3.125v-5.208h4.583v5.208h3.125V8.125L10 4.062 4.583 8.125v8.125zm-1.25 1.25v-10L10 2.5l6.666 5v10h-5.625v-5.208H8.958V17.5H3.333z"/></symbol><symbol id="file-lines" viewBox="0 0 20 20"><path d="M4.423 15.833h11.154a.25.25 0 0 0 .184-.072.25.25 0 0 0 .073-.184V8.099L11.9 4.166H4.423a.25.25 0 0 0-.184.073.25.25 0 0 0-.072.184v11.154a.25.25 0 0 0 .072.184.25.25 0 0 0 .184.072zm0 1.25a1.45 1.45 0 0 1-1.064-.441 1.451 1.451 0 0 1-.442-1.065V4.423c0-.416.147-.77.442-1.065a1.451 1.451 0 0 1 1.064-.442h7.99l4.67 4.672v7.989c0 .415-.147.77-.44 1.065a1.45 1.45 0 0 1-1.066.441H4.423zm1.619-3.333h7.917V12.5H6.042v1.25zm0-3.125h7.917v-1.25H6.042v1.25zm0-3.125h5.304V6.25H6.042V7.5z"/></symbol><symbol id="envelope" viewBox="0 0 24 24"><path fill-rule="evenodd" d="M21 18.75H3V5.25h18v13.5zM3.75 6.392V18h16.5V6.392l-8.25 7.5-8.25-7.5zM19.567 6H4.435L12 12.878 19.567 6z" clip-rule="evenodd"/></symbol><symbol id="bars" viewBox="0 0 40 40"><path d="M4.915 30v-2.662h30.17V30H4.916zm0-8.669v-2.662h30.17v2.662H4.916zm0-8.669V10h30.17v2.662H4.916z"/></symbol><symbol id="track-thin" viewBox="0 0 40 40"><path d="M9.273 31.853c-1.196 0-2.216-.423-3.057-1.268-.842-.845-1.263-1.871-1.263-3.078H2.82V10.769c0-.682.236-1.259.706-1.73.47-.47 1.048-.705 1.73-.705h22.302v6.113H31.2l5.978 8.019v5.04h-2.57c0 1.208-.423 2.234-1.27 3.08-.845.844-1.872 1.267-3.08 1.267-1.203 0-2.224-.423-3.063-1.268s-1.258-1.871-1.258-3.078H13.624c0 1.213-.426 2.241-1.278 3.083-.852.842-1.876 1.263-3.073 1.263zm.015-1.41c.816 0 1.507-.284 2.075-.852.567-.567.85-1.258.85-2.074 0-.815-.283-1.507-.85-2.074a2.827 2.827 0 0 0-2.075-.851c-.815 0-1.507.284-2.074.851s-.85 1.259-.85 2.074c0 .816.283 1.507.85 2.075.567.567 1.259.85 2.074.85zm-5.057-4.347h.948c.237-.802.74-1.489 1.508-2.062a4.222 4.222 0 0 1 2.588-.859c.915 0 1.767.282 2.556.846.788.565 1.301 1.256 1.539 2.075h12.777V9.744H5.257c-.257 0-.492.107-.706.32-.214.214-.32.449-.32.705v15.327zm26.042 4.346c.816 0 1.507-.283 2.075-.85.567-.568.85-1.26.85-2.075 0-.815-.283-1.507-.85-2.074a2.827 2.827 0 0 0-2.075-.851c-.815 0-1.507.284-2.074.851s-.85 1.259-.85 2.074c0 .816.283 1.507.85 2.075.567.567 1.259.85 2.074.85zm-2.715-7.76h8.062l-5.189-6.825h-2.873v6.825z"/></symbol><symbol id="message-lines" viewBox="0 0 40 40"><path d="M10.417 23.3h12.5v-2.5h-12.5v2.5zm0-5h19.167v-2.5H10.417v2.5zm0-5h19.167v-2.5H10.417v2.5zm-6.25 22.147V7.563c0-.842.292-1.555.875-2.138.583-.584 1.296-.875 2.138-.875h25.64c.843 0 1.555.291 2.139.875.583.583.875 1.296.875 2.138v18.974c0 .842-.292 1.554-.875 2.138-.584.583-1.296.875-2.138.875H10.064l-5.897 5.897zM9 27.05h23.82a.49.49 0 0 0 .353-.16.49.49 0 0 0 .16-.353V7.563a.49.49 0 0 0-.16-.353.49.49 0 0 0-.352-.16H7.18a.49.49 0 0 0-.353.16.49.49 0 0 0-.16.353v21.794L9 27.05z"/></symbol><symbol id="comment-arrow" viewBox="0 0 40 40"><path d="M25.838 36.403V28.37h.144c2.73-.137 5.054-1.152 6.973-3.047 1.919-1.894 2.878-4.201 2.878-6.922 0-2.792-.968-5.153-2.904-7.083-1.936-1.93-4.3-2.896-7.09-2.896h-2.263l3.056-3.082-1.755-1.756L18.79 9.67l6.087 6.087L26.633 14l-3.057-3.082h2.262c2.082 0 3.852.727 5.31 2.179 1.457 1.452 2.186 3.22 2.186 5.302 0 2.114-.774 3.892-2.322 5.334-1.549 1.441-3.396 2.162-5.542 2.162h-2.13v4.472l-4.457-4.472h-4.706c-2.082 0-3.855-.729-5.318-2.187-1.463-1.457-2.194-3.227-2.194-5.31 0-2.082.731-3.852 2.194-5.31 1.463-1.457 3.236-2.186 5.318-2.186h.673V8.405h-.673c-2.791 0-5.157.968-7.099 2.904-1.941 1.936-2.912 4.3-2.912 7.09 0 2.792.971 5.156 2.912 7.092 1.942 1.936 4.308 2.904 7.1 2.904h3.651l8.009 8.008z"/></symbol><symbol id="messages" viewBox="0 0 40 40"><path d="M11.86 29.226c-.419 0-.769-.142-1.051-.424a1.427 1.427 0 0 1-.424-1.05v-2.5H31.01l.528.528V10.7h2.5c.418 0 .768.141 1.05.424.283.282.425.633.425 1.05v22.949l-5.898-5.897H11.86zm-7.373-1.41V6.34c0-.418.142-.768.424-1.05a1.427 1.427 0 0 1 1.05-.424h20.77c.418 0 .768.141 1.05.424.283.282.424.632.424 1.05v14.103c0 .417-.141.768-.424 1.05a1.427 1.427 0 0 1-1.05.424H10.385l-5.898 5.897zm21.218-8.398V7.367H6.987v13.205l1.154-1.154h17.564z"/></symbol><symbol id="percent-plus" viewBox="0 0 24 24"><path fill-rule="evenodd" d="M3 7.165a4.155 4.155 0 0 0 4.171 4.166 4.138 4.138 0 0 0 4.172-4.157A4.16 4.16 0 0 0 7.18 3C4.863 3.008 3 4.864 3 7.165zm7.355.017a3.16 3.16 0 0 1-3.167 3.16 3.16 3.16 0 0 1-3.192-3.136c-.016-1.767 1.41-3.225 3.16-3.234 1.749-.008 3.199 1.451 3.199 3.21zm6.441 5.479c-2.308.016-4.13 1.84-4.13 4.141 0 2.334 1.822 4.198 4.13 4.198A4.194 4.194 0 0 0 21 16.85c.032-2.3-1.871-4.205-4.204-4.19zm.024 7.35a3.16 3.16 0 0 1-3.167-3.209 3.153 3.153 0 0 1 3.167-3.152c1.758 0 3.216 1.474 3.192 3.209a3.206 3.206 0 0 1-3.192 3.152zm-9.332-.406c-.575-.024-.762-.421-.519-.81.422-.673.859-1.337 1.296-2.002l3.84-5.867v-.001l3.84-5.866c.088-.138.177-.276.275-.414.178-.25.42-.34.688-.17.292.187.308.446.122.73-.3.458-.598.917-.896 1.377-.297.46-.595.92-.895 1.378a4929.767 4929.767 0 0 1-7.273 11.103c-.11.177-.262.327-.378.442-.038.037-.072.07-.1.1zm8.856-3.793l-.002.512c-.502 0-.931 0-1.36.008-.333 0-.608.122-.608.502 0 .381.267.495.607.495h1.353l.002.472c.002.282.004.54-.002.8-.008.349.049.665.462.68.445.009.526-.323.526-.688v-1.272h1.264c.34 0 .656-.04.664-.478.008-.454-.316-.519-.68-.519h-1.248c0-.184.002-.355.004-.52.004-.306.007-.586-.004-.866-.008-.308-.145-.559-.502-.55-.348 0-.486.226-.478.558.006.28.004.561.002.866z" clip-rule="evenodd"/></symbol><symbol id="arrows-up-down-left-right" viewBox="0 0 24 24"><path d="M12 21.654L8.095 17.75l1.069-1.07 2.085 2.085V14.25h1.5l-.016 4.5 2.085-2.085 1.084 1.085L12 21.654zm-5.75-5.75L2.346 12l3.888-3.888 1.07 1.069-2.07 2.069H9.75v1.5h-4.5l2.085 2.07-1.084 1.084zm11.5 0l-1.07-1.07 2.085-2.084H14.25v-1.5l4.5.015-2.085-2.084 1.085-1.085L21.652 12l-3.903 3.904zm-6.5-6.154V5.235L9.165 7.319 8.095 6.25 12 2.346l3.904 3.904-1.069 1.07-2.085-2.085V9.75h-1.5z"/></symbol><symbol id="chart-mixed-stars" viewBox="0 0 24 24"><path d="M3 19.75a1.69 1.69 0 0 1-1.24-.51c-.34-.34-.51-.754-.51-1.24s.17-.899.51-1.24A1.69 1.69 0 0 1 3 16.25c.113 0 .215.005.306.015.09.01.181.04.27.093l4.782-4.78a.676.676 0 0 1-.094-.272A2.931 2.931 0 0 1 8.25 11c0-.486.17-.899.51-1.24.341-.34.754-.51 1.24-.51s.899.17 1.24.51c.34.341.51.754.51 1.24 0 .06-.03.245-.088.558l2.78 2.78a.898.898 0 0 1 .262-.073 2.8 2.8 0 0 1 .597 0 .6.6 0 0 1 .257.093l3.8-3.8a.601.601 0 0 1-.093-.257 2.77 2.77 0 0 1-.015-.3c0-.487.17-.9.51-1.24.341-.34.754-.51 1.24-.51s.899.17 1.24.51c.34.34.51.753.51 1.24 0 .485-.17.898-.51 1.239a1.69 1.69 0 0 1-1.24.51 2.8 2.8 0 0 1-.301-.014.6.6 0 0 1-.257-.094l-3.8 3.8a.603.603 0 0 1 .094.257c.01.088.014.188.014.301 0 .486-.17.9-.51 1.24-.341.34-.754.51-1.24.51s-.899-.17-1.24-.51c-.34-.34-.51-.754-.51-1.24 0-.113.005-.215.014-.306a.675.675 0 0 1 .094-.27l-2.781-2.782a.674.674 0 0 1-.271.094c-.091.01-.193.014-.306.014-.059 0-.245-.03-.558-.088l-4.78 4.78c.04.09.064.177.074.262.01.085.014.183.014.296 0 .486-.17.9-.51 1.24a1.69 1.69 0 0 1-1.24.51zM4 9.58L3.5 8.5 2.42 8l1.08-.5.5-1.08.5 1.08 1.08.5-1.08.5L4 9.58zm11-1.186l-.758-1.636L12.606 6l1.636-.758L15 3.606l.758 1.636L17.394 6l-1.636.758L15 8.394z"/></symbol><symbol id="puzzle-piece" viewBox="0 0 24 24"><path d="M8.32 21H4.484a1.43 1.43 0 0 1-1.05-.434A1.43 1.43 0 0 1 3 19.516V15.68a2.918 2.918 0 0 0 1.745-.845c.486-.48.729-1.064.729-1.75 0-.687-.243-1.27-.73-1.751A2.918 2.918 0 0 0 3 10.489V6.653c0-.41.145-.76.434-1.05.29-.29.64-.434 1.05-.434h3.958a2.47 2.47 0 0 1 .827-1.556A2.405 2.405 0 0 1 10.915 3c.636 0 1.185.204 1.647.613.463.408.738.927.827 1.556h3.958c.41 0 .76.145 1.05.434.29.29.434.64.434 1.05v3.958a2.47 2.47 0 0 1 1.556.827c.409.462.613 1.011.613 1.647a2.4 2.4 0 0 1-.613 1.646 2.47 2.47 0 0 1-1.556.827v3.958c0 .41-.145.761-.434 1.05-.29.29-.64.434-1.05.434H13.51c-.089-.71-.379-1.3-.87-1.77a2.417 2.417 0 0 0-1.726-.704c-.66 0-1.234.235-1.725.704-.491.47-.781 1.06-.87 1.77zm-3.836-1.484h2.683c.339-.873.874-1.503 1.605-1.891.731-.389 1.446-.583 2.143-.583.698 0 1.413.194 2.144.583.731.388 1.266 1.018 1.605 1.89h2.683v-5.384h1.217c.304-.038.538-.16.704-.367.165-.207.248-.433.248-.68 0-.245-.083-.472-.248-.679-.166-.207-.4-.329-.704-.367h-1.217V6.653h-5.385V5.436c-.038-.304-.16-.538-.367-.704a1.064 1.064 0 0 0-.68-.248c-.246 0-.472.083-.679.248-.207.166-.329.4-.367.704v1.217H4.484v2.71a3.9 3.9 0 0 1 1.8 1.481c.45.677.674 1.424.674 2.24 0 .807-.225 1.55-.674 2.226a4.001 4.001 0 0 1-1.8 1.496v2.71z"/></symbol><symbol id="squares-circle" viewBox="0 0 24 24"><path d="M10.148 4.763H4.992a.94.94 0 0 0-.938.937v5.156a.94.94 0 0 0 .938.938h5.156a.94.94 0 0 0 .938-.938V5.7a.94.94 0 0 0-.938-.937zm0 6.093l-5.154.003s-.002 0-.002-.003V5.703s0-.003.002-.003h5.154s.003 0 .003.003l-.003 5.153zm6.317-6.093a3.526 3.526 0 0 0-3.516 3.515 3.526 3.526 0 0 0 3.516 3.516 3.526 3.526 0 0 0 3.515-3.516 3.526 3.526 0 0 0-3.515-3.515zm1.82 5.336a2.569 2.569 0 0 1-3.642 0 2.569 2.569 0 0 1 0-3.642 2.569 2.569 0 0 1 3.642 0 2.569 2.569 0 0 1 0 3.642zm-8.177 3.125H4.952a.94.94 0 0 0-.937.937v5.156a.94.94 0 0 0 .937.938h5.156a.94.94 0 0 0 .938-.938v-5.156a.94.94 0 0 0-.938-.937zm0 6.093l-5.154.003s-.002 0-.002-.003v-5.153s0-.003.002-.003h5.154s.003 0 .003.003l-.003 5.153zm8.935-6.093h-5.156a.94.94 0 0 0-.938.937v5.156a.94.94 0 0 0 .938.938h5.156a.94.94 0 0 0 .937-.938v-5.156a.94.94 0 0 0-.937-.937zm0 6.093l-5.154.003s-.002 0-.002-.003v-5.153s0-.003.002-.003h5.154s.002 0 .002.003l-.002 5.153z"/></symbol><symbol id="clipbord-arrow-left" viewBox="0 0 32 32"><path d="M16 21.878l1.322-1.33-2.302-2.337h5.565v-1.895H15.02l2.302-2.337L16 12.648l-4.585 4.615L16 21.878zM7.6 28c-.625 0-1.16-.223-1.603-.67a2.207 2.207 0 0 1-.665-1.613V8.81c0-.63.222-1.168.665-1.614.443-.447.978-.67 1.603-.67h5.585a2.8 2.8 0 0 1 .912-1.789A2.697 2.697 0 0 1 16 4c.746 0 1.384.246 1.913.737.53.492.83 1.088.9 1.79h5.585c.626 0 1.16.222 1.604.669.443.446.664.984.664 1.614v16.907c0 .63-.221 1.168-.665 1.614a2.177 2.177 0 0 1-1.603.669H7.6zm0-1.895h16.797c.096 0 .185-.04.265-.121a.375.375 0 0 0 .121-.267V8.81a.373.373 0 0 0-.12-.268.368.368 0 0 0-.266-.121H7.6a.368.368 0 0 0-.265.121.373.373 0 0 0-.12.268v16.907c0 .097.04.186.12.267a.37.37 0 0 0 .265.121zM16 7.595c.272 0 .496-.09.674-.268a.923.923 0 0 0 .267-.68.92.92 0 0 0-.267-.678A.911.911 0 0 0 16 5.7a.91.91 0 0 0-.675.269.923.923 0 0 0-.266.679.91.91 0 0 0 .941.947z"/></symbol><symbol id="calendar" viewBox="0 0 24 24"><path d="M5.308 21.5c-.505 0-.933-.175-1.283-.525a1.745 1.745 0 0 1-.525-1.283V6.308c0-.505.175-.933.525-1.283.35-.35.778-.525 1.283-.525h1.384V2.385h1.539V4.5h7.577V2.385h1.5V4.5h1.384c.505 0 .933.175 1.283.525.35.35.525.778.525 1.283v13.384c0 .505-.175.933-.525 1.283-.35.35-.778.525-1.283.525H5.308zm0-1.5h13.384a.294.294 0 0 0 .212-.096.294.294 0 0 0 .096-.212v-9.384H5v9.384c0 .077.032.148.096.212a.294.294 0 0 0 .212.096zM5 8.808h14v-2.5a.294.294 0 0 0-.096-.212.294.294 0 0 0-.212-.096H5.308a.294.294 0 0 0-.212.096.294.294 0 0 0-.096.212v2.5zm7 5.269a.853.853 0 0 1-.626-.259.853.853 0 0 1-.259-.626c0-.245.087-.453.259-.626a.853.853 0 0 1 .626-.258c.245 0 .454.086.626.258a.852.852 0 0 1 .259.626.853.853 0 0 1-.26.626.853.853 0 0 1-.625.259zm-4 0a.853.853 0 0 1-.626-.259.853.853 0 0 1-.259-.626c0-.245.087-.453.259-.626A.852.852 0 0 1 8 12.308c.245 0 .453.086.626.258a.853.853 0 0 1 .259.626.853.853 0 0 1-.26.626.853.853 0 0 1-.625.259zm8 0a.853.853 0 0 1-.626-.259.853.853 0 0 1-.259-.626c0-.245.087-.453.259-.626a.853.853 0 0 1 .626-.258c.245 0 .453.086.626.258a.852.852 0 0 1 .259.626.853.853 0 0 1-.26.626.853.853 0 0 1-.625.259zM12 18a.853.853 0 0 1-.626-.259.852.852 0 0 1-.259-.626c0-.244.087-.453.259-.626a.853.853 0 0 1 .626-.258c.245 0 .454.086.626.258a.853.853 0 0 1 .259.626.852.852 0 0 1-.26.626A.852.852 0 0 1 12 18zm-4 0a.852.852 0 0 1-.626-.259.852.852 0 0 1-.259-.626c0-.244.087-.453.259-.626A.853.853 0 0 1 8 16.231c.245 0 .453.086.626.258a.853.853 0 0 1 .259.626.852.852 0 0 1-.26.626A.852.852 0 0 1 8 18zm8 0a.853.853 0 0 1-.626-.259.852.852 0 0 1-.259-.626c0-.244.087-.453.259-.626a.853.853 0 0 1 .626-.258c.245 0 .453.086.626.258a.853.853 0 0 1 .259.626.852.852 0 0 1-.26.626A.852.852 0 0 1 16 18z"/></symbol><symbol id="cart-shopping" viewBox="0 0 32 32"><path d="M11.228 28a2.19 2.19 0 0 1-1.585-.635 2.069 2.069 0 0 1-.652-1.54c0-.604.217-1.118.652-1.54a2.189 2.189 0 0 1 1.585-.636c.621 0 1.15.212 1.584.635.435.423.653.937.653 1.54 0 .605-.218 1.118-.653 1.541a2.189 2.189 0 0 1-1.584.635zm12.39 0a2.19 2.19 0 0 1-1.584-.635 2.069 2.069 0 0 1-.653-1.54c0-.604.218-1.118.653-1.54a2.189 2.189 0 0 1 1.584-.636c.622 0 1.15.212 1.585.635.435.423.652.937.652 1.54 0 .605-.217 1.118-.652 1.541a2.189 2.189 0 0 1-1.585.635zM9.772 8.35l3.24 6.598h8.716c.074 0 .14-.018.196-.054a.475.475 0 0 0 .148-.149l3.43-6.06c.049-.087.053-.165.012-.233-.041-.068-.11-.101-.21-.101H9.773zm-.92-1.864h17.75c.524 0 .92.216 1.187.65.268.432.28.874.038 1.325l-4.096 7.214c-.21.358-.487.638-.832.838-.345.2-.723.3-1.134.3h-9.328l-1.48 2.63c-.065.095-.067.198-.006.31a.298.298 0 0 0 .277.167h14.627v1.865H11.228c-.852 0-1.493-.358-1.921-1.072-.43-.715-.444-1.428-.046-2.14l1.824-3.19-4.651-9.519H4V4h3.638l1.215 2.486z"/></symbol><symbol id="circles-connected" viewBox="0 0 24 24"><path d="M7.405 20.5a2.047 2.047 0 0 1-1.492-.606 1.987 1.987 0 0 1-.615-1.47c0-.578.205-1.069.614-1.473.41-.404.907-.607 1.492-.607.164 0 .325.02.483.06.159.041.308.095.448.163l1.519-1.864a2.797 2.797 0 0 1-.659-1.148 2.872 2.872 0 0 1-.073-1.277l-2.207-.721c-.192.305-.445.55-.76.733a2.035 2.035 0 0 1-1.049.277 2.047 2.047 0 0 1-1.492-.606A1.989 1.989 0 0 1 3 10.49c0-.577.205-1.068.614-1.472.41-.405.907-.607 1.491-.607.585 0 1.083.202 1.493.606a1.99 1.99 0 0 1 .611 1.584c-.002.03-.004.06-.004.09l2.2.754a3.08 3.08 0 0 1 .87-.992 2.856 2.856 0 0 1 1.268-.532V7.6a2.09 2.09 0 0 1-1.194-.737 2.001 2.001 0 0 1-.455-1.29c0-.574.204-1.063.614-1.467.41-.405.906-.607 1.491-.607.585 0 1.082.202 1.492.606.41.404.615.895.615 1.472 0 .48-.153.909-.46 1.286a2.114 2.114 0 0 1-1.19.738V9.92a2.83 2.83 0 0 1 1.266.532c.366.276.657.607.873.992l2.2-.754a.667.667 0 0 1-.008-.094v-.108c0-.577.205-1.068.614-1.472.41-.404.907-.606 1.492-.606s1.082.202 1.492.606c.41.404.615.894.615 1.47 0 .578-.205 1.069-.614 1.473-.41.404-.907.607-1.492.607-.385 0-.736-.092-1.055-.277a2.083 2.083 0 0 1-.754-.733l-2.207.72a2.819 2.819 0 0 1-.732 2.418l1.519 1.853c.14-.063.29-.113.448-.149.158-.036.319-.055.483-.055.585 0 1.082.202 1.492.606.41.404.614.894.614 1.471 0 .577-.205 1.068-.614 1.472-.41.405-.907.607-1.491.607a2.047 2.047 0 0 1-1.493-.606 1.99 1.99 0 0 1-.615-1.472c0-.238.04-.467.118-.688.078-.22.194-.422.35-.606l-1.52-1.88a2.79 2.79 0 0 1-1.44.385 2.828 2.828 0 0 1-1.446-.384l-1.507 1.879c.15.184.265.386.346.606a2 2 0 0 1 .12.688 1.99 1.99 0 0 1-.613 1.472c-.41.404-.907.606-1.492.606zm-2.299-9.067a.93.93 0 0 0 .679-.275.904.904 0 0 0 .279-.67.904.904 0 0 0-.28-.668.93.93 0 0 0-.678-.276.93.93 0 0 0-.678.276.904.904 0 0 0-.28.669c0 .262.094.486.28.669a.93.93 0 0 0 .678.275zm2.298 7.934a.93.93 0 0 0 .679-.276.904.904 0 0 0 .279-.669.904.904 0 0 0-.28-.669.93.93 0 0 0-.678-.275.93.93 0 0 0-.678.275.904.904 0 0 0-.28.67c0 .262.094.485.28.668a.93.93 0 0 0 .678.276zM12 6.522a.93.93 0 0 0 .678-.275.904.904 0 0 0 .28-.67.904.904 0 0 0-.28-.668.93.93 0 0 0-.678-.276.93.93 0 0 0-.678.276.904.904 0 0 0-.28.669c0 .262.094.485.28.669a.93.93 0 0 0 .678.275zm0 7.977c.492 0 .91-.17 1.253-.508a1.67 1.67 0 0 0 .515-1.235 1.67 1.67 0 0 0-.515-1.236A1.717 1.717 0 0 0 12 11.012c-.492 0-.91.17-1.253.508a1.67 1.67 0 0 0-.515 1.236c0 .485.172.897.515 1.235.343.339.761.508 1.253.508zm4.596 4.868a.93.93 0 0 0 .678-.276.904.904 0 0 0 .28-.669.904.904 0 0 0-.28-.669.93.93 0 0 0-.678-.275.93.93 0 0 0-.678.275.904.904 0 0 0-.28.67.9.9 0 0 0 .28.668.93.93 0 0 0 .678.276zm2.298-7.934a.93.93 0 0 0 .678-.275.904.904 0 0 0 .28-.67.904.904 0 0 0-.28-.668.93.93 0 0 0-.678-.276.93.93 0 0 0-.679.276.904.904 0 0 0-.279.669c0 .262.093.486.28.669a.93.93 0 0 0 .678.275z"/></symbol><symbol id="check" viewBox="0 0 18 18"><path d="M7.161 13.24l-4-4.001.801-.802 3.2 3.199 6.873-6.874.802.802-7.676 7.676z"/></symbol><symbol id="flag" viewBox="0 0 24 24"><path d="M4 21V3h9.253l.457 2.215H20v9.97h-6.967l-.457-2.216H5.714V21H4zm10.457-7.477h3.829V6.877h-6l-.457-2.215H5.714v6.646H14l.457 2.215z"/></symbol><symbol id="sync" viewBox="0 0 24 24"><path d="M17.782 3a3.213 3.213 0 0 0-2.847 4.699l-7.236 7.238a3.213 3.213 0 0 0-3.758 5.122 3.213 3.213 0 0 0 5.12-3.76l7.236-7.237a3.212 3.212 0 0 0 4.016-4.834A3.213 3.213 0 0 0 17.782 3zM6.215 19.07a1.285 1.285 0 1 1 0-2.57 1.285 1.285 0 0 1 0 2.57zM17.782 7.5a1.285 1.285 0 1 1 0-2.57 1.285 1.285 0 0 1 0 2.57zm.322 9.008a1.607 1.607 0 0 1-1.607 1.606h-4.82v1.929h4.82a3.534 3.534 0 0 0 3.535-3.535v-4.821h-1.928v4.82zM5.895 7.498A1.607 1.607 0 0 1 7.5 5.89h4.82V3.962H7.5a3.534 3.534 0 0 0-3.534 3.536v4.82h1.928v-4.82z"/></symbol><symbol id="angle-up" viewBox="0 0 24 24"><path d="M7.4 15.039l-1.054-1.054 5.653-5.654 5.654 5.654-1.053 1.054-4.6-4.6-4.6 4.6z"/></symbol><symbol id="angle-down" viewBox="0 0 24 24"><path d="M12 15.5L6 9.6l1.118-1.1L12 13.3l4.882-4.8L18 9.6l-6 5.9z"/></symbol><symbol id="user-xmark" viewBox="0 0 24 24"><path d="M16.536 12.537l-.898-.865 1.775-1.725-1.774-1.703.897-.878 1.787 1.724 1.767-1.724.91.878-1.78 1.703L21 11.672l-.91.865-1.767-1.704-1.787 1.704zm-7.151-.79a2.92 2.92 0 0 1-2.104-.844c-.584-.563-.876-1.24-.876-2.03 0-.79.292-1.466.876-2.029A2.922 2.922 0 0 1 9.385 6c.82 0 1.52.281 2.104.844.583.563.875 1.24.875 2.03 0 .79-.292 1.466-.875 2.03a2.923 2.923 0 0 1-2.104.843zM3 18v-1.825c0-.402.113-.775.34-1.117a2.24 2.24 0 0 1 .908-.79c.84-.399 1.69-.697 2.546-.896a11.408 11.408 0 0 1 5.181 0c.857.2 1.706.498 2.547.895.379.184.681.448.908.79.226.343.34.716.34 1.118V18H3zm1.277-1.232h10.215v-.593c0-.167-.05-.32-.15-.462a1.124 1.124 0 0 0-.406-.347 11.21 11.21 0 0 0-2.244-.792 10.042 10.042 0 0 0-4.615 0c-.762.18-1.51.444-2.244.792-.17.09-.306.205-.406.347a.785.785 0 0 0-.15.462v.593zm5.108-6.252c.468 0 .869-.161 1.202-.483.334-.321.5-.708.5-1.16 0-.45-.166-.837-.5-1.16a1.67 1.67 0 0 0-1.202-.481c-.469 0-.87.16-1.203.482-.333.322-.5.708-.5 1.16 0 .451.167.838.5 1.16a1.67 1.67 0 0 0 1.203.482z"/></symbol><symbol id="user-check" viewBox="0 0 24 24"><path d="M16.53 11.708l-2.693-2.623.901-.857 1.791 1.745 3.583-3.49.888.878-4.47 4.347zm-7.208.04a2.88 2.88 0 0 1-2.083-.845c-.578-.563-.867-1.24-.867-2.03 0-.79.289-1.466.867-2.029A2.879 2.879 0 0 1 9.322 6a2.88 2.88 0 0 1 2.084.844c.577.563.866 1.24.866 2.03 0 .79-.289 1.466-.866 2.03a2.88 2.88 0 0 1-2.084.843zM3 18v-1.825a2 2 0 0 1 .336-1.117c.225-.343.524-.607.9-.79a12.438 12.438 0 0 1 2.52-.896 11.19 11.19 0 0 1 5.131 0c.848.2 1.689.498 2.522.895.375.184.675.448.899.79a2 2 0 0 1 .336 1.118V18H3zm1.264-1.232H14.38v-.593a.79.79 0 0 0-.149-.462 1.116 1.116 0 0 0-.402-.347 11.028 11.028 0 0 0-2.222-.792 9.85 9.85 0 0 0-4.57 0c-.755.18-1.495.444-2.222.792-.17.09-.303.205-.402.347a.79.79 0 0 0-.149.462v.593zm5.058-6.252c.464 0 .86-.161 1.19-.483a1.56 1.56 0 0 0 .496-1.16 1.56 1.56 0 0 0-.495-1.16 1.645 1.645 0 0 0-1.19-.481c-.465 0-.861.16-1.192.482-.33.322-.495.708-.495 1.16 0 .451.165.838.495 1.16.33.321.727.482 1.191.482z"/></symbol><symbol id="paypal" viewBox="0 0 24 24"><path fill-rule="evenodd" d="M12.872 3l.78.076c.795.079 1.56.27 2.264.659.743.41 1.241 1.03 1.564 1.798a.383.383 0 0 0 .19.187c1.143.454 1.89 1.258 2.205 2.425.201.746.132 1.502-.015 2.248-.175.876-.45 1.715-.926 2.486-.66 1.063-1.594 1.784-2.777 2.202-.926.327-1.886.417-2.86.421-.421 0-.843.007-1.264-.004-.19-.003-.274.076-.304.256-.263 1.704-.534 3.405-.802 5.106l-.026.14H7.404c-.78 0-1.216-.508-1.096-1.268.052-.317.096-.638.147-.98-.084-.004-.147-.011-.212-.011H5.089c-.736.004-1.18-.472-1.073-1.189.186-1.275.395-2.547.593-3.823l.802-5.14c.227-1.417.458-2.833.674-4.249.059-.37.15-.717.436-.987.212-.198.476-.28.747-.353h5.604zM5.14 17.617c.044.01.066.021.092.021.769 0 1.538 0 2.307.004.121 0 .132-.068.147-.158l.659-4.216c.102-.66.623-1.102 1.3-1.113.311-.004.623-.004.934 0 .813.01 1.623-.014 2.414-.22.967-.248 1.798-.71 2.41-1.506.817-1.066 1.154-2.295 1.168-3.606.015-1.117-.619-1.957-1.68-2.35-.715-.262-1.459-.349-2.21-.353-1.728-.007-3.453-.003-5.182-.007-.176 0-.25.069-.275.238-.15.966-.308 1.931-.461 2.9l-1.462 9.3c-.055.353-.106.706-.16 1.066zm2.282 2.27c.088.003.14.007.194.007.707 0 1.417-.007 2.124.004.169.003.216-.055.238-.21.213-1.38.433-2.76.649-4.143.12-.778.725-1.16 1.362-1.153.447.004.89 0 1.337 0 .685 0 1.366-.05 2.03-.23.922-.253 1.72-.706 2.314-1.463.828-1.06 1.154-2.288 1.201-3.6a2.252 2.252 0 0 0-.575-1.628c-.16-.18-.355-.331-.564-.522-.018.09-.029.115-.033.144-.08.522-.132 1.048-.252 1.56-.227.984-.638 1.888-1.312 2.662-1.022 1.171-2.362 1.712-3.878 1.86-.81.079-1.634.057-2.45.075-.316.007-.33.011-.374.31-.213 1.344-.418 2.691-.63 4.035-.059.379-.125.753-.187 1.142-.304 0-.59-.003-.875.004-.052.004-.14.058-.147.1-.066.35-.113.689-.172 1.046z" clip-rule="evenodd"/></symbol><symbol id="circle-arrow-dollar" viewBox="0 0 24 24"><path fill-rule="evenodd" d="M6.48 6.371c.12.008.191.015.262.015h1.86c.244 0 .425.11.518.335.09.214.057.435-.124.582a.717.717 0 0 1-.402.165c-1.115.011-2.227.011-3.343.004-.346 0-.56-.24-.564-.616-.003-.631 0-1.266 0-1.897 0-.444-.003-.89 0-1.334.004-.376.23-.628.553-.624.326.004.548.26.548.631v1.849c.218-.18.398-.335.582-.485a8.688 8.688 0 0 1 4.648-1.938c1.98-.215 3.847.165 5.549 1.198 2.434 1.48 3.9 3.64 4.324 6.47.312 2.073-.072 4.038-1.15 5.83-1.476 2.446-3.64 3.915-6.477 4.34-2.073.31-4.038-.072-5.83-1.154-2.446-1.477-3.904-3.648-4.336-6.48-.064-.407-.079-.824-.097-1.233a.52.52 0 0 1 .394-.549c.233-.063.488.02.601.23a.86.86 0 0 1 .094.375c.03 1.69.526 3.224 1.533 4.584 1.194 1.608 2.772 2.64 4.73 3.058 3.55.759 7.175-1.007 8.746-4.276.988-2.058 1.085-4.185.251-6.315-.905-2.307-2.558-3.896-4.921-4.643-2.604-.827-5.042-.406-7.24 1.247-.195.146-.375.312-.56.47-.04.033-.078.082-.15.161z" clip-rule="evenodd"/><path fill-rule="evenodd" d="M11.465 13.697c.357 0 .714.003 1.071 0 .35-.004.597-.24.601-.564a.579.579 0 0 0-.575-.593c-.383-.015-.762 0-1.146-.008-.864-.015-1.551-.635-1.641-1.48a1.671 1.671 0 0 1 1.277-1.811c.019-.004.038-.011.053-.015.353-.068.353-.068.353-.436 0-.075-.004-.15.004-.225a.522.522 0 0 1 .522-.489.516.516 0 0 1 .545.485c.015.154.01.312.007.47-.004.12.045.165.165.161.3-.007.601-.004.902 0 .376.004.631.233.627.552-.003.327-.255.549-.63.549h-2.086c-.394 0-.653.222-.657.563-.008.35.248.59.65.598.35.007.702 0 1.052.003.924.012 1.623.68 1.668 1.593.045.872-.594 1.62-1.492 1.725-.161.019-.218.079-.203.236.012.132.008.264 0 .395a.521.521 0 0 1-.526.507.518.518 0 0 1-.544-.503c-.012-.15-.008-.3-.004-.451.004-.12-.049-.165-.17-.162-.3.008-.6.004-.9 0-.373-.003-.628-.232-.628-.552.004-.323.255-.545.63-.548h1.075z" clip-rule="evenodd"/></symbol><symbol id="chart-pie" viewBox="0 0 24 24"><path d="M12.002 21a8.768 8.768 0 0 1-3.51-.709 9.093 9.093 0 0 1-2.859-1.923 9.09 9.09 0 0 1-1.924-2.857A8.76 8.76 0 0 1 3 12c0-1.244.236-2.414.709-3.51a9.09 9.09 0 0 1 1.923-2.858A9.09 9.09 0 0 1 8.489 3.71 8.76 8.76 0 0 1 12 3c1.244 0 2.414.236 3.51.709a9.091 9.091 0 0 1 2.858 1.923 9.09 9.09 0 0 1 1.924 2.857A8.76 8.76 0 0 1 21 12a8.768 8.768 0 0 1-.709 3.51 9.093 9.093 0 0 1-1.923 2.858 9.09 9.09 0 0 1-2.857 1.924A8.759 8.759 0 0 1 12 21zM12 19.579a7.579 7.579 0 0 0 2.907-.573 7.458 7.458 0 0 0 2.46-1.637L12 12V4.421c-2.116 0-3.908.734-5.376 2.203C5.155 8.092 4.42 9.884 4.42 12c0 2.116.734 3.908 2.203 5.376C8.092 18.845 9.884 19.58 12 19.58z"/></symbol><symbol id="bell-ring" viewBox="0 0 20 20"><path d="M6.317 3.4L5.125 2.208A8.717 8.717 0 0 0 1.687 8.75h1.667A7.067 7.067 0 0 1 6.317 3.4zm10.329 5.35h1.666a8.717 8.717 0 0 0-3.437-6.542l-1.188 1.188a7.09 7.09 0 0 1 2.959 5.354zM15 9.167c0-2.563-1.363-4.7-3.75-5.267v-.567c0-.691-.558-1.25-1.25-1.25s-1.25.559-1.25 1.25V3.9C6.362 4.467 5 6.604 5 9.167v4.166L3.333 15v.833h13.334V15L15 13.333V9.167zm-5 9.166c.117 0 .23-.012.338-.033a1.683 1.683 0 0 0 1.2-.983c.083-.2.129-.417.129-.65H8.333c0 .92.746 1.666 1.667 1.666z"/></symbol><symbol id="arrow-rotate-right" viewBox="0 0 20 20"><path d="M9.167 17.083c-1.968 0-3.64-.688-5.018-2.065C2.772 13.64 2.083 11.968 2.083 10c0-.984.186-1.905.558-2.764A7.172 7.172 0 0 1 4.157 4.99a7.174 7.174 0 0 1 2.246-1.516 6.877 6.877 0 0 1 2.763-.557 6.88 6.88 0 0 1 2.764.557 7.172 7.172 0 0 1 2.246 1.516 7.173 7.173 0 0 1 1.516 2.247A6.88 6.88 0 0 1 16.25 10v.671l1.4-1.421.892.87-2.917 2.917-2.917-2.917.891-.87L15 10.65V10c0-1.611-.57-2.986-1.708-4.125-1.14-1.139-2.514-1.708-4.125-1.708-1.611 0-2.986.57-4.125 1.708C3.902 7.014 3.333 8.389 3.333 10c.009 1.617.58 2.993 1.711 4.129 1.132 1.136 2.506 1.704 4.123 1.704.786 0 1.517-.144 2.193-.432a6.216 6.216 0 0 0 1.821-1.186l.9.89a7.338 7.338 0 0 1-2.241 1.453 6.88 6.88 0 0 1-2.673.525z"/></symbol><symbol id="square-hand" viewBox="0 0 24 24"><path d="M14.12 20a2.487 2.487 0 0 1-1.763-.718l-4.29-4.205.635-.645c.177-.173.388-.286.632-.34.245-.055.492-.05.742.012l1.706.428V8.23c0-.19.065-.348.195-.475a.666.666 0 0 1 .486-.192c.193 0 .355.064.485.192a.64.64 0 0 1 .196.475v8.066l-2.583-.673 2.757 2.716c.114.112.237.194.37.247.131.053.275.08.431.08h3.477c.563 0 1.044-.196 1.444-.587.399-.39.598-.862.598-1.413v-3.188a.64.64 0 0 1 .196-.476.667.667 0 0 1 .485-.191c.193 0 .355.064.486.191.13.128.195.287.195.476v3.188c0 .92-.332 1.706-.997 2.357-.664.65-1.467.976-2.407.976H14.12zm.28-5.966V10.47c0-.19.066-.348.196-.475a.666.666 0 0 1 .486-.192.664.664 0 0 1 .68.667v3.564h-1.361zm2.62 0V11.53c0-.19.065-.348.195-.475a.666.666 0 0 1 .485-.192c.194 0 .355.064.486.192.13.127.195.286.195.475v2.504H17.02zm-12.379 3.3a1.6 1.6 0 0 1-1.164-.467A1.535 1.535 0 0 1 3 15.727V5.606c0-.45.159-.83.477-1.14A1.602 1.602 0 0 1 4.64 4H17.7c.458 0 .846.156 1.164.467.318.31.477.69.477 1.14v3.307H17.98V5.607a.259.259 0 0 0-.088-.188.269.269 0 0 0-.192-.086H4.641a.269.269 0 0 0-.192.086.259.259 0 0 0-.087.188v10.12c0 .068.029.13.087.187a.269.269 0 0 0 .192.086h1.634l1.348 1.333H4.641z"/></symbol><symbol id="square-solid-square" viewBox="0 0 24 24"><path d="M11.47 12.53h6.883V5.646h-6.882v6.882zM4.915 21c-.535 0-.988-.185-1.358-.556A1.848 1.848 0 0 1 3 19.086V4.914c0-.535.185-.988.556-1.358.37-.37.823-.556 1.358-.556h14.172c.535 0 .988.185 1.358.556.37.37.556.823.556 1.358v14.172c0 .535-.185.988-.556 1.358-.37.37-.823.556-1.358.556H4.914zm0-1.588h14.172a.312.312 0 0 0 .224-.102.312.312 0 0 0 .102-.224V4.914a.312.312 0 0 0-.102-.224.312.312 0 0 0-.224-.102H4.914a.311.311 0 0 0-.224.102.311.311 0 0 0-.102.224v14.172c0 .081.034.156.102.224a.312.312 0 0 0 .224.102z"/></symbol><symbol id="bag-shopping" viewBox="0 0 24 24"><path d="M5.308 21.5c-.499 0-.925-.172-1.278-.516a1.675 1.675 0 0 1-.53-1.245V8.646c0-.486.177-.901.53-1.245a1.765 1.765 0 0 1 1.278-.516H7.5c0-1.217.438-2.252 1.313-3.105C9.69 2.927 10.751 2.5 12 2.5c1.249 0 2.31.427 3.187 1.28.875.853 1.313 1.888 1.313 3.105h2.192c.499 0 .925.172 1.278.516.353.344.53.759.53 1.245v11.093c0 .486-.177.9-.53 1.245a1.765 1.765 0 0 1-1.278.516H5.308zm0-1.462h13.384a.297.297 0 0 0 .212-.093.284.284 0 0 0 .096-.206V8.646a.283.283 0 0 0-.096-.206.298.298 0 0 0-.212-.094H5.308a.298.298 0 0 0-.212.094.283.283 0 0 0-.096.206v11.093c0 .075.032.143.096.206a.298.298 0 0 0 .212.093zM12 13.705c1.249 0 2.31-.427 3.187-1.28.875-.853 1.313-1.888 1.313-3.105H15c0 .812-.292 1.503-.875 2.071-.583.568-1.292.853-2.125.853s-1.542-.285-2.125-.853A2.783 2.783 0 0 1 9 9.321H7.5c0 1.216.438 2.251 1.313 3.104.876.853 1.938 1.28 3.187 1.28zm-3-6.82h6a2.78 2.78 0 0 0-.875-2.07c-.583-.57-1.292-.854-2.125-.854s-1.542.285-2.125.853A2.783 2.783 0 0 0 9 6.884z"/></symbol><symbol id="file-pen" viewBox="0 0 24 24"><path d="M12.452 21v-2.503l5.211-5.12a1.144 1.144 0 0 1 .802-.32 1.179 1.179 0 0 1 .822.335l.888.885c.104.118.183.246.24.383.057.137.085.274.085.412 0 .137-.026.277-.078.419a1.104 1.104 0 0 1-.247.39L14.988 21h-2.536zm1.145-1.13h.912l3.115-3.09-.432-.459-.456-.435-3.14 3.084v.9zM5.235 21c-.485 0-.895-.166-1.231-.497a1.642 1.642 0 0 1-.504-1.216V4.713c0-.479.168-.884.504-1.216A1.686 1.686 0 0 1 5.235 3h7.623l5.04 4.974v2.65h-1.44v-1.94h-4.32V4.421H5.236a.284.284 0 0 0-.203.091.277.277 0 0 0-.092.2v14.575c0 .073.03.14.092.2.062.062.13.092.203.092h5.113V21H5.235zm11.957-4.679l-.456-.435.888.895-.432-.46z"/></symbol><symbol id="circles-overlap" viewBox="0 0 20 20"><path fill="#1C1B1F" d="M7.632 17.5a4.97 4.97 0 0 1-2-.404 5.211 5.211 0 0 1-1.627-1.1 5.211 5.211 0 0 1-1.101-1.628 4.97 4.97 0 0 1-.404-2c0-1 .262-1.916.787-2.75a4.98 4.98 0 0 1 2.107-1.88c.253-.528.576-.99.97-1.382a4.882 4.882 0 0 1 1.374-.962 4.894 4.894 0 0 1 1.853-2.1 5.061 5.061 0 0 1 2.777-.794 4.97 4.97 0 0 1 2 .404c.62.269 1.163.636 1.627 1.1a5.211 5.211 0 0 1 1.101 1.628c.27.62.404 1.287.404 2 0 1.047-.261 1.973-.783 2.778a5.147 5.147 0 0 1-2.11 1.852 4.96 4.96 0 0 1-.966 1.379 4.97 4.97 0 0 1-1.379.965 5.085 5.085 0 0 1-1.865 2.1c-.823.53-1.745.794-2.765.794zm.015-1.184c.51 0 1.012-.104 1.507-.311a3.279 3.279 0 0 0 1.256-.919 4.805 4.805 0 0 1-2.216-.301 5.26 5.26 0 0 1-1.806-1.166 5.216 5.216 0 0 1-1.173-1.802 4.784 4.784 0 0 1-.301-2.212 3.44 3.44 0 0 0-.915 1.252 3.78 3.78 0 0 0-.315 1.511c0 .553.105 1.067.316 1.544.21.476.493.892.849 1.247.36.355.778.637 1.255.845.476.208.99.312 1.543.312zM10 13.947c.596 0 1.134-.119 1.615-.356a3.94 3.94 0 0 0 1.188-.873 4.79 4.79 0 0 1-2.228-.308 5.339 5.339 0 0 1-1.806-1.171 5.29 5.29 0 0 1-1.18-1.802 4.769 4.769 0 0 1-.307-2.224 3.76 3.76 0 0 0-.876 1.214A3.673 3.673 0 0 0 6.068 10c0 .553.102 1.066.306 1.54.204.473.487.888.85 1.243.356.368.77.655 1.24.858.471.204.983.306 1.536.306zm2.384-2.368c.236 0 .463-.02.68-.06.218-.039.438-.098.662-.177.29-.79.332-1.55.128-2.28a4.126 4.126 0 0 0-1.056-1.845c-.5-.5-1.115-.852-1.845-1.056-.73-.204-1.49-.161-2.28.128a4.295 4.295 0 0 0-.178.662 3.841 3.841 0 0 0-.059.68A3.794 3.794 0 0 0 9.6 10.415a3.794 3.794 0 0 0 2.784 1.165zm2.717-1.16c.385-.342.683-.746.896-1.21.212-.466.319-.991.319-1.577a3.795 3.795 0 0 0-1.164-2.783 3.793 3.793 0 0 0-2.784-1.165c-.566 0-1.083.108-1.55.323-.468.215-.88.517-1.237.907a4.79 4.79 0 0 1 2.228.308 5.338 5.338 0 0 1 1.806 1.17 5.3 5.3 0 0 1 1.179 1.803 4.78 4.78 0 0 1 .307 2.224z"/></symbol><symbol id="location-dot" viewBox="0 0 24 24"><path fill-rule="evenodd" d="M11.34 1.361c-3.581.259-6.673 2.766-7.667 6.218-.764 2.651-.278 5.751 1.332 8.487 1.264 2.148 3.348 4.3 5.755 5.94.88.599 1.123.705 1.417.617.326-.098 1.441-.855 2.429-1.648 2.116-1.699 3.791-3.684 4.78-5.665.785-1.569 1.153-2.924 1.254-4.606.1-1.672-.164-3.05-.861-4.496-1.533-3.18-4.884-5.105-8.439-4.847m2.123 1.455c2.393.505 4.32 2.085 5.277 4.327a7.2 7.2 0 0 1 .468 1.548c.079.391.091.573.091 1.409.001.728-.017 1.071-.071 1.42-.312 1.999-1.189 3.864-2.669 5.677-1.086 1.33-2.573 2.675-4.13 3.736-.215.147-.409.267-.432.267-.121 0-1.546-1.047-2.317-1.703-.598-.509-1.646-1.561-2.101-2.111-.827-.998-1.376-1.838-1.876-2.871-.362-.749-.545-1.237-.724-1.935-.248-.969-.279-1.241-.278-2.46 0-1.044.006-1.126.109-1.604.588-2.738 2.625-4.897 5.279-5.593.248-.065.586-.137.751-.16l.4-.06c.055-.01.469-.011.92-.003.69.012.897.03 1.303.116M11.4 6.388c-.774.13-1.614.591-2.123 1.166a3.665 3.665 0 0 0 .08 4.98 3.661 3.661 0 0 0 6.138-3.626 3.66 3.66 0 0 0-2.743-2.485c-.286-.058-1.089-.079-1.352-.035m1.156 1.353c.72.17 1.357.734 1.629 1.444.14.364.176.99.079 1.375a2.388 2.388 0 0 1-1.666 1.701c-.28.075-.916.075-1.196 0a2.375 2.375 0 0 1-1.588-1.45c-.195-.516-.169-1.253.063-1.776.271-.609.903-1.135 1.554-1.293a2.897 2.897 0 0 1 1.125-.001"/></symbol><symbol id="text-t" viewBox="0 0 24 24"><path fill-rule="evenodd" d="M3.845 3.36a.673.673 0 0 0-.425.324c-.076.129-.081.22-.092 1.725-.013 1.745-.003 1.844.208 2.055a.654.654 0 0 0 1.068-.201c.067-.147.074-.282.075-1.373l.001-1.21h6.64v14.64h-1.17c-.73 0-1.23.017-1.329.045a.644.644 0 0 0-.431.88c.094.21.194.304.397.377.2.071 6.138.084 6.391.014a.714.714 0 0 0 .46-.468.672.672 0 0 0-.46-.804c-.098-.027-.602-.044-1.328-.044h-1.17V4.68h6.64v1.17c0 .726.017 1.23.044 1.328.128.459.702.631 1.071.32.243-.204.25-.266.237-2.081l-.012-1.643-.112-.147a.94.94 0 0 0-.24-.217c-.121-.066-.598-.07-8.228-.076-4.455-.004-8.161.008-8.235.026"/></symbol><symbol id="flag-2" viewBox="0 0 24 24"><path fill-rule="evenodd" d="M7.238 1.36c-.883.05-1.661.191-2.358.428-.419.142-1.039.466-1.254.655-.338.298-.309-.694-.297 10.143l.011 9.647.124.153c.318.393.863.361 1.114-.066.081-.138.082-.192.093-3.572l.011-3.432.258-.116c.779-.349 1.748-.52 2.948-.52 1.145.001 2.027.206 3.62.844 1.58.632 2.501.919 3.392 1.058.532.083 1.803.095 2.4.022 1.284-.157 2.314-.496 2.968-.978.436-.322.392.429.392-6.626 0-6.108-.001-6.182-.08-6.316a.657.657 0 0 0-.433-.322c-.211-.048-.385.004-.694.208-.784.517-2.059.782-3.563.74-1.158-.033-1.682-.166-3.61-.919a42.704 42.704 0 0 0-1.54-.571c-1.18-.393-2.235-.531-3.502-.46M8.9 2.74c.725.109 1.517.347 2.608.784 2.26.904 3.168 1.126 4.612 1.128 1.078.001 2.104-.14 2.837-.391a3.47 3.47 0 0 1 .33-.101c.018 0 .033 2.365.033 5.256v5.255l-.19.09c-.856.404-1.928.585-3.24.549-1.143-.032-1.692-.17-3.51-.88-1.617-.631-2.21-.821-3.02-.968-.858-.156-2.203-.149-3.213.016-.397.065-.959.205-1.397.348-.066.022-.07-.245-.07-5.243V3.317l.259-.117c.523-.234 1.154-.392 1.901-.476.514-.058 1.626-.049 2.06.016"/></symbol><symbol id="money-bills" viewBox="0 0 24 24"><path d="M13.533 13.164a2.135 2.135 0 0 1-1.57-.643 2.135 2.135 0 0 1-.642-1.57c0-.618.214-1.141.642-1.57a2.135 2.135 0 0 1 1.57-.642 2.14 2.14 0 0 1 1.57.643c.428.428.642.951.642 1.57 0 .618-.214 1.14-.643 1.57a2.135 2.135 0 0 1-1.57.642zm-5.837 2.74a1.54 1.54 0 0 1-1.13-.47 1.54 1.54 0 0 1-.47-1.13V7.599c0-.44.157-.816.47-1.13A1.54 1.54 0 0 1 7.697 6H19.37c.44 0 .816.157 1.13.47.313.313.47.69.47 1.13v6.704c0 .44-.157.816-.47 1.13a1.54 1.54 0 0 1-1.13.47H7.696zm1.327-1.328h9.019c0-.441.157-.818.47-1.13.313-.313.69-.47 1.13-.47v-4.05c-.442 0-.819-.156-1.131-.47a1.542 1.542 0 0 1-.47-1.129H9.024c0 .441-.156.818-.47 1.13a1.54 1.54 0 0 1-1.129.47v4.05c.441 0 .818.156 1.13.47.313.312.47.689.47 1.129zM18.331 19H4.6a1.54 1.54 0 0 1-1.13-.47A1.54 1.54 0 0 1 3 17.4V8.638h1.327v8.764c0 .067.029.13.085.187a.26.26 0 0 0 .188.085h13.73V19zM7.696 14.576h-.272V7.327h.272a.261.261 0 0 0-.191.081.261.261 0 0 0-.08.191v6.705c0 .073.026.137.08.19a.261.261 0 0 0 .191.082z"/></symbol><symbol id="print" viewBox="0 0 20 20"><path fill-rule="evenodd" d="M5.658 2.214a.864.864 0 0 0-.449.379l-.092.157-.01 2.271-.009 2.27-.524.019c-.598.021-.802.066-1.174.259-.504.262-.915.74-1.114 1.294l-.103.287v4.533l.078.25c.12.388.284.651.603.968.493.49.962.666 1.775.666H5.1v1.141c.001 1.131.001 1.144.079 1.309.095.2.22.322.421.414.149.067.193.068 4.717.067 3.729-.001 4.589-.009 4.691-.046a.865.865 0 0 0 .45-.378l.092-.157.01-1.175.01-1.175h.446c.553 0 .844-.058 1.217-.241.23-.113.341-.197.585-.441.246-.246.327-.354.439-.585.248-.51.247-.501.236-2.967l-.01-2.183-.092-.274a2.41 2.41 0 0 0-1.118-1.304c-.379-.196-.58-.241-1.181-.262l-.525-.019V5.085c0-2.497.009-2.404-.256-2.668-.267-.268.079-.251-5.009-.249-3.688.001-4.542.01-4.644.046M13.9 5.567V7.3H6.767V3.833H13.9v1.734m2.551 3.462a.661.661 0 0 1 .35.398c.024.083.033.753.026 2.092l-.01 1.969-.081.117a.902.902 0 0 1-.197.198c-.106.073-.157.081-.545.091l-.427.011v-1.113c0-1.253-.011-1.325-.229-1.55a1.187 1.187 0 0 0-.256-.193c-.129-.064-.239-.066-4.649-.076-3.188-.007-4.566.001-4.687.026a.856.856 0 0 0-.538.396l-.091.155-.01 1.175-.01 1.175h-.38c-.209 0-.422-.016-.473-.035a.703.703 0 0 1-.347-.348c-.058-.125-.062-.257-.063-2.076-.001-1.68.006-1.96.051-2.067a.613.613 0 0 1 .332-.344c.128-.059.37-.062 6.116-.062 5.734 0 5.989.003 6.118.061M13.9 14.733v2.1H6.767v-4.2H13.9v2.1"/></symbol><symbol id="mobile" viewBox="0 0 20 20"><path fill-rule="evenodd" d="M6.039 2.204c-.769.128-1.502.769-1.764 1.543l-.092.27V16.65l.093.274c.247.73.888 1.321 1.638 1.51.256.064.379.066 4.219.066 3.841 0 3.964-.002 4.22-.066.43-.109.722-.276 1.05-.6.32-.316.48-.574.603-.967l.077-.25v-12.6l-.091-.27c-.268-.79-.994-1.415-1.793-1.545-.268-.043-7.898-.042-8.16.002m8.027 1.704a.924.924 0 0 1 .249.203l.102.129v12.177l-.082.12a.935.935 0 0 1-.197.2l-.116.08-3.803.009c-2.091.006-3.851.001-3.911-.01-.142-.025-.336-.197-.413-.366-.057-.127-.06-.401-.061-6.109-.001-5.32.005-5.99.051-6.1a.615.615 0 0 1 .332-.345c.127-.058.309-.061 3.918-.062l3.784-.001.147.075M9.725 14.215a.915.915 0 0 0-.452.382c-.076.129-.09.191-.09.403 0 .214.014.273.094.41.432.735 1.555.439 1.555-.41a.828.828 0 0 0-.448-.741c-.168-.087-.491-.108-.659-.044"/></symbol><symbol id="phone" viewBox="0 0 20 20"><path fill-rule="evenodd" d="M3.983 2.22a2.93 2.93 0 0 0-.547.204A2.277 2.277 0 0 0 2.178 4.3c-.013.197.004.446.054.813.326 2.397 1.16 4.562 2.557 6.637a15.11 15.11 0 0 0 4.094 4.084c1.773 1.188 3.675 1.987 5.667 2.38.55.109 1.343.219 1.574.219.3 0 .674-.094 1.007-.255.26-.126.362-.199.587-.424.221-.222.3-.331.428-.588.243-.493.253-.578.253-2.159.001-1.564-.01-1.663-.242-2.14-.11-.226-.195-.341-.423-.57-.443-.446-.71-.571-1.525-.713a9.343 9.343 0 0 1-1.528-.385c-.573-.185-.875-.226-1.243-.169-.575.09-.938.283-1.45.772l-.352.336-.343-.243a10.813 10.813 0 0 1-2.737-2.791l-.123-.178.359-.374c.573-.598.757-1.021.756-1.735-.001-.391-.005-.412-.171-.917a9.068 9.068 0 0 1-.39-1.55c-.13-.742-.255-1.033-.611-1.418a2.474 2.474 0 0 0-.972-.646l-.287-.103-1.45-.006c-1.181-.006-1.494.002-1.684.043M6.87 3.872c.302.105.376.231.479.818.096.545.237 1.107.419 1.667.073.224.132.445.132.493 0 .188-.112.342-.647.883-.56.566-.664.711-.702.968-.031.215.039.404.316.856a12.879 12.879 0 0 0 3.366 3.628c.558.403 1.19.775 1.388.816.373.077.528-.011 1.23-.702.569-.56.671-.631.896-.632.035 0 .27.067.521.149.587.192.999.295 1.597.399.554.097.686.162.798.393.068.141.07.19.07 1.394-.001 1.378-.005 1.402-.22 1.604-.165.154-.339.179-.797.114-2.207-.313-4.058-1.027-5.949-2.297-1.925-1.292-3.533-3.163-4.619-5.373a13.232 13.232 0 0 1-1.267-4.212c-.063-.465-.045-.59.11-.775.188-.223.224-.228 1.562-.229.836 0 1.238.011 1.317.038"/></symbol><symbol id="envelope-2" viewBox="0 0 20 20"><path d="M4.333 3.198c-.28.015-.504.046-.594.08a2.56 2.56 0 0 0-1.091.805 2.456 2.456 0 0 0-.399.747l-.082.228v9.621l.102.278c.123.334.201.475.408.741.268.346.638.601 1.114.769l.281.1h12.523l.285-.101c.475-.168.813-.402 1.098-.76.23-.29.3-.415.421-.759l.101-.286V5.072l-.101-.285a3.197 3.197 0 0 0-.173-.411 2.467 2.467 0 0 0-1.009-.962c-.472-.234.023-.217-6.517-.229-3.254-.007-6.119-.001-6.367.013m12.139 1.713a.748.748 0 0 1 .183.128c.073.081.244-.055-1.32 1.046-2.935 2.068-4.944 3.448-5.017 3.448-.048 0-.644-.41-3.701-2.549-2.569-1.797-2.65-1.855-2.65-1.888 0-.014.055-.068.122-.119.112-.086.154-.095.492-.114.203-.011 2.934-.018 6.069-.016 5.442.003 5.706.006 5.822.064M8.9 10.604c1.249.854 1.176.813 1.433.813.192 0 .241-.014.401-.116.357-.226 1.878-1.277 3.974-2.744l2.125-1.487v2.326c0 1.28-.01 2.962-.022 3.74l-.022 1.413-.176.176-.176.176-6.096-.009-6.096-.009-.119-.091a.966.966 0 0 1-.198-.216l-.078-.126-.01-3.691-.01-3.692 2.11 1.478c1.16.812 2.492 1.739 2.96 2.059"/></symbol><symbol id="cat-star" viewBox="0 0 32 32"><path fill="#1C1B1F" fill-rule="evenodd" d="M15.953 4.679c-.066.373-.129.688-.141.7-.011.012-.214.1-.45.197-.236.096-.55.264-.698.373l-.269.197-.691-.239-.69-.24-.377.611c-.207.336-.368.635-.359.664.01.029.245.238.523.465.557.454.517.365.474 1.073-.012.191-.003.503.019.693l.04.347-.556.424c-.514.392-.552.433-.494.537.23.416.712 1.145.756 1.145.029.001.345-.097.701-.215l.649-.216.361.242c.302.202.558.324 1.015.48.052.018.152.469.265 1.19l.036.226h.787c.773 0 .788-.002.816-.12.015-.066.07-.38.121-.698.051-.318.119-.587.151-.598.469-.161.74-.288 1.028-.486l.346-.237.649.216c.357.119.675.217.707.217.043 0 .646-.928.8-1.231.009-.016-.235-.22-.541-.453l-.557-.423.04-.267c.051-.345.05-.785-.003-1.12l-.042-.266.559-.442.559-.442-.383-.638c-.225-.375-.417-.637-.464-.635-.044.001-.356.107-.693.234-.549.206-.625.223-.72.155-.437-.308-.718-.47-1.003-.577-.369-.139-.321-.04-.489-1.002L17.643 4h-1.57l-.12.679m-11.277.797c-.02.019-.036.415-.036.878v.844l1.122.014 1.121.015 2.108 4.463 2.109 4.463-.866 1.561c-.476.858-.909 1.702-.963 1.874-.126.405-.123.691.01 1.122a2.107 2.107 0 0 0 1.217 1.328l.302.122h13.707l.014-.867.015-.866h-6.695c-6.623 0-6.695-.001-6.801-.107-.059-.059-.107-.141-.107-.182 0-.042.312-.648.693-1.347l.693-1.271 4.494-.027 4.494-.026.3-.141c.346-.163.699-.464.882-.753.146-.232 4.758-8.602 4.801-8.713.023-.061-.141-.073-.955-.073h-.982l-2.099 3.8c-1.154 2.09-2.156 3.878-2.226 3.973l-.127.173h-4.037l-4.037-.001-2.422-5.146L7.984 5.44H6.347c-.9 0-1.652.016-1.671.036M17.76 6.86a2.06 2.06 0 0 1 1.173 1.491c.163.826-.333 1.739-1.159 2.135-.247.118-.403.152-.797.17-.609.029-.968-.073-1.41-.398-.998-.735-1.113-2.093-.251-2.956.467-.467.922-.641 1.617-.619.405.012.535.04.827.177m-7.293 17.2c-.327.125-.813.549-1.004.875-.197.336-.304.913-.241 1.305.099.614.384 1.073.87 1.403.987.669 2.356.343 2.908-.693.463-.869.305-1.823-.414-2.488-.422-.391-.758-.516-1.375-.513-.332.002-.544.034-.744.111m11.24.004c-.418.16-.954.704-1.12 1.136-.167.438-.169 1.051-.004 1.48.529 1.374 2.287 1.761 3.318.731a2.042 2.042 0 0 0 .391-2.379c-.183-.374-.683-.831-1.065-.974-.41-.153-1.11-.15-1.52.006"/></symbol><symbol id="dollar" viewBox="0 0 20 20"><path d="M9.379 17.292v-1.744c-.725-.13-1.35-.413-1.874-.85-.524-.438-.911-1.05-1.161-1.836l1.157-.48c.224.645.544 1.138.959 1.48.415.342.97.513 1.663.513.601 0 1.132-.143 1.592-.43.46-.286.69-.74.69-1.362 0-.54-.173-.97-.519-1.292-.345-.322-1.06-.659-2.145-1.009-1.135-.359-1.924-.779-2.366-1.26-.442-.48-.663-1.085-.663-1.814 0-.838.295-1.498.883-1.98.589-.48 1.184-.748 1.784-.802V2.708h1.25v1.718c.636.085 1.17.291 1.603.62.432.33.769.757 1.01 1.284l-1.142.523a2.2 2.2 0 0 0-.764-.936c-.327-.223-.757-.334-1.29-.334-.627 0-1.131.153-1.512.459-.381.305-.572.694-.572 1.166 0 .485.195.873.585 1.164.39.29 1.115.595 2.175.913.985.3 1.72.726 2.205 1.28.485.553.728 1.217.728 1.993 0 .911-.293 1.618-.88 2.122-.585.503-1.3.8-2.146.894v1.718h-1.25z"/></symbol><symbol id="three-dot-underline" viewBox="0 0 20 20"><path d="M3.67 10.848a2.17 2.17 0 0 1-1.595-.658 2.178 2.178 0 0 1-.657-1.599c0-.627.219-1.158.657-1.593a2.176 2.176 0 0 1 1.594-.653c.625 0 1.157.218 1.595.654.438.436.657.966.657 1.59 0 .627-.219 1.16-.656 1.6-.438.44-.97.659-1.595.659zM2.418 15.68V14.5h15.167v1.18H2.418zm7.584-4.84a2.172 2.172 0 0 1-1.595-.657A2.17 2.17 0 0 1 7.75 8.59c0-.625.219-1.157.656-1.595a2.17 2.17 0 0 1 1.595-.657c.625 0 1.157.219 1.595.656.438.438.657.97.657 1.595s-.219 1.157-.657 1.595a2.17 2.17 0 0 1-1.594.657zm6.332 0a2.172 2.172 0 0 1-1.596-.657 2.17 2.17 0 0 1-.656-1.594c0-.625.218-1.157.656-1.595a2.17 2.17 0 0 1 1.595-.657c.625 0 1.157.219 1.595.656.438.438.657.97.657 1.595s-.22 1.157-.657 1.595a2.17 2.17 0 0 1-1.594.657z"/></symbol><symbol id="rectangle-plus" viewBox="0 0 26 24"><path d="M13.577 16.038H.885V4.5h20.769v3.462h-2.308V6.808H3.192v6.923h10.385v2.307zm5.77 3.462v-3.462h-3.462v-2.307h3.461v-3.462h2.308v3.462h3.462v2.307h-3.462V19.5h-2.308z"/></symbol></svg>