<svg xmlns="http://www.w3.org/2000/svg" width="24" height="24" fill="none" viewBox="0 0 24 24"><path fill="#000" d="M7.192 10.616L12 2.73l4.808 7.885H7.192zm10.308 11c-1.147 0-2.12-.4-2.918-1.198-.798-.798-1.197-1.77-1.197-2.918 0-1.147.399-2.12 1.197-2.918s1.77-1.197 2.918-1.197c1.148 0 2.12.399 2.918 1.197s1.198 1.77 1.198 2.918c0 1.148-.4 2.12-1.198 2.918-.798.799-1.77 1.198-2.918 1.198zm-14.115-.5v-7.231h7.23v7.23h-7.23zm14.115-1c.732 0 1.351-.253 1.857-.759.506-.505.759-1.124.759-1.857 0-.732-.253-1.35-.759-1.857-.505-.505-1.124-.758-1.857-.758-.732 0-1.35.252-1.857.758-.505.506-.758 1.125-.758 1.857s.252 1.351.758 1.857 1.125.759 1.857.759zm-12.615-.5h4.23v-4.231h-4.23v4.23zm4.954-10.5h4.323L12 5.639 9.84 9.116z"/></svg>