<svg xmlns="http://www.w3.org/2000/svg" width="20" height="20" fill="none" viewBox="0 0 20 20"><path fill="#000" d="M11.459 17.083c1.967 0 3.64-.688 5.017-2.065 1.377-1.378 2.066-3.05 2.066-5.017 0-.984-.186-1.905-.558-2.764a7.172 7.172 0 0 0-1.516-2.247 7.174 7.174 0 0 0-2.246-1.516 6.877 6.877 0 0 0-2.763-.558 6.88 6.88 0 0 0-2.763.558A7.172 7.172 0 0 0 6.449 4.99a7.174 7.174 0 0 0-1.516 2.247A6.88 6.88 0 0 0 4.375 10v.671l-1.4-1.421-.891.87L5 13.037l2.917-2.917-.891-.87-1.4 1.4V10c0-1.611.569-2.986 1.708-4.125 1.139-1.14 2.514-1.709 4.125-1.709 1.61 0 2.986.57 4.125 1.709 1.139 1.139 1.708 2.514 1.708 4.125-.009 1.616-.579 2.993-1.71 4.129-1.133 1.136-2.507 1.704-4.123 1.704a5.537 5.537 0 0 1-2.193-.432 6.219 6.219 0 0 1-1.822-1.186l-.899.89a7.338 7.338 0 0 0 2.24 1.453c.84.35 1.731.525 2.674.525z"/></svg>