<svg xmlns="http://www.w3.org/2000/svg" width="20" height="20" fill="none" viewBox="0 0 20 20"><path fill="#000" d="M9.167 17.083c-1.968 0-3.64-.688-5.018-2.065C2.772 13.64 2.083 11.968 2.083 10c0-.984.186-1.905.558-2.764A7.172 7.172 0 0 1 4.157 4.99a7.174 7.174 0 0 1 2.246-1.516 6.877 6.877 0 0 1 2.763-.557 6.88 6.88 0 0 1 2.764.557 7.172 7.172 0 0 1 2.246 1.516 7.173 7.173 0 0 1 1.516 2.247A6.88 6.88 0 0 1 16.25 10v.671l1.4-1.421.892.87-2.917 2.917-2.917-2.917.891-.87L15 10.65V10c0-1.611-.57-2.986-1.708-4.125-1.14-1.139-2.514-1.708-4.125-1.708-1.611 0-2.986.57-4.125 1.708C3.902 7.014 3.333 8.389 3.333 10c.009 1.617.58 2.993 1.711 4.129 1.132 1.136 2.506 1.704 4.123 1.704.786 0 1.517-.144 2.193-.432a6.216 6.216 0 0 0 1.821-1.186l.9.89a7.338 7.338 0 0 1-2.241 1.453 6.88 6.88 0 0 1-2.673.525z"/></svg>