<svg xmlns="http://www.w3.org/2000/svg" width="24" height="24" fill="none" viewBox="0 0 24 24"><path fill="#000" d="M12 21.654L8.095 17.75l1.069-1.07 2.085 2.085V14.25h1.5l-.016 4.5 2.085-2.085 1.084 1.085L12 21.654zm-5.75-5.75L2.346 12l3.888-3.888 1.07 1.069-2.07 2.069H9.75v1.5h-4.5l2.085 2.07-1.084 1.084zm11.5 0l-1.07-1.07 2.085-2.084H14.25v-1.5l4.5.015-2.085-2.084 1.085-1.085L21.652 12l-3.903 3.904zm-6.5-6.154V5.235L9.165 7.319 8.095 6.25 12 2.346l3.904 3.904-1.069 1.07-2.085-2.085V9.75h-1.5z"/></svg>