<svg xmlns="http://www.w3.org/2000/svg" width="16" height="16" fill="none" viewBox="0 0 16 16"><path fill="#000" d="M3.538 13.667c-.337 0-.622-.117-.855-.35a1.163 1.163 0 0 1-.35-.855V3.539c0-.337.117-.622.35-.856.233-.233.518-.35.855-.35h4.205v1H3.538a.196.196 0 0 0-.14.065.196.196 0 0 0-.065.14v8.924c0 .051.021.098.064.14.043.043.09.065.141.065h8.923a.196.196 0 0 0 .141-.064.196.196 0 0 0 .064-.141V8.257h1v4.205c0 .336-.116.622-.35.855-.233.233-.518.35-.855.35H3.538zm2.941-3.444l-.702-.702 6.187-6.188H9.333v-1h4.333v4.334h-1V4.036L6.48 10.223z"/></svg>