<svg xmlns="http://www.w3.org/2000/svg" width="40" height="40" fill="none" viewBox="0 0 40 40"><path fill="#000" d="M12.46 27.506h9.946v-1.41H12.46v1.41zm0-6.801h15.08v-1.41H12.46v1.41zm0-6.801h15.08v-1.41H12.46v1.41zm-3.357 19.43c-.683 0-1.26-.236-1.73-.707-.47-.47-.706-1.047-.706-1.73V9.102c0-.682.235-1.259.706-1.73.47-.47 1.047-.705 1.73-.705h21.795c.683 0 1.26.235 1.73.705.47.471.706 1.048.706 1.73v21.795c0 .683-.236 1.26-.706 1.73s-1.047.706-1.73.706H9.103zm0-1.411h21.795c.256 0 .491-.107.705-.32.214-.214.32-.45.32-.706V9.102c0-.256-.106-.491-.32-.705-.214-.213-.449-.32-.705-.32H9.103c-.257 0-.492.107-.705.32-.214.214-.32.449-.32.705v21.795c0 .257.106.492.32.705.213.214.448.32.705.32z"/></svg>