<svg xmlns="http://www.w3.org/2000/svg" width="24" height="24" fill="none" viewBox="0 0 24 24"><path fill="#000" d="M5.308 21.5c-.499 0-.925-.172-1.278-.516a1.675 1.675 0 0 1-.53-1.245V8.646c0-.486.177-.901.53-1.245a1.765 1.765 0 0 1 1.278-.516H7.5c0-1.217.438-2.252 1.313-3.105C9.69 2.927 10.751 2.5 12 2.5c1.249 0 2.31.427 3.187 1.28.875.853 1.313 1.888 1.313 3.105h2.192c.499 0 .925.172 1.278.516.353.344.53.759.53 1.245v11.093c0 .486-.177.9-.53 1.245a1.765 1.765 0 0 1-1.278.516H5.308zm0-1.462h13.384a.297.297 0 0 0 .212-.093.284.284 0 0 0 .096-.206V8.646a.283.283 0 0 0-.096-.206.298.298 0 0 0-.212-.094H5.308a.298.298 0 0 0-.212.094.283.283 0 0 0-.096.206v11.093c0 .075.032.143.096.206a.298.298 0 0 0 .212.093zM12 13.705c1.249 0 2.31-.427 3.187-1.28.875-.853 1.313-1.888 1.313-3.105H15c0 .812-.292 1.503-.875 2.071-.583.568-1.292.853-2.125.853s-1.542-.285-2.125-.853A2.783 2.783 0 0 1 9 9.321H7.5c0 1.216.438 2.251 1.313 3.104.876.853 1.938 1.28 3.187 1.28zm-3-6.82h6a2.78 2.78 0 0 0-.875-2.07c-.583-.57-1.292-.854-2.125-.854s-1.542.285-2.125.853A2.783 2.783 0 0 0 9 6.884z"/></svg>