<svg xmlns="http://www.w3.org/2000/svg" width="20" height="20" fill="none" viewBox="0 0 20 20"><path fill="#000" d="M6.317 3.4L5.125 2.208A8.717 8.717 0 0 0 1.687 8.75h1.667A7.067 7.067 0 0 1 6.317 3.4zm10.329 5.35h1.666a8.717 8.717 0 0 0-3.437-6.542l-1.188 1.188a7.09 7.09 0 0 1 2.959 5.354zM15 9.167c0-2.563-1.363-4.7-3.75-5.267v-.567c0-.691-.558-1.25-1.25-1.25s-1.25.559-1.25 1.25V3.9C6.362 4.467 5 6.604 5 9.167v4.166L3.333 15v.833h13.334V15L15 13.333V9.167zm-5 9.166c.117 0 .23-.012.338-.033a1.683 1.683 0 0 0 1.2-.983c.083-.2.129-.417.129-.65H8.333c0 .92.746 1.666 1.667 1.666z"/></svg>