<svg xmlns="http://www.w3.org/2000/svg" width="40" height="40" fill="none" viewBox="0 0 40 40"><path fill="#000" d="M7.436 28.333c-.683 0-1.26-.235-1.73-.706-.47-.47-.706-1.047-.706-1.73V14.102c0-.682.235-1.259.706-1.73.47-.47 1.047-.706 1.73-.706h25.128c.683 0 1.26.236 1.73.706.47.471.706 1.048.706 1.73v11.795c0 .683-.235 1.26-.706 1.73-.47.47-1.047.706-1.73.706H7.436zm0-1.41h25.128c.3 0 .545-.096.737-.288a.998.998 0 0 0 .289-.738V14.102a.995.995 0 0 0-.289-.737.998.998 0 0 0-.737-.288H7.436c-.3 0-.545.096-.737.288a.998.998 0 0 0-.289.737v11.795c0 .3.096.545.289.738a.998.998 0 0 0 .737.288z"/></svg>