<svg xmlns="http://www.w3.org/2000/svg" width="32" height="32" fill="none" viewBox="0 0 32 32"><path fill="#000" d="M11.228 28a2.19 2.19 0 0 1-1.585-.635 2.069 2.069 0 0 1-.652-1.54c0-.604.217-1.118.652-1.54a2.189 2.189 0 0 1 1.585-.636c.621 0 1.15.212 1.584.635.435.423.653.937.653 1.54 0 .605-.218 1.118-.653 1.541a2.189 2.189 0 0 1-1.584.635zm12.39 0a2.19 2.19 0 0 1-1.584-.635 2.069 2.069 0 0 1-.653-1.54c0-.604.218-1.118.653-1.54a2.189 2.189 0 0 1 1.584-.636c.622 0 1.15.212 1.585.635.435.423.652.937.652 1.54 0 .605-.217 1.118-.652 1.541a2.189 2.189 0 0 1-1.585.635zM9.772 8.35l3.24 6.598h8.716c.074 0 .14-.018.196-.054a.475.475 0 0 0 .148-.149l3.43-6.06c.049-.087.053-.165.012-.233-.041-.068-.11-.101-.21-.101H9.773zm-.92-1.864h17.75c.524 0 .92.216 1.187.65.268.432.28.874.038 1.325l-4.096 7.214c-.21.358-.487.638-.832.838-.345.2-.723.3-1.134.3h-9.328l-1.48 2.63c-.065.095-.067.198-.006.31a.298.298 0 0 0 .277.167h14.627v1.865H11.228c-.852 0-1.493-.358-1.921-1.072-.43-.715-.444-1.428-.046-2.14l1.824-3.19-4.651-9.519H4V4h3.638l1.215 2.486z"/></svg>