<svg xmlns="http://www.w3.org/2000/svg" width="24" height="24" fill="none" viewBox="0 0 24 24"><path fill="#000" d="M12.002 21a8.768 8.768 0 0 1-3.51-.709 9.093 9.093 0 0 1-2.859-1.923 9.09 9.09 0 0 1-1.924-2.857A8.76 8.76 0 0 1 3 12c0-1.244.236-2.414.709-3.51a9.09 9.09 0 0 1 1.923-2.858A9.09 9.09 0 0 1 8.489 3.71 8.76 8.76 0 0 1 12 3c1.244 0 2.414.236 3.51.709a9.091 9.091 0 0 1 2.858 1.923 9.09 9.09 0 0 1 1.924 2.857A8.76 8.76 0 0 1 21 12a8.768 8.768 0 0 1-.709 3.51 9.093 9.093 0 0 1-1.923 2.858 9.09 9.09 0 0 1-2.857 1.924A8.759 8.759 0 0 1 12 21zM12 19.579a7.579 7.579 0 0 0 2.907-.573 7.458 7.458 0 0 0 2.46-1.637L12 12V4.421c-2.116 0-3.908.734-5.376 2.203C5.155 8.092 4.42 9.884 4.42 12c0 2.116.734 3.908 2.203 5.376C8.092 18.845 9.884 19.58 12 19.58z"/></svg>