<svg xmlns="http://www.w3.org/2000/svg" width="24" height="24" fill="none" viewBox="0 0 24 24"><path fill="#000" d="M3 19.75a1.69 1.69 0 0 1-1.24-.51c-.34-.34-.51-.754-.51-1.24s.17-.899.51-1.24A1.69 1.69 0 0 1 3 16.25c.113 0 .215.005.306.015.09.01.181.04.27.093l4.782-4.78a.676.676 0 0 1-.094-.272A2.931 2.931 0 0 1 8.25 11c0-.486.17-.899.51-1.24.341-.34.754-.51 1.24-.51s.899.17 1.24.51c.34.341.51.754.51 1.24 0 .06-.03.245-.088.558l2.78 2.78a.898.898 0 0 1 .262-.073 2.8 2.8 0 0 1 .597 0 .6.6 0 0 1 .257.093l3.8-3.8a.601.601 0 0 1-.093-.257 2.77 2.77 0 0 1-.015-.3c0-.487.17-.9.51-1.24.341-.34.754-.51 1.24-.51s.899.17 1.24.51c.34.34.51.753.51 1.24 0 .485-.17.898-.51 1.239a1.69 1.69 0 0 1-1.24.51 2.8 2.8 0 0 1-.301-.014.6.6 0 0 1-.257-.094l-3.8 3.8a.603.603 0 0 1 .094.257c.01.088.014.188.014.301 0 .486-.17.9-.51 1.24-.341.34-.754.51-1.24.51s-.899-.17-1.24-.51c-.34-.34-.51-.754-.51-1.24 0-.113.005-.215.014-.306a.675.675 0 0 1 .094-.27l-2.781-2.782a.674.674 0 0 1-.271.094c-.091.01-.193.014-.306.014-.059 0-.245-.03-.558-.088l-4.78 4.78c.04.09.064.177.074.262.01.085.014.183.014.296 0 .486-.17.9-.51 1.24a1.69 1.69 0 0 1-1.24.51zM4 9.58L3.5 8.5 2.42 8l1.08-.5.5-1.08.5 1.08 1.08.5-1.08.5L4 9.58zm11-1.186l-.758-1.636L12.606 6l1.636-.758L15 3.606l.758 1.636L17.394 6l-1.636.758L15 8.394z"/></svg>