<svg xmlns="http://www.w3.org/2000/svg" width="32" height="32" fill="none" viewBox="0 0 32 32"><path fill="#000" d="M15.056 25.077h1.82v-1.615a5.878 5.878 0 0 0 2.81-1.166c.838-.636 1.257-1.602 1.257-2.896 0-.933-.275-1.759-.825-2.477-.55-.718-1.626-1.366-3.226-1.943-1.402-.479-2.333-.894-2.792-1.244-.46-.35-.69-.84-.69-1.47 0-.628.235-1.14.706-1.533s1.121-.59 1.95-.59c.694 0 1.254.164 1.68.492.426.327.753.738.982 1.232l1.646-.662a4.35 4.35 0 0 0-1.363-1.822c-.63-.505-1.32-.786-2.068-.844V6.923h-1.82V8.54c-1.137.218-2.01.68-2.62 1.383-.609.703-.914 1.485-.914 2.345 0 1.002.304 1.808.91 2.418.607.61 1.596 1.161 2.967 1.654 1.417.52 2.385.986 2.904 1.398.519.413.778.967.778 1.663 0 .836-.301 1.443-.905 1.822-.603.379-1.284.568-2.043.568-.75 0-1.422-.226-2.014-.677-.593-.451-1.048-1.111-1.366-1.98l-1.687.688c.345.99.842 1.776 1.489 2.359.646.582 1.458.988 2.434 1.215v1.682zm.944 3.59c-1.75 0-3.396-.333-4.938-.999a12.81 12.81 0 0 1-4.021-2.709 12.81 12.81 0 0 1-2.71-4.022c-.665-1.54-.998-3.186-.998-4.937 0-1.75.333-3.396.999-4.937A12.809 12.809 0 0 1 7.04 7.041a12.809 12.809 0 0 1 4.021-2.709c1.542-.666 3.187-.998 4.938-.998 1.75 0 3.396.332 4.937.998a12.81 12.81 0 0 1 4.022 2.71 12.808 12.808 0 0 1 2.709 4.021c.665 1.541.998 3.187.998 4.937 0 1.75-.333 3.396-.998 4.937a12.81 12.81 0 0 1-2.71 4.022 12.811 12.811 0 0 1-4.021 2.709c-1.541.666-3.187.999-4.937.999zm0-2c2.977 0 5.5-1.034 7.566-3.1 2.067-2.067 3.1-4.59 3.1-7.567 0-2.978-1.033-5.5-3.1-7.567-2.066-2.066-4.589-3.1-7.566-3.1-2.978 0-5.5 1.034-7.567 3.1-2.067 2.067-3.1 4.59-3.1 7.567 0 2.978 1.033 5.5 3.1 7.567s4.589 3.1 7.567 3.1z"/></svg>