<svg xmlns="http://www.w3.org/2000/svg" width="20" height="20" fill="none" viewBox="0 0 20 20"><path fill="#1C1B1F" d="M7.632 17.5a4.97 4.97 0 0 1-2-.404 5.211 5.211 0 0 1-1.627-1.1 5.211 5.211 0 0 1-1.101-1.628 4.97 4.97 0 0 1-.404-2c0-1 .262-1.916.787-2.75a4.98 4.98 0 0 1 2.107-1.88c.253-.528.576-.99.97-1.382a4.882 4.882 0 0 1 1.374-.962 4.894 4.894 0 0 1 1.853-2.1 5.061 5.061 0 0 1 2.777-.794 4.97 4.97 0 0 1 2 .404c.62.269 1.163.636 1.627 1.1a5.211 5.211 0 0 1 1.101 1.628c.27.62.404 1.287.404 2 0 1.047-.261 1.973-.783 2.778a5.147 5.147 0 0 1-2.11 1.852 4.96 4.96 0 0 1-.966 1.379 4.97 4.97 0 0 1-1.379.965 5.085 5.085 0 0 1-1.865 2.1c-.823.53-1.745.794-2.765.794zm.015-1.184c.51 0 1.012-.104 1.507-.311a3.279 3.279 0 0 0 1.256-.919 4.805 4.805 0 0 1-2.216-.301 5.26 5.26 0 0 1-1.806-1.166 5.216 5.216 0 0 1-1.173-1.802 4.784 4.784 0 0 1-.301-2.212 3.44 3.44 0 0 0-.915 1.252 3.78 3.78 0 0 0-.315 1.511c0 .553.105 1.067.316 1.544.21.476.493.892.849 1.247.36.355.778.637 1.255.845.476.208.99.312 1.543.312zM10 13.947c.596 0 1.134-.119 1.615-.356a3.94 3.94 0 0 0 1.188-.873 4.79 4.79 0 0 1-2.228-.308 5.339 5.339 0 0 1-1.806-1.171 5.29 5.29 0 0 1-1.18-1.802 4.769 4.769 0 0 1-.307-2.224 3.76 3.76 0 0 0-.876 1.214A3.673 3.673 0 0 0 6.068 10c0 .553.102 1.066.306 1.54.204.473.487.888.85 1.243.356.368.77.655 1.24.858.471.204.983.306 1.536.306zm2.384-2.368c.236 0 .463-.02.68-.06.218-.039.438-.098.662-.177.29-.79.332-1.55.128-2.28a4.126 4.126 0 0 0-1.056-1.845c-.5-.5-1.115-.852-1.845-1.056-.73-.204-1.49-.161-2.28.128a4.295 4.295 0 0 0-.178.662 3.841 3.841 0 0 0-.059.68A3.794 3.794 0 0 0 9.6 10.415a3.794 3.794 0 0 0 2.784 1.165zm2.717-1.16c.385-.342.683-.746.896-1.21.212-.466.319-.991.319-1.577a3.795 3.795 0 0 0-1.164-2.783 3.793 3.793 0 0 0-2.784-1.165c-.566 0-1.083.108-1.55.323-.468.215-.88.517-1.237.907a4.79 4.79 0 0 1 2.228.308 5.338 5.338 0 0 1 1.806 1.17 5.3 5.3 0 0 1 1.179 1.803 4.78 4.78 0 0 1 .307 2.224z"/></svg>