<svg xmlns="http://www.w3.org/2000/svg" width="24" height="24" fill="none" viewBox="0 0 24 24"><path fill="#000" d="M12.002 21.534c5.518 0 9.998-4.48 9.998-9.998 0-5.518-4.48-9.997-9.998-9.997-5.517 0-9.997 4.48-9.997 9.997 0 5.518 4.48 9.998 9.997 9.998zm0-1.5c-4.69 0-8.497-3.808-8.497-8.498a8.5 8.5 0 0 1 8.497-8.497c4.69 0 8.498 3.807 8.498 8.497 0 4.69-3.808 8.498-8.498 8.498zm0-6.5a.75.75 0 0 1-.75-.75v-5.5a.75.75 0 0 1 1.5 0v5.5a.75.75 0 0 1-.75.75zm-.002 3a1 1 0 1 0 0-2 1 1 0 0 0 0 2z"/></svg>