<svg xmlns="http://www.w3.org/2000/svg" width="24" height="24" fill="none" viewBox="0 0 24 24"><path fill="#000" d="M10.525 16.55L17.6 9.475 16.45 8.35l-5.925 5.925-3-3L6.4 12.4l4.125 4.15zM12 22a9.676 9.676 0 0 1-3.875-.788 10.144 10.144 0 0 1-3.188-2.15 10.142 10.142 0 0 1-2.15-3.187A9.676 9.676 0 0 1 2 12a9.74 9.74 0 0 1 .788-3.9 9.994 9.994 0 0 1 2.15-3.175 10.25 10.25 0 0 1 3.187-2.137A9.676 9.676 0 0 1 12 2a9.74 9.74 0 0 1 3.9.788 10.098 10.098 0 0 1 3.175 2.137c.9.9 1.613 1.958 2.137 3.175A9.738 9.738 0 0 1 22 12a9.676 9.676 0 0 1-.788 3.875 10.25 10.25 0 0 1-2.137 3.188 9.994 9.994 0 0 1-3.175 2.15A9.738 9.738 0 0 1 12 22zm0-1.5c2.367 0 4.375-.83 6.025-2.488C19.675 16.354 20.5 14.35 20.5 12c0-2.367-.825-4.375-2.475-6.025C16.375 4.325 14.367 3.5 12 3.5c-2.35 0-4.354.825-6.013 2.475C4.33 7.625 3.5 9.633 3.5 12c0 2.35.83 4.354 2.487 6.012C7.646 19.671 9.65 20.5 12 20.5z"/></svg>