<svg xmlns="http://www.w3.org/2000/svg" width="24" height="24" fill="none" viewBox="0 0 24 24"><path fill="#000" fill-rule="evenodd" d="M6.48 6.371c.12.008.191.015.262.015h1.86c.244 0 .425.11.518.335.09.214.057.435-.124.582a.717.717 0 0 1-.402.165c-1.115.011-2.227.011-3.343.004-.346 0-.56-.24-.564-.616-.003-.631 0-1.266 0-1.897 0-.444-.003-.89 0-1.334.004-.376.23-.628.553-.624.326.004.548.26.548.631v1.849c.218-.18.398-.335.582-.485a8.688 8.688 0 0 1 4.648-1.938c1.98-.215 3.847.165 5.549 1.198 2.434 1.48 3.9 3.64 4.324 6.47.312 2.073-.072 4.038-1.15 5.83-1.476 2.446-3.64 3.915-6.477 4.34-2.073.31-4.038-.072-5.83-1.154-2.446-1.477-3.904-3.648-4.336-6.48-.064-.407-.079-.824-.097-1.233a.52.52 0 0 1 .394-.549c.233-.063.488.02.601.23a.86.86 0 0 1 .094.375c.03 1.69.526 3.224 1.533 4.584 1.194 1.608 2.772 2.64 4.73 3.058 3.55.759 7.175-1.007 8.746-4.276.988-2.058 1.085-4.185.251-6.315-.905-2.307-2.558-3.896-4.921-4.643-2.604-.827-5.042-.406-7.24 1.247-.195.146-.375.312-.56.47-.04.033-.078.082-.15.161z" clip-rule="evenodd"/><path fill="#000" fill-rule="evenodd" d="M11.465 13.697c.357 0 .714.003 1.071 0 .35-.004.597-.24.601-.564a.579.579 0 0 0-.575-.593c-.383-.015-.762 0-1.146-.008-.864-.015-1.551-.635-1.641-1.48a1.671 1.671 0 0 1 1.277-1.811c.019-.004.038-.011.053-.015.353-.068.353-.068.353-.436 0-.075-.004-.15.004-.225a.522.522 0 0 1 .522-.489.516.516 0 0 1 .545.485c.015.154.01.312.007.47-.004.12.045.165.165.161.3-.007.601-.004.902 0 .376.004.631.233.627.552-.003.327-.255.549-.63.549h-2.086c-.394 0-.653.222-.657.563-.008.35.248.59.65.598.35.007.702 0 1.052.003.924.012 1.623.68 1.668 1.593.045.872-.594 1.62-1.492 1.725-.161.019-.218.079-.203.236.012.132.008.264 0 .395a.521.521 0 0 1-.526.507.518.518 0 0 1-.544-.503c-.012-.15-.008-.3-.004-.451.004-.12-.049-.165-.17-.162-.3.008-.6.004-.9 0-.373-.003-.628-.232-.628-.552.004-.323.255-.545.63-.548h1.075z" clip-rule="evenodd"/></svg>