<svg xmlns="http://www.w3.org/2000/svg" width="24" height="24" fill="none" viewBox="0 0 24 24"><path fill="#000" d="M7.405 20.5a2.047 2.047 0 0 1-1.492-.606 1.987 1.987 0 0 1-.615-1.47c0-.578.205-1.069.614-1.473.41-.404.907-.607 1.492-.607.164 0 .325.02.483.06.159.041.308.095.448.163l1.519-1.864a2.797 2.797 0 0 1-.659-1.148 2.872 2.872 0 0 1-.073-1.277l-2.207-.721c-.192.305-.445.55-.76.733a2.035 2.035 0 0 1-1.049.277 2.047 2.047 0 0 1-1.492-.606A1.989 1.989 0 0 1 3 10.49c0-.577.205-1.068.614-1.472.41-.405.907-.607 1.491-.607.585 0 1.083.202 1.493.606a1.99 1.99 0 0 1 .611 1.584c-.002.03-.004.06-.004.09l2.2.754a3.08 3.08 0 0 1 .87-.992 2.856 2.856 0 0 1 1.268-.532V7.6a2.09 2.09 0 0 1-1.194-.737 2.001 2.001 0 0 1-.455-1.29c0-.574.204-1.063.614-1.467.41-.405.906-.607 1.491-.607.585 0 1.082.202 1.492.606.41.404.615.895.615 1.472 0 .48-.153.909-.46 1.286a2.114 2.114 0 0 1-1.19.738V9.92a2.83 2.83 0 0 1 1.266.532c.366.276.657.607.873.992l2.2-.754a.667.667 0 0 1-.008-.094v-.108c0-.577.205-1.068.614-1.472.41-.404.907-.606 1.492-.606s1.082.202 1.492.606c.41.404.615.894.615 1.47 0 .578-.205 1.069-.614 1.473-.41.404-.907.607-1.492.607-.385 0-.736-.092-1.055-.277a2.083 2.083 0 0 1-.754-.733l-2.207.72a2.819 2.819 0 0 1-.732 2.418l1.519 1.853c.14-.063.29-.113.448-.149.158-.036.319-.055.483-.055.585 0 1.082.202 1.492.606.41.404.614.894.614 1.471 0 .577-.205 1.068-.614 1.472-.41.405-.907.607-1.491.607a2.047 2.047 0 0 1-1.493-.606 1.99 1.99 0 0 1-.615-1.472c0-.238.04-.467.118-.688.078-.22.194-.422.35-.606l-1.52-1.88a2.79 2.79 0 0 1-1.44.385 2.828 2.828 0 0 1-1.446-.384l-1.507 1.879c.15.184.265.386.346.606a2 2 0 0 1 .12.688 1.99 1.99 0 0 1-.613 1.472c-.41.404-.907.606-1.492.606zm-2.299-9.067a.93.93 0 0 0 .679-.275.904.904 0 0 0 .279-.67.904.904 0 0 0-.28-.668.93.93 0 0 0-.678-.276.93.93 0 0 0-.678.276.904.904 0 0 0-.28.669c0 .262.094.486.28.669a.93.93 0 0 0 .678.275zm2.298 7.934a.93.93 0 0 0 .679-.276.904.904 0 0 0 .279-.669.904.904 0 0 0-.28-.669.93.93 0 0 0-.678-.275.93.93 0 0 0-.678.275.904.904 0 0 0-.28.67c0 .262.094.485.28.668a.93.93 0 0 0 .678.276zM12 6.522a.93.93 0 0 0 .678-.275.904.904 0 0 0 .28-.67.904.904 0 0 0-.28-.668.93.93 0 0 0-.678-.276.93.93 0 0 0-.678.276.904.904 0 0 0-.28.669c0 .262.094.485.28.669a.93.93 0 0 0 .678.275zm0 7.977c.492 0 .91-.17 1.253-.508a1.67 1.67 0 0 0 .515-1.235 1.67 1.67 0 0 0-.515-1.236A1.717 1.717 0 0 0 12 11.012c-.492 0-.91.17-1.253.508a1.67 1.67 0 0 0-.515 1.236c0 .485.172.897.515 1.235.343.339.761.508 1.253.508zm4.596 4.868a.93.93 0 0 0 .678-.276.904.904 0 0 0 .28-.669.904.904 0 0 0-.28-.669.93.93 0 0 0-.678-.275.93.93 0 0 0-.678.275.904.904 0 0 0-.28.67.9.9 0 0 0 .28.668.93.93 0 0 0 .678.276zm2.298-7.934a.93.93 0 0 0 .678-.275.904.904 0 0 0 .28-.67.904.904 0 0 0-.28-.668.93.93 0 0 0-.678-.276.93.93 0 0 0-.679.276.904.904 0 0 0-.279.669c0 .262.093.486.28.669a.93.93 0 0 0 .678.275z"/></svg>