<svg xmlns="http://www.w3.org/2000/svg" width="32" height="32" fill="none" viewBox="0 0 32 32"><path fill="#000" d="M16 21.878l1.322-1.33-2.302-2.337h5.565v-1.895H15.02l2.302-2.337L16 12.648l-4.585 4.615L16 21.878zM7.6 28c-.625 0-1.16-.223-1.603-.67a2.207 2.207 0 0 1-.665-1.613V8.81c0-.63.222-1.168.665-1.614.443-.447.978-.67 1.603-.67h5.585a2.8 2.8 0 0 1 .912-1.789A2.697 2.697 0 0 1 16 4c.746 0 1.384.246 1.913.737.53.492.83 1.088.9 1.79h5.585c.626 0 1.16.222 1.604.669.443.446.664.984.664 1.614v16.907c0 .63-.221 1.168-.665 1.614a2.177 2.177 0 0 1-1.603.669H7.6zm0-1.895h16.797c.096 0 .185-.04.265-.121a.375.375 0 0 0 .121-.267V8.81a.373.373 0 0 0-.12-.268.368.368 0 0 0-.266-.121H7.6a.368.368 0 0 0-.265.121.373.373 0 0 0-.12.268v16.907c0 .097.04.186.12.267a.37.37 0 0 0 .265.121zM16 7.595c.272 0 .496-.09.674-.268a.923.923 0 0 0 .267-.68.92.92 0 0 0-.267-.678A.911.911 0 0 0 16 5.7a.91.91 0 0 0-.675.269.923.923 0 0 0-.266.679.91.91 0 0 0 .941.947z"/></svg>