<svg xmlns="http://www.w3.org/2000/svg" width="32" height="32" fill="none" viewBox="0 0 32 32"><path fill="#000" d="M7.077 27.333a2.322 2.322 0 0 1-1.704-.706 2.322 2.322 0 0 1-.706-1.704V7.077c0-.665.235-1.233.706-1.704a2.322 2.322 0 0 1 1.704-.706h5.934c.083-.74.406-1.37.969-1.889A2.879 2.879 0 0 1 16 2c.793 0 1.471.26 2.034.778a2.9 2.9 0 0 1 .956 1.889h5.933c.665 0 1.233.235 1.704.706.471.471.707 1.039.707 1.704v17.846c0 .665-.236 1.233-.707 1.704a2.322 2.322 0 0 1-1.704.706H7.077zm0-2h17.846a.392.392 0 0 0 .282-.128.392.392 0 0 0 .129-.282V7.077a.392.392 0 0 0-.129-.282.392.392 0 0 0-.282-.128H7.077a.392.392 0 0 0-.282.128.392.392 0 0 0-.128.282v17.846c0 .103.043.197.128.282.086.086.18.128.282.128zm2.59-3.154h8.667v-2H9.667v2zm0-5.18h12.667V15H9.667v2zm0-5.178h12.667v-2H9.667v2zM16 5.794a.971.971 0 0 0 .717-.284.972.972 0 0 0 .283-.716.972.972 0 0 0-.283-.717.971.971 0 0 0-.717-.283.971.971 0 0 0-.716.283.971.971 0 0 0-.284.717.971.971 0 0 0 1 1z"/></svg>