<svg xmlns="http://www.w3.org/2000/svg" width="40" height="40" fill="none" viewBox="0 0 40 40"><path fill="#000" d="M25.838 36.403V28.37h.144c2.73-.137 5.054-1.152 6.973-3.047 1.919-1.894 2.878-4.201 2.878-6.922 0-2.792-.968-5.153-2.904-7.083-1.936-1.93-4.3-2.896-7.09-2.896h-2.263l3.056-3.082-1.755-1.756L18.79 9.67l6.087 6.087L26.633 14l-3.057-3.082h2.262c2.082 0 3.852.727 5.31 2.179 1.457 1.452 2.186 3.22 2.186 5.302 0 2.114-.774 3.892-2.322 5.334-1.549 1.441-3.396 2.162-5.542 2.162h-2.13v4.472l-4.457-4.472h-4.706c-2.082 0-3.855-.729-5.318-2.187-1.463-1.457-2.194-3.227-2.194-5.31 0-2.082.731-3.852 2.194-5.31 1.463-1.457 3.236-2.186 5.318-2.186h.673V8.405h-.673c-2.791 0-5.157.968-7.099 2.904-1.941 1.936-2.912 4.3-2.912 7.09 0 2.792.971 5.156 2.912 7.092 1.942 1.936 4.308 2.904 7.1 2.904h3.651l8.009 8.008z"/></svg>