<svg xmlns="http://www.w3.org/2000/svg" width="20" height="20" fill="none" viewBox="0 0 20 20"><path fill="#000" d="M4.792 17.756c-.421 0-.778-.145-1.07-.437a1.454 1.454 0 0 1-.437-1.069V5.673h1.25V16.25c0 .064.027.123.08.176.054.054.112.08.177.08h8.076v1.25H4.792zm2.916-2.916c-.42 0-.777-.146-1.069-.438a1.454 1.454 0 0 1-.437-1.069V3.846c0-.42.146-.777.437-1.069a1.454 1.454 0 0 1 1.07-.437h6.986c.421 0 .778.146 1.07.437.29.292.437.648.437 1.07v9.486c0 .421-.146.778-.438 1.07a1.454 1.454 0 0 1-1.069.437H7.708zm0-1.25h6.987a.245.245 0 0 0 .177-.08.245.245 0 0 0 .08-.177V3.846a.245.245 0 0 0-.08-.176.245.245 0 0 0-.177-.08H7.708a.245.245 0 0 0-.176.08.245.245 0 0 0-.08.176v9.487c0 .065.026.123.08.177.053.053.112.08.176.08z"/></svg>