<svg xmlns="http://www.w3.org/2000/svg" width="20" height="20" fill="none" viewBox="0 0 20 20"><g clip-path="url(#a)"><path fill="#000" d="M10.208 17.292v-1.483l4.353-4.352 1.482 1.482-4.353 4.353h-1.482zm-7.5-4.167v-1.25h5.833v1.25H2.708zm13.918-.77l-1.482-1.481.604-.605a.598.598 0 0 1 .44-.18c.171 0 .318.06.438.18l.604.605c.121.12.181.267.181.439s-.06.318-.18.439l-.605.604zM2.708 9.793v-1.25h9.167v1.25H2.708zm0-3.334v-1.25h9.167v1.25H2.708z"/></g><defs><clipPath id="a"><path fill="#fff" d="M0 0h20v20H0z"/></clipPath></defs></svg>