<svg xmlns="http://www.w3.org/2000/svg" width="20" height="20" fill="none" viewBox="0 0 20 20"><path fill="#000" d="M4.423 15.833h11.154a.25.25 0 0 0 .184-.072.25.25 0 0 0 .073-.184V8.099L11.9 4.166H4.423a.25.25 0 0 0-.184.073.25.25 0 0 0-.072.184v11.154a.25.25 0 0 0 .072.184.25.25 0 0 0 .184.072zm0 1.25a1.45 1.45 0 0 1-1.064-.441 1.451 1.451 0 0 1-.442-1.065V4.423c0-.416.147-.77.442-1.065a1.451 1.451 0 0 1 1.064-.442h7.99l4.67 4.672v7.989c0 .415-.147.77-.44 1.065a1.45 1.45 0 0 1-1.066.441H4.423zm1.619-3.333h7.917V12.5H6.042v1.25zm0-3.125h7.917v-1.25H6.042v1.25zm0-3.125h5.304V6.25H6.042V7.5z"/></svg>