<svg xmlns="http://www.w3.org/2000/svg" width="24" height="24" fill="none" viewBox="0 0 24 24"><path fill="#000" d="M12.452 21v-2.503l5.211-5.12a1.144 1.144 0 0 1 .802-.32 1.179 1.179 0 0 1 .822.335l.888.885c.104.118.183.246.24.383.057.137.085.274.085.412 0 .137-.026.277-.078.419a1.104 1.104 0 0 1-.247.39L14.988 21h-2.536zm1.145-1.13h.912l3.115-3.09-.432-.459-.456-.435-3.14 3.084v.9zM5.235 21c-.485 0-.895-.166-1.231-.497a1.642 1.642 0 0 1-.504-1.216V4.713c0-.479.168-.884.504-1.216A1.686 1.686 0 0 1 5.235 3h7.623l5.04 4.974v2.65h-1.44v-1.94h-4.32V4.421H5.236a.284.284 0 0 0-.203.091.277.277 0 0 0-.092.2v14.575c0 .073.03.14.092.2.062.062.13.092.203.092h5.113V21H5.235zm11.957-4.679l-.456-.435.888.895-.432-.46z"/></svg>