<svg xmlns="http://www.w3.org/2000/svg" width="24" height="24" fill="none" viewBox="0 0 24 24"><path fill="#000" fill-rule="evenodd" d="M7.238 1.36c-.883.05-1.661.191-2.358.428-.419.142-1.039.466-1.254.655-.338.298-.309-.694-.297 10.143l.011 9.647.124.153c.318.393.863.361 1.114-.066.081-.138.082-.192.093-3.572l.011-3.432.258-.116c.779-.349 1.748-.52 2.948-.52 1.145.001 2.027.206 3.62.844 1.58.632 2.501.919 3.392 1.058.532.083 1.803.095 2.4.022 1.284-.157 2.314-.496 2.968-.978.436-.322.392.429.392-6.626 0-6.108-.001-6.182-.08-6.316a.657.657 0 0 0-.433-.322c-.211-.048-.385.004-.694.208-.784.517-2.059.782-3.563.74-1.158-.033-1.682-.166-3.61-.919a42.704 42.704 0 0 0-1.54-.571c-1.18-.393-2.235-.531-3.502-.46M8.9 2.74c.725.109 1.517.347 2.608.784 2.26.904 3.168 1.126 4.612 1.128 1.078.001 2.104-.14 2.837-.391a3.47 3.47 0 0 1 .33-.101c.018 0 .033 2.365.033 5.256v5.255l-.19.09c-.856.404-1.928.585-3.24.549-1.143-.032-1.692-.17-3.51-.88-1.617-.631-2.21-.821-3.02-.968-.858-.156-2.203-.149-3.213.016-.397.065-.959.205-1.397.348-.066.022-.07-.245-.07-5.243V3.317l.259-.117c.523-.234 1.154-.392 1.901-.476.514-.058 1.626-.049 2.06.016"/></svg>