<svg xmlns="http://www.w3.org/2000/svg" width="40" height="40" fill="none" viewBox="0 0 40 40"><path fill="#000" d="M7.342 33.333c-.683 0-1.26-.235-1.73-.706-.47-.47-.706-1.047-.706-1.73V9.102c0-.682.236-1.259.706-1.73.47-.47 1.047-.705 1.73-.705h25.316c.683 0 1.26.235 1.73.705.471.471.706 1.048.706 1.73v21.795c0 .683-.235 1.26-.706 1.73-.47.47-1.047.706-1.73.706H7.342zm0-1.41h25.316c.257 0 .492-.107.706-.32.213-.214.32-.45.32-.706V9.102c0-.256-.107-.491-.32-.705-.214-.213-.45-.32-.706-.32H7.342c-.256 0-.491.107-.705.32-.214.214-.32.449-.32.705v21.795c0 .257.106.492.32.705.214.214.449.32.705.32zM9.167 27.5h6.667v-1.667H9.167V27.5zm15.083-3.686l7.064-7.064-1.189-1.19-5.875 5.917-2.375-2.375-1.147 1.19 3.522 3.522zm-15.083-2.98h6.667v-1.668H9.167v1.667zm0-6.668h6.667V12.5H9.167v1.666z"/></svg>