<svg xmlns="http://www.w3.org/2000/svg" width="20" height="20" fill="none" viewBox="0 0 20 20"><path fill="#000" d="M7.5 16.346c-.37 0-.687-.132-.95-.395A1.296 1.296 0 0 1 6.154 15c0-.37.132-.687.396-.95.263-.264.58-.396.95-.396s.688.132.951.395c.264.264.396.58.396.95 0 .371-.132.688-.396.952-.263.263-.58.395-.95.395zm5 0c-.37 0-.687-.132-.95-.395a1.296 1.296 0 0 1-.396-.951c0-.37.132-.687.396-.95.263-.264.58-.396.95-.396s.688.132.951.395c.264.264.396.58.396.95 0 .371-.132.688-.396.952-.264.263-.58.395-.95.395zm-5-5c-.37 0-.687-.132-.95-.395A1.296 1.296 0 0 1 6.154 10c0-.37.132-.687.396-.95.263-.264.58-.396.95-.396s.688.132.951.395c.264.264.396.58.396.95 0 .371-.132.688-.396.952-.263.263-.58.395-.95.395zm5 0c-.37 0-.687-.132-.95-.395a1.296 1.296 0 0 1-.396-.951c0-.37.132-.687.396-.95.263-.264.58-.396.95-.396s.688.132.951.395c.264.264.396.58.396.95 0 .371-.132.688-.396.952-.264.263-.58.395-.95.395zm-5-5c-.37 0-.687-.132-.95-.395A1.296 1.296 0 0 1 6.154 5c0-.37.132-.687.396-.95.263-.264.58-.396.95-.396s.688.132.951.395c.264.264.396.58.396.95 0 .371-.132.688-.396.952-.263.263-.58.395-.95.395zm5 0c-.37 0-.687-.132-.95-.395A1.296 1.296 0 0 1 11.154 5c0-.37.132-.687.396-.95.263-.264.58-.396.95-.396s.688.132.951.395c.264.264.396.58.396.95 0 .371-.132.688-.396.952-.264.263-.58.395-.95.395z"/></svg>