<svg xmlns="http://www.w3.org/2000/svg" width="40" height="40" fill="none" viewBox="0 0 40 40"><path fill="#000" d="M9.103 33.333c-.683 0-1.26-.235-1.73-.706-.47-.47-.706-1.047-.706-1.73V9.102c0-.682.235-1.259.706-1.73.47-.47 1.047-.705 1.73-.705h21.795c.683 0 1.26.235 1.73.705.47.471.706 1.048.706 1.73v21.795c0 .683-.236 1.26-.706 1.73s-1.047.706-1.73.706H9.103zm0-1.41h21.795c.256 0 .491-.107.705-.32.214-.214.32-.45.32-.706V9.102c0-.256-.106-.491-.32-.705-.214-.213-.449-.32-.705-.32H9.103c-.257 0-.492.107-.705.32-.214.214-.32.449-.32.705v21.795c0 .257.106.492.32.705.213.214.448.32.705.32zm3.35-4.382h15.378l-4.692-6.236-4.5 5.648-2.957-3.613-3.229 4.2zm1.719-11.836c.425 0 .787-.15 1.085-.453.3-.302.449-.665.449-1.09 0-.425-.151-.787-.453-1.086a1.494 1.494 0 0 0-1.09-.448c-.426 0-.787.15-1.086.453a1.494 1.494 0 0 0-.448 1.09c0 .425.15.787.452 1.086.302.299.665.448 1.09.448z"/></svg>