<svg xmlns="http://www.w3.org/2000/svg" width="24" height="24" fill="none" viewBox="0 0 24 24"><path fill="#000" d="M10.808 16.538H7c-1.255 0-2.326-.442-3.21-1.327-.886-.885-1.328-1.955-1.328-3.21 0-1.256.442-2.326 1.327-3.212C4.674 7.904 5.745 7.461 7 7.461h3.808v1.5H7c-.84 0-1.556.297-2.149.89A2.928 2.928 0 0 0 3.961 12c0 .84.297 1.556.89 2.149s1.31.89 2.15.89h3.807v1.5zM8.25 12.75v-1.5h7.5v1.5h-7.5zm4.943 3.788v-1.5H17c.84 0 1.556-.296 2.15-.89A2.927 2.927 0 0 0 20.039 12c0-.84-.297-1.556-.89-2.15A2.928 2.928 0 0 0 17 8.962h-3.807v-1.5H17c1.256 0 2.326.443 3.211 1.328.885.885 1.328 1.955 1.328 3.21 0 1.256-.443 2.326-1.328 3.211-.885.886-1.955 1.328-3.21 1.328h-3.808z"/></svg>