<svg xmlns="http://www.w3.org/2000/svg" width="24" height="24" fill="none" viewBox="0 0 24 24"><path fill="#000" fill-rule="evenodd" d="M11.34 1.361c-3.581.259-6.673 2.766-7.667 6.218-.764 2.651-.278 5.751 1.332 8.487 1.264 2.148 3.348 4.3 5.755 5.94.88.599 1.123.705 1.417.617.326-.098 1.441-.855 2.429-1.648 2.116-1.699 3.791-3.684 4.78-5.665.785-1.569 1.153-2.924 1.254-4.606.1-1.672-.164-3.05-.861-4.496-1.533-3.18-4.884-5.105-8.439-4.847m2.123 1.455c2.393.505 4.32 2.085 5.277 4.327a7.2 7.2 0 0 1 .468 1.548c.079.391.091.573.091 1.409.001.728-.017 1.071-.071 1.42-.312 1.999-1.189 3.864-2.669 5.677-1.086 1.33-2.573 2.675-4.13 3.736-.215.147-.409.267-.432.267-.121 0-1.546-1.047-2.317-1.703-.598-.509-1.646-1.561-2.101-2.111-.827-.998-1.376-1.838-1.876-2.871-.362-.749-.545-1.237-.724-1.935-.248-.969-.279-1.241-.278-2.46 0-1.044.006-1.126.109-1.604.588-2.738 2.625-4.897 5.279-5.593.248-.065.586-.137.751-.16l.4-.06c.055-.01.469-.011.92-.003.69.012.897.03 1.303.116M11.4 6.388c-.774.13-1.614.591-2.123 1.166a3.665 3.665 0 0 0 .08 4.98 3.661 3.661 0 0 0 6.138-3.626 3.66 3.66 0 0 0-2.743-2.485c-.286-.058-1.089-.079-1.352-.035m1.156 1.353c.72.17 1.357.734 1.629 1.444.14.364.176.99.079 1.375a2.388 2.388 0 0 1-1.666 1.701c-.28.075-.916.075-1.196 0a2.375 2.375 0 0 1-1.588-1.45c-.195-.516-.169-1.253.063-1.776.271-.609.903-1.135 1.554-1.293a2.897 2.897 0 0 1 1.125-.001"/></svg>