<svg xmlns="http://www.w3.org/2000/svg" width="40" height="40" fill="none" viewBox="0 0 40 40"><path fill="#000" d="M20 28.556c3.063-2.422 5.377-4.745 6.944-6.97 1.567-2.225 2.35-4.38 2.35-6.464 0-1.739-.316-3.215-.95-4.43-.635-1.214-1.42-2.2-2.356-2.955a9.218 9.218 0 0 0-3.024-1.647c-1.08-.342-2.067-.513-2.962-.513s-1.883.17-2.964.513a9.216 9.216 0 0 0-3.026 1.647c-.936.756-1.721 1.74-2.356 2.956-.634 1.214-.95 2.69-.95 4.429 0 2.084.783 4.24 2.35 6.464 1.567 2.225 3.882 4.549 6.944 6.97zm0 1.794c-3.608-2.72-6.294-5.343-8.058-7.866-1.765-2.524-2.647-4.979-2.647-7.365 0-1.802.322-3.383.965-4.742.644-1.36 1.476-2.502 2.498-3.426a10.392 10.392 0 0 1 3.454-2.086c1.282-.466 2.545-.699 3.788-.699 1.242 0 2.505.233 3.787.7a10.39 10.39 0 0 1 3.456 2.085c1.021.924 1.853 2.066 2.497 3.426.643 1.36.965 2.943.965 4.748 0 2.39-.882 4.844-2.647 7.364-1.764 2.52-4.45 5.14-8.058 7.861zm.004-13.107c.67 0 1.23-.228 1.686-.686.454-.457.682-1.02.682-1.69 0-.668-.229-1.23-.686-1.685-.458-.455-1.021-.682-1.69-.682s-1.23.229-1.686.686c-.454.458-.682 1.02-.682 1.69 0 .669.229 1.23.687 1.685.457.455 1.02.682 1.69.682zm-10.71 18.59v-1.41h21.411v1.41H9.295z"/></svg>