<svg xmlns="http://www.w3.org/2000/svg" width="40" height="40" fill="none" viewBox="0 0 40 40"><path fill="#000" d="M11.86 29.226c-.419 0-.769-.142-1.051-.424a1.427 1.427 0 0 1-.424-1.05v-2.5H31.01l.528.528V10.7h2.5c.418 0 .768.141 1.05.424.283.282.425.633.425 1.05v22.949l-5.898-5.897H11.86zm-7.373-1.41V6.34c0-.418.142-.768.424-1.05a1.427 1.427 0 0 1 1.05-.424h20.77c.418 0 .768.141 1.05.424.283.282.424.632.424 1.05v14.103c0 .417-.141.768-.424 1.05a1.427 1.427 0 0 1-1.05.424H10.385l-5.898 5.897zm21.218-8.398V7.367H6.987v13.205l1.154-1.154h17.564z"/></svg>