<svg xmlns="http://www.w3.org/2000/svg" width="40" height="40" fill="none" viewBox="0 0 40 40"><path fill="#000" d="M10.417 23.3h12.5v-2.5h-12.5v2.5zm0-5h19.167v-2.5H10.417v2.5zm0-5h19.167v-2.5H10.417v2.5zm-6.25 22.147V7.563c0-.842.292-1.555.875-2.138.583-.584 1.296-.875 2.138-.875h25.64c.843 0 1.555.291 2.139.875.583.583.875 1.296.875 2.138v18.974c0 .842-.292 1.554-.875 2.138-.584.583-1.296.875-2.138.875H10.064l-5.897 5.897zM9 27.05h23.82a.49.49 0 0 0 .353-.16.49.49 0 0 0 .16-.353V7.563a.49.49 0 0 0-.16-.353.49.49 0 0 0-.352-.16H7.18a.49.49 0 0 0-.353.16.49.49 0 0 0-.16.353v21.794L9 27.05z"/></svg>