<svg xmlns="http://www.w3.org/2000/svg" width="20" height="20" fill="none" viewBox="0 0 20 20"><path fill="#000" d="M10 16.667c-.459 0-.85-.163-1.177-.49A1.606 1.606 0 0 1 8.333 15c0-.458.163-.85.49-1.177.326-.326.718-.49 1.177-.49.458 0 .85.164 1.177.49.326.326.49.719.49 1.177 0 .459-.164.851-.49 1.178a1.606 1.606 0 0 1-1.177.489zm0-5c-.459 0-.85-.163-1.177-.49A1.603 1.603 0 0 1 8.333 10c0-.458.163-.85.49-1.177.326-.326.718-.49 1.177-.49.458 0 .85.164 1.177.49.326.326.49.719.49 1.177 0 .459-.164.85-.49 1.177-.326.327-.719.49-1.177.49zm0-5c-.459 0-.85-.163-1.177-.49A1.603 1.603 0 0 1 8.333 5c0-.458.163-.85.49-1.176.326-.327.718-.49 1.177-.49.458 0 .85.163 1.177.49.326.326.49.718.49 1.176 0 .458-.164.85-.49 1.177-.326.327-.719.49-1.177.49z"/></svg>