<svg xmlns="http://www.w3.org/2000/svg" width="24" height="24" fill="none" viewBox="0 0 24 24"><path fill="#000" d="M3.5 21.5v-1.192H6V19.25H4.5v-1.192H6V17H3.5v-1.192h2.846c.24 0 .44.08.603.243a.819.819 0 0 1 .243.603v1.192c0 .24-.08.44-.243.603a.819.819 0 0 1-.603.243c.24 0 .44.081.603.244a.819.819 0 0 1 .243.602v1.116c0 .24-.08.44-.243.603a.819.819 0 0 1-.603.243H3.5zm0-6.654V12.25c0-.24.081-.44.243-.603a.819.819 0 0 1 .603-.243H6v-1.058H3.5V9.154h2.846c.24 0 .44.08.603.243a.819.819 0 0 1 .243.603v1.75c0 .24-.08.44-.243.603a.819.819 0 0 1-.603.243H4.692v1.058h2.5v1.192H3.5zM5 8.192v-4.5H3.5V2.5h2.692v5.692H5zM9.308 18.75v-1.5H20.5v1.5H9.308zm0-6v-1.5H20.5v1.5H9.308zm0-6v-1.5H20.5v1.5H9.308z"/></svg>