<svg xmlns="http://www.w3.org/2000/svg" width="24" height="24" fill="none" viewBox="0 0 24 24"><path fill="#000" fill-rule="evenodd" d="M12.872 3l.78.076c.795.079 1.56.27 2.264.659.743.41 1.241 1.03 1.564 1.798a.383.383 0 0 0 .19.187c1.143.454 1.89 1.258 2.205 2.425.201.746.132 1.502-.015 2.248-.175.876-.45 1.715-.926 2.486-.66 1.063-1.594 1.784-2.777 2.202-.926.327-1.886.417-2.86.421-.421 0-.843.007-1.264-.004-.19-.003-.274.076-.304.256-.263 1.704-.534 3.405-.802 5.106l-.026.14H7.404c-.78 0-1.216-.508-1.096-1.268.052-.317.096-.638.147-.98-.084-.004-.147-.011-.212-.011H5.089c-.736.004-1.18-.472-1.073-1.189.186-1.275.395-2.547.593-3.823l.802-5.14c.227-1.417.458-2.833.674-4.249.059-.37.15-.717.436-.987.212-.198.476-.28.747-.353h5.604zM5.14 17.617c.044.01.066.021.092.021.769 0 1.538 0 2.307.004.121 0 .132-.068.147-.158l.659-4.216c.102-.66.623-1.102 1.3-1.113.311-.004.623-.004.934 0 .813.01 1.623-.014 2.414-.22.967-.248 1.798-.71 2.41-1.506.817-1.066 1.154-2.295 1.168-3.606.015-1.117-.619-1.957-1.68-2.35-.715-.262-1.459-.349-2.21-.353-1.728-.007-3.453-.003-5.182-.007-.176 0-.25.069-.275.238-.15.966-.308 1.931-.461 2.9l-1.462 9.3c-.055.353-.106.706-.16 1.066zm2.282 2.27c.088.003.14.007.194.007.707 0 1.417-.007 2.124.004.169.003.216-.055.238-.21.213-1.38.433-2.76.649-4.143.12-.778.725-1.16 1.362-1.153.447.004.89 0 1.337 0 .685 0 1.366-.05 2.03-.23.922-.253 1.72-.706 2.314-1.463.828-1.06 1.154-2.288 1.201-3.6a2.252 2.252 0 0 0-.575-1.628c-.16-.18-.355-.331-.564-.522-.018.09-.029.115-.033.144-.08.522-.132 1.048-.252 1.56-.227.984-.638 1.888-1.312 2.662-1.022 1.171-2.362 1.712-3.878 1.86-.81.079-1.634.057-2.45.075-.316.007-.33.011-.374.31-.213 1.344-.418 2.691-.63 4.035-.059.379-.125.753-.187 1.142-.304 0-.59-.003-.875.004-.052.004-.14.058-.147.1-.066.35-.113.689-.172 1.046z" clip-rule="evenodd"/></svg>