<svg xmlns="http://www.w3.org/2000/svg" width="24" height="24" fill="none" viewBox="0 0 24 24"><path fill="#000" fill-rule="evenodd" d="M3 7.165a4.155 4.155 0 0 0 4.171 4.166 4.138 4.138 0 0 0 4.172-4.157A4.16 4.16 0 0 0 7.18 3C4.863 3.008 3 4.864 3 7.165zm7.355.017a3.16 3.16 0 0 1-3.167 3.16 3.16 3.16 0 0 1-3.192-3.136c-.016-1.767 1.41-3.225 3.16-3.234 1.749-.008 3.199 1.451 3.199 3.21zm6.441 5.479c-2.308.016-4.13 1.84-4.13 4.141 0 2.334 1.822 4.198 4.13 4.198A4.194 4.194 0 0 0 21 16.85c.032-2.3-1.871-4.205-4.204-4.19zm.024 7.35a3.16 3.16 0 0 1-3.167-3.209 3.153 3.153 0 0 1 3.167-3.152c1.758 0 3.216 1.474 3.192 3.209a3.206 3.206 0 0 1-3.192 3.152zm-9.332-.406c-.575-.024-.762-.421-.519-.81.422-.673.859-1.337 1.296-2.002l3.84-5.867v-.001l3.84-5.866c.088-.138.177-.276.275-.414.178-.25.42-.34.688-.17.292.187.308.446.122.73-.3.458-.598.917-.896 1.377-.297.46-.595.92-.895 1.378a4929.767 4929.767 0 0 1-7.273 11.103c-.11.177-.262.327-.378.442-.038.037-.072.07-.1.1zm8.856-3.793l-.002.512c-.502 0-.931 0-1.36.008-.333 0-.608.122-.608.502 0 .381.267.495.607.495h1.353l.002.472c.002.282.004.54-.002.8-.008.349.049.665.462.68.445.009.526-.323.526-.688v-1.272h1.264c.34 0 .656-.04.664-.478.008-.454-.316-.519-.68-.519h-1.248c0-.184.002-.355.004-.52.004-.306.007-.586-.004-.866-.008-.308-.145-.559-.502-.55-.348 0-.486.226-.478.558.006.28.004.561.002.866z" clip-rule="evenodd"/></svg>