<svg xmlns="http://www.w3.org/2000/svg" width="20" height="20" fill="none" viewBox="0 0 20 20"><path fill="#000" d="M9.375 16.308v-5.949L4.167 7.343v5.805c0 .042.01.082.032.12.021.037.053.07.096.096l5.08 2.944zm1.25 0l5.08-2.944a.276.276 0 0 0 .097-.096.238.238 0 0 0 .032-.12V7.343l-5.209 3.016v5.949zM10 9.282l5.146-2.974-5.018-2.902a.24.24 0 0 0-.128-.04.24.24 0 0 0-.128.04L4.854 6.308 10 9.282zm-6.33 5.18a1.483 1.483 0 0 1-.753-1.302V6.84a1.475 1.475 0 0 1 .753-1.301l5.577-3.21a1.485 1.485 0 0 1 1.507 0l5.576 3.21a1.484 1.484 0 0 1 .754 1.3v6.321a1.475 1.475 0 0 1-.754 1.302l-5.576 3.21a1.484 1.484 0 0 1-1.507 0l-5.577-3.21z"/></svg>