<svg xmlns="http://www.w3.org/2000/svg" width="40" height="40" fill="none" viewBox="0 0 40 40"><path fill="#000" d="M34.956 11.095a.736.736 0 0 0-.35-.499L24.445 5.074a.732.732 0 0 0-.838.143l-3.632 3.99-3.632-3.99a.732.732 0 0 0-.838-.143L5.377 10.596a.736.736 0 0 0-.35.499c-.035.214.035.427.14.606l3.422 4.06-3.422 4.062c-.14.178-.21.392-.14.606a.736.736 0 0 0 .35.499l3.457 1.924v5.557a.8.8 0 0 0 .35.642l10.476 5.842c.035.036.07.036.105.036.035 0 .035 0 .07.035.07 0 .104.036.174.036.07 0 .105 0 .175-.036.035 0 .035 0 .07-.035.034 0 .07-.036.104-.036l10.477-5.843a.752.752 0 0 0 .35-.64v-5.558l3.457-1.924a.736.736 0 0 0 .349-.499c.035-.214-.035-.428-.14-.606l-3.422-4.061L34.85 11.7c.07-.179.14-.392.105-.606zm-28.182.32l8.905-4.845 3.143 3.456-9.15 4.845-2.898-3.455zm2.898 10.297l-2.898-1.64 2.898-3.42 9.115 5.095-3.353 3.17-5.448-3.063a1.212 1.212 0 0 0-.314-.142zm9.604 11.293l-9.08-5.059v-4.31l4.994 2.778c.105.071.21.071.35.071.174 0 .348-.07.488-.178l3.283-3.1v9.798h-.035zm10.477-5.059l-9.08 5.059v-9.797l3.282 3.1c.14.142.315.177.49.177.104 0 .244-.035.349-.07l4.959-2.78v4.311zm3.422-7.873l-8.66 4.845-3.353-3.17 9.114-5.095 2.899 3.42zm-2.899-5.202l-9.15-4.81 3.144-3.455 8.905 4.81-2.899 3.455z"/></svg>