<svg xmlns="http://www.w3.org/2000/svg" width="40" height="40" fill="none" viewBox="0 0 40 40"><path fill="#000" d="M34.848 30.26v-8.208a.127.127 0 0 0-.013-.057.641.641 0 0 0-.306-.499l-6.79-3.915V9.743c0-.23-.122-.44-.32-.556l-7.103-4.1a.634.634 0 0 0-.639 0l-7.103 4.107c-.013.006-.006.012-.013.025a.629.629 0 0 0-.306.53v7.838l-6.79 3.916a.7.7 0 0 0-.282.345c-.032.07-.032.172-.032.217v8.195c0 .23.122.441.32.556l7.11 4.101a.592.592 0 0 0 .447.064h.019c.019-.007.038-.02.063-.026.032-.012.064-.019.09-.038l6.797-3.922 6.79 3.916c.095.057.21.083.319.083a.628.628 0 0 0 .32-.083l7.103-4.101a.638.638 0 0 0 .319-.55zm-8.38-12.68l-5.833 3.367v-6.733l5.832-3.366v6.733zM19.996 6.384l5.831 3.366-5.831 3.36-5.832-3.366 5.832-3.36zm-6.465 4.471l5.826 3.36v6.733l-5.832-3.366v-6.727h.006zm-1.277 22.402L6.423 29.89v-6.733l5.832 3.366v6.733zm.638-7.838L7.06 22.053l3.884-2.242 1.942-1.124 5.832 3.366-5.826 3.366zm.64 1.105l5.825-3.366v6.733l-5.832 3.366v-6.733h.006zm12.934 6.733l-5.832-3.366v-6.733l5.832 3.366v6.733zm.639-7.838l-5.832-3.366 5.832-3.366 5.826 3.366-5.826 3.366zm6.464 4.472l-5.825 3.366v-6.733l5.825-3.366v6.733z"/></svg>