<svg xmlns="http://www.w3.org/2000/svg" width="24" height="24" fill="none" viewBox="0 0 24 24"><path fill="#000" d="M8.32 21H4.484a1.43 1.43 0 0 1-1.05-.434A1.43 1.43 0 0 1 3 19.516V15.68a2.918 2.918 0 0 0 1.745-.845c.486-.48.729-1.064.729-1.75 0-.687-.243-1.27-.73-1.751A2.918 2.918 0 0 0 3 10.489V6.653c0-.41.145-.76.434-1.05.29-.29.64-.434 1.05-.434h3.958a2.47 2.47 0 0 1 .827-1.556A2.405 2.405 0 0 1 10.915 3c.636 0 1.185.204 1.647.613.463.408.738.927.827 1.556h3.958c.41 0 .76.145 1.05.434.29.29.434.64.434 1.05v3.958a2.47 2.47 0 0 1 1.556.827c.409.462.613 1.011.613 1.647a2.4 2.4 0 0 1-.613 1.646 2.47 2.47 0 0 1-1.556.827v3.958c0 .41-.145.761-.434 1.05-.29.29-.64.434-1.05.434H13.51c-.089-.71-.379-1.3-.87-1.77a2.417 2.417 0 0 0-1.726-.704c-.66 0-1.234.235-1.725.704-.491.47-.781 1.06-.87 1.77zm-3.836-1.484h2.683c.339-.873.874-1.503 1.605-1.891.731-.389 1.446-.583 2.143-.583.698 0 1.413.194 2.144.583.731.388 1.266 1.018 1.605 1.89h2.683v-5.384h1.217c.304-.038.538-.16.704-.367.165-.207.248-.433.248-.68 0-.245-.083-.472-.248-.679-.166-.207-.4-.329-.704-.367h-1.217V6.653h-5.385V5.436c-.038-.304-.16-.538-.367-.704a1.064 1.064 0 0 0-.68-.248c-.246 0-.472.083-.679.248-.207.166-.329.4-.367.704v1.217H4.484v2.71a3.9 3.9 0 0 1 1.8 1.481c.45.677.674 1.424.674 2.24 0 .807-.225 1.55-.674 2.226a4.001 4.001 0 0 1-1.8 1.496v2.71z"/></svg>