<svg xmlns="http://www.w3.org/2000/svg" width="20" height="20" fill="none" viewBox="0 0 20 20"><path fill="#000" d="M17.084 6.01v9.567c0 .42-.146.777-.438 1.069a1.454 1.454 0 0 1-1.069.437H4.423c-.42 0-.777-.146-1.069-.437a1.454 1.454 0 0 1-.437-1.07V4.424c0-.421.146-.777.437-1.069a1.454 1.454 0 0 1 1.07-.438h9.567l3.093 3.093zm-1.25.531l-2.375-2.375H4.423a.25.25 0 0 0-.184.073.25.25 0 0 0-.072.184v11.154a.25.25 0 0 0 .072.184.25.25 0 0 0 .184.072h11.154a.25.25 0 0 0 .184-.072.25.25 0 0 0 .073-.184V6.54zM10 14.391c.577 0 1.069-.203 1.475-.61.406-.405.609-.897.609-1.474 0-.576-.203-1.068-.61-1.474A2.008 2.008 0 0 0 10 10.224c-.577 0-1.068.203-1.474.61a2.008 2.008 0 0 0-.609 1.473c0 .577.203 1.069.609 1.475.406.406.897.609 1.474.609zM5.32 8.237h6.844V5.32H5.32v2.917zM4.168 6.541v9.292V4.166v2.375z"/></svg>