<svg xmlns="http://www.w3.org/2000/svg" width="16" height="16" fill="none" viewBox="0 0 16 16"><path fill="#000" d="M13.267 13.983L8.883 9.6a3.673 3.673 0 0 1-1.166.675 4.125 4.125 0 0 1-1.417.242c-1.2 0-2.217-.417-3.05-1.25C2.417 8.433 2 7.427 2 6.25c0-1.178.417-2.183 1.25-3.017.833-.833 1.844-1.25 3.033-1.25 1.178 0 2.18.417 3.009 1.25.827.834 1.241 1.84 1.241 3.017A4.156 4.156 0 0 1 9.6 8.883L14 13.25l-.733.733zM6.283 9.517c.9 0 1.667-.32 2.3-.959a3.16 3.16 0 0 0 .95-2.308c0-.9-.316-1.67-.95-2.308a3.119 3.119 0 0 0-2.3-.959c-.91 0-1.686.32-2.325.959A3.146 3.146 0 0 0 3 6.25c0 .9.32 1.67.958 2.308a3.166 3.166 0 0 0 2.325.959z"/></svg>