<svg xmlns="http://www.w3.org/2000/svg" width="40" height="40" fill="none" viewBox="0 0 40 40"><path fill="#000" fill-rule="evenodd" d="M6.607 7.143h26.786A1.607 1.607 0 0 1 35 8.75v22.5a1.607 1.607 0 0 1-1.607 1.607H6.607A1.607 1.607 0 0 1 5 31.25V8.75a1.607 1.607 0 0 1 1.607-1.607zM32.62 9.376a.536.536 0 1 0-.595.89.536.536 0 0 0 .595-.89zm-2.143 0a.536.536 0 1 0-.595.89.536.536 0 0 0 .595-.89zm-2.143 0a.535.535 0 1 0-.595.89.535.535 0 0 0 .595-.89zm5.439 22.253c.1-.1.157-.237.157-.38V12.5H6.07v18.75a.536.536 0 0 0 .536.536h26.786a.536.536 0 0 0 .379-.157zM23.135 17.512a3.75 3.75 0 0 1 2.222-.727 3.75 3.75 0 1 1-1.178 7.308l-1.56 3.112a.536.536 0 0 1-.958-.482l1.553-3.107a3.75 3.75 0 0 1-.079-6.104zm.734 5.25a2.679 2.679 0 1 0 2.976-4.454 2.679 2.679 0 0 0-2.976 4.455zm-9.226-5.977h-3.214a.536.536 0 0 0-.536.536v3.214a.535.535 0 0 0 .536.536h2.678v2.143h-2.143v-.536a.536.536 0 0 0-1.071 0v1.072a.535.535 0 0 0 .536.535h3.214a.536.536 0 0 0 .536-.535v-3.215a.536.536 0 0 0-.536-.535h-2.679v-2.143h2.143v.536a.536.536 0 0 0 1.072 0V17.32a.536.536 0 0 0-.536-.536zm5.736.915c-.1.1-.237.157-.379.157h-2.679V20h1.608a.536.536 0 0 1 0 1.071H17.32v2.143H20a.536.536 0 1 1 0 1.071h-3.214a.536.536 0 0 1-.536-.535v-6.43a.536.536 0 0 1 .536-.536H20a.536.536 0 0 1 .379.915z" clip-rule="evenodd"/></svg>