<svg xmlns="http://www.w3.org/2000/svg" width="20" height="20" fill="none" viewBox="0 0 20 20"><path fill="#000" d="M8.077 17.917l-.317-2.539a4.415 4.415 0 0 1-1.316-.747l-2.351.994-1.923-3.333 2.034-1.537a4.178 4.178 0 0 1-.041-.373 5.839 5.839 0 0 1 0-.735c.008-.123.021-.256.04-.402L2.17 7.708l1.923-3.317 2.343.986c.2-.16.415-.305.643-.437a4.24 4.24 0 0 1 .673-.318l.325-2.538h3.846l.317 2.546c.25.09.477.197.68.318.201.121.406.264.612.429l2.375-.986 1.923 3.317-2.066 1.561c.03.135.047.26.05.378.002.117.003.235.003.353 0 .113-.002.229-.008.345a2.387 2.387 0 0 1-.057.402l2.05 1.545-1.924 3.333-2.346-1.002c-.206.165-.417.31-.631.437a3.81 3.81 0 0 1-.66.31l-.318 2.547H8.077zM10.01 12.5a2.41 2.41 0 0 0 1.77-.73 2.41 2.41 0 0 0 .73-1.77 2.41 2.41 0 0 0-.73-1.77 2.41 2.41 0 0 0-1.77-.73c-.702 0-1.294.243-1.777.73A2.421 2.421 0 0 0 7.51 10c0 .694.24 1.284.723 1.77.483.487 1.075.73 1.777.73zm0-1.25c-.348 0-.643-.121-.886-.364A1.206 1.206 0 0 1 8.76 10c0-.347.121-.642.364-.885s.538-.365.886-.365c.347 0 .642.122.885.365s.365.538.365.885-.122.643-.365.886a1.206 1.206 0 0 1-.885.364zm-.843 5.417h1.638l.3-2.233a4.642 4.642 0 0 0 1.165-.473 5.147 5.147 0 0 0 1.019-.79l2.07.87.82-1.416-1.807-1.362c.07-.216.117-.427.142-.635a5.222 5.222 0 0 0 0-1.256 3.26 3.26 0 0 0-.142-.619l1.823-1.378-.82-1.417-2.095.883a4.432 4.432 0 0 0-1.002-.79 4.306 4.306 0 0 0-1.182-.485l-.263-2.233H9.18l-.275 2.225c-.425.1-.818.254-1.178.461-.36.208-.704.475-1.03.802l-2.071-.863-.82 1.417 1.8 1.341c-.07.198-.119.404-.147.617a5.235 5.235 0 0 0 0 1.313c.028.208.074.414.138.617l-1.792 1.362.821 1.417 2.063-.875c.316.325.654.59 1.014.798.36.207.758.366 1.194.478l.27 2.224z"/></svg>