<svg xmlns="http://www.w3.org/2000/svg" width="40" height="40" fill="none" viewBox="0 0 40 40"><path fill="#000" d="M30.086 35.833c-1.135 0-2.1-.398-2.893-1.193-.794-.795-1.191-1.76-1.191-2.897 0-.218.02-.46.06-.722.041-.263.11-.5.205-.713l-13.188-7.765c-.386.482-.856.86-1.41 1.133a3.912 3.912 0 0 1-1.75.41c-1.135 0-2.1-.398-2.894-1.193C6.23 22.1 5.833 21.133 5.833 20c0-1.136.397-2.1 1.192-2.894.794-.794 1.759-1.19 2.893-1.19a4.023 4.023 0 0 1 3.16 1.502l13.189-7.731a2.824 2.824 0 0 1-.204-.702 4.614 4.614 0 0 1-.061-.732c0-1.135.397-2.1 1.192-2.894.794-.794 1.76-1.191 2.895-1.191s2.1.396 2.893 1.19c.794.794 1.19 1.757 1.19 2.891 0 1.153-.396 2.123-1.19 2.91-.795.786-1.76 1.18-2.895 1.18a4.16 4.16 0 0 1-1.741-.37 3.93 3.93 0 0 1-1.413-1.092l-13.166 7.67A4.805 4.805 0 0 1 14.004 20c0 .226-.02.46-.061.706-.04.245-.1.477-.176.694l13.166 7.697c.4-.44.864-.79 1.394-1.047a3.97 3.97 0 0 1 1.76-.387c1.135 0 2.1.392 2.894 1.177.795.784 1.192 1.749 1.192 2.894 0 1.146-.398 2.116-1.192 2.91-.795.793-1.76 1.19-2.895 1.19zm.006-24.906c.737 0 1.366-.262 1.888-.787a2.589 2.589 0 0 0 .783-1.893c0-.737-.263-1.366-.788-1.888a2.588 2.588 0 0 0-1.892-.782c-.737 0-1.367.262-1.888.787a2.588 2.588 0 0 0-.783 1.893c0 .737.262 1.366.787 1.888a2.588 2.588 0 0 0 1.893.782zM9.923 22.675c.737 0 1.366-.262 1.888-.787a2.589 2.589 0 0 0 .783-1.893c0-.737-.263-1.366-.788-1.888a2.589 2.589 0 0 0-1.892-.782c-.737 0-1.366.262-1.888.787a2.588 2.588 0 0 0-.783 1.893c0 .736.263 1.366.788 1.887a2.588 2.588 0 0 0 1.892.783zm20.169 11.748c.737 0 1.366-.263 1.888-.787a2.588 2.588 0 0 0 .783-1.893c0-.737-.263-1.366-.788-1.888a2.589 2.589 0 0 0-1.892-.782c-.737 0-1.367.262-1.888.787a2.588 2.588 0 0 0-.783 1.892c0 .737.262 1.367.787 1.888a2.588 2.588 0 0 0 1.893.783z"/></svg>