<svg xmlns="http://www.w3.org/2000/svg" width="32" height="32" fill="none" viewBox="0 0 32 32"><path fill="#000" d="M22.667 22.667c.555 0 1.027-.195 1.416-.584.39-.388.584-.86.584-1.416a1.93 1.93 0 0 0-.584-1.417 1.929 1.929 0 0 0-1.416-.583c-.556 0-1.028.194-1.417.583a1.929 1.929 0 0 0-.583 1.417c0 .555.194 1.027.583 1.416.389.39.861.584 1.417.584zm0 4c.697 0 1.332-.16 1.906-.477a4.062 4.062 0 0 0 1.407-1.277A6.401 6.401 0 0 0 22.667 24a6.4 6.4 0 0 0-3.313.913c.364.533.833.959 1.406 1.277a3.865 3.865 0 0 0 1.907.477zM16 28.64c-2.884-.786-5.271-2.484-7.163-5.092C6.946 20.94 6 18.024 6 14.8V7.128l10-3.743 10 3.743v7.554c-.311-.126-.638-.24-.98-.342A8.824 8.824 0 0 0 24 14.1V8.52l-8-2.987-8 2.988v6.28c0 1.18.167 2.334.5 3.46a13.693 13.693 0 0 0 1.378 3.156 12.542 12.542 0 0 0 2.099 2.636c.814.778 1.697 1.4 2.649 1.865l.038-.013c.176.49.404.957.685 1.405.28.448.599.855.956 1.22a1.432 1.432 0 0 0-.152.056c-.046.02-.097.038-.153.055zm6.667.026c-1.665 0-3.082-.584-4.25-1.752-1.167-1.167-1.75-2.583-1.75-4.248s.583-3.081 1.75-4.249c1.168-1.167 2.585-1.751 4.25-1.751s3.08.584 4.248 1.751c1.168 1.168 1.752 2.584 1.752 4.249 0 1.665-.584 3.08-1.752 4.248-1.167 1.168-2.583 1.752-4.248 1.752z"/></svg>