<svg xmlns="http://www.w3.org/2000/svg" width="24" height="24" fill="none" viewBox="0 0 24 24"><path fill="#000" d="M10.148 4.763H4.992a.94.94 0 0 0-.938.937v5.156a.94.94 0 0 0 .938.938h5.156a.94.94 0 0 0 .938-.938V5.7a.94.94 0 0 0-.938-.937zm0 6.093l-5.154.003s-.002 0-.002-.003V5.703s0-.003.002-.003h5.154s.003 0 .003.003l-.003 5.153zm6.317-6.093a3.526 3.526 0 0 0-3.516 3.515 3.526 3.526 0 0 0 3.516 3.516 3.526 3.526 0 0 0 3.515-3.516 3.526 3.526 0 0 0-3.515-3.515zm1.82 5.336a2.569 2.569 0 0 1-3.642 0 2.569 2.569 0 0 1 0-3.642 2.569 2.569 0 0 1 3.642 0 2.569 2.569 0 0 1 0 3.642zm-8.177 3.125H4.952a.94.94 0 0 0-.937.937v5.156a.94.94 0 0 0 .937.938h5.156a.94.94 0 0 0 .938-.938v-5.156a.94.94 0 0 0-.938-.937zm0 6.093l-5.154.003s-.002 0-.002-.003v-5.153s0-.003.002-.003h5.154s.003 0 .003.003l-.003 5.153zm8.935-6.093h-5.156a.94.94 0 0 0-.938.937v5.156a.94.94 0 0 0 .938.938h5.156a.94.94 0 0 0 .937-.938v-5.156a.94.94 0 0 0-.937-.937zm0 6.093l-5.154.003s-.002 0-.002-.003v-5.153s0-.003.002-.003h5.154s.002 0 .002.003l-.002 5.153z"/></svg>