<svg xmlns="http://www.w3.org/2000/svg" width="24" height="24" fill="none" viewBox="0 0 24 24"><path fill="#000" d="M14.12 20a2.487 2.487 0 0 1-1.763-.718l-4.29-4.205.635-.645c.177-.173.388-.286.632-.34.245-.055.492-.05.742.012l1.706.428V8.23c0-.19.065-.348.195-.475a.666.666 0 0 1 .486-.192c.193 0 .355.064.485.192a.64.64 0 0 1 .196.475v8.066l-2.583-.673 2.757 2.716c.114.112.237.194.37.247.131.053.275.08.431.08h3.477c.563 0 1.044-.196 1.444-.587.399-.39.598-.862.598-1.413v-3.188a.64.64 0 0 1 .196-.476.667.667 0 0 1 .485-.191c.193 0 .355.064.486.191.13.128.195.287.195.476v3.188c0 .92-.332 1.706-.997 2.357-.664.65-1.467.976-2.407.976H14.12zm.28-5.966V10.47c0-.19.066-.348.196-.475a.666.666 0 0 1 .486-.192.664.664 0 0 1 .68.667v3.564h-1.361zm2.62 0V11.53c0-.19.065-.348.195-.475a.666.666 0 0 1 .485-.192c.194 0 .355.064.486.192.13.127.195.286.195.475v2.504H17.02zm-12.379 3.3a1.6 1.6 0 0 1-1.164-.467A1.535 1.535 0 0 1 3 15.727V5.606c0-.45.159-.83.477-1.14A1.602 1.602 0 0 1 4.64 4H17.7c.458 0 .846.156 1.164.467.318.31.477.69.477 1.14v3.307H17.98V5.607a.259.259 0 0 0-.088-.188.269.269 0 0 0-.192-.086H4.641a.269.269 0 0 0-.192.086.259.259 0 0 0-.087.188v10.12c0 .068.029.13.087.187a.269.269 0 0 0 .192.086h1.634l1.348 1.333H4.641z"/></svg>