<svg xmlns="http://www.w3.org/2000/svg" width="24" height="24" fill="none" viewBox="0 0 24 24"><path fill="#000" d="M11.47 12.53h6.883V5.646h-6.882v6.882zM4.915 21c-.535 0-.988-.185-1.358-.556A1.848 1.848 0 0 1 3 19.086V4.914c0-.535.185-.988.556-1.358.37-.37.823-.556 1.358-.556h14.172c.535 0 .988.185 1.358.556.37.37.556.823.556 1.358v14.172c0 .535-.185.988-.556 1.358-.37.37-.823.556-1.358.556H4.914zm0-1.588h14.172a.312.312 0 0 0 .224-.102.312.312 0 0 0 .102-.224V4.914a.312.312 0 0 0-.102-.224.312.312 0 0 0-.224-.102H4.914a.311.311 0 0 0-.224.102.311.311 0 0 0-.102.224v14.172c0 .081.034.156.102.224a.312.312 0 0 0 .224.102z"/></svg>