<svg xmlns="http://www.w3.org/2000/svg" width="32" height="32" fill="none" viewBox="0 0 32 32"><path fill="#000" d="M27.687 14.63v10.626c0 .674-.233 1.244-.7 1.71-.467.467-1.037.7-1.71.7H6.764a2.327 2.327 0 0 1-1.71-.7 2.327 2.327 0 0 1-.7-1.71v-10.65c-.537-.442-.94-1.014-1.21-1.717-.269-.704-.274-1.463-.016-2.279l1.349-4.405c.177-.56.48-1.013.905-1.356.425-.344.934-.516 1.525-.516h18.2c.592 0 1.097.165 1.516.493.419.328.724.78.915 1.354l1.375 4.43c.258.816.252 1.573-.017 2.27a4.363 4.363 0 0 1-1.21 1.75zm-8.733-.963c.728 0 1.275-.223 1.642-.668.367-.445.517-.924.45-1.435l-.81-5.23H17.02V11.6c0 .56.19 1.045.57 1.454.379.409.834.613 1.364.613zm-6 0c.613 0 1.111-.204 1.493-.613.382-.409.573-.893.573-1.454V6.333h-3.215l-.81 5.283c-.072.473.077.933.446 1.38.369.447.873.67 1.513.67zm-5.934 0c.494 0 .92-.172 1.275-.517.355-.344.575-.777.659-1.299l.784-5.518h-2.83a.564.564 0 0 0-.347.097.574.574 0 0 0-.192.288l-1.282 4.338c-.176.573-.093 1.151.249 1.735.342.584.903.876 1.684.876zm18 0c.722 0 1.274-.284 1.657-.85.383-.567.475-1.154.277-1.76l-1.35-4.365a.503.503 0 0 0-.191-.275.629.629 0 0 0-.347-.084h-2.764l.785 5.518c.084.522.303.955.659 1.3.356.344.78.516 1.274.516zm-18.256 12h18.513a.4.4 0 0 0 .295-.116.4.4 0 0 0 .115-.294v-9.708a1.788 1.788 0 0 1-.364.099 2.477 2.477 0 0 1-.303.019c-.6 0-1.128-.109-1.583-.326-.456-.217-.897-.565-1.324-1.043a4.27 4.27 0 0 1-1.329.997c-.51.248-1.094.372-1.748.372a3.72 3.72 0 0 1-1.6-.353 5.027 5.027 0 0 1-1.416-1.017 4.336 4.336 0 0 1-1.4 1.017 3.823 3.823 0 0 1-1.584.353 4.381 4.381 0 0 1-1.693-.327 3.605 3.605 0 0 1-1.39-1.043c-.56.561-1.077.93-1.55 1.106a3.95 3.95 0 0 1-1.383.264c-.104 0-.212-.007-.323-.02a1.164 1.164 0 0 1-.343-.098v9.707a.4.4 0 0 0 .115.295.4.4 0 0 0 .295.116z"/></svg>