<svg xmlns="http://www.w3.org/2000/svg" width="24" height="24" fill="none" viewBox="0 0 24 24"><path fill="#000" d="M17.782 3a3.213 3.213 0 0 0-2.847 4.699l-7.236 7.238a3.213 3.213 0 0 0-3.758 5.122 3.213 3.213 0 0 0 5.12-3.76l7.236-7.237a3.212 3.212 0 0 0 4.016-4.834A3.213 3.213 0 0 0 17.782 3zM6.215 19.07a1.285 1.285 0 1 1 0-2.57 1.285 1.285 0 0 1 0 2.57zM17.782 7.5a1.285 1.285 0 1 1 0-2.57 1.285 1.285 0 0 1 0 2.57zm.322 9.008a1.607 1.607 0 0 1-1.607 1.606h-4.82v1.929h4.82a3.534 3.534 0 0 0 3.535-3.535v-4.821h-1.928v4.82zM5.895 7.498A1.607 1.607 0 0 1 7.5 5.89h4.82V3.962H7.5a3.534 3.534 0 0 0-3.534 3.536v4.82h1.928v-4.82z"/></svg>