<svg xmlns="http://www.w3.org/2000/svg" width="12" height="12" fill="none" viewBox="0 0 12 12"><g fill="#000" clip-path="url(#clip0_2248_4)"><path d="M9.854 0a2.141 2.141 0 0 0-1.897 3.133L3.133 7.958a2.141 2.141 0 1 0 .908.908l4.824-4.825A2.141 2.141 0 1 0 9.855 0zm-7.71 10.713a.856.856 0 1 1 0-1.713.856.856 0 0 1 0 1.713zM9.853 3a.857.857 0 1 1 0-1.713.857.857 0 0 1 0 1.713zm.217 6.003a1.071 1.071 0 0 1-1.072 1.071H5.785v1.286h3.213a2.356 2.356 0 0 0 2.356-2.357V5.789H10.07v3.214zM1.93 2.998A1.071 1.071 0 0 1 3 1.926h3.214V.641H3A2.356 2.356 0 0 0 .645 2.998V6.21H1.93V2.998z"/></g><defs><clipPath id="clip0_2248_4"><path fill="#fff" d="M0 0h12v12H0z"/></clipPath></defs></svg>