<svg xmlns="http://www.w3.org/2000/svg" width="24" height="24" fill="none" viewBox="0 0 24 24"><path fill="#000" fill-rule="evenodd" d="M3.845 3.36a.673.673 0 0 0-.425.324c-.076.129-.081.22-.092 1.725-.013 1.745-.003 1.844.208 2.055a.654.654 0 0 0 1.068-.201c.067-.147.074-.282.075-1.373l.001-1.21h6.64v14.64h-1.17c-.73 0-1.23.017-1.329.045a.644.644 0 0 0-.431.88c.094.21.194.304.397.377.2.071 6.138.084 6.391.014a.714.714 0 0 0 .46-.468.672.672 0 0 0-.46-.804c-.098-.027-.602-.044-1.328-.044h-1.17V4.68h6.64v1.17c0 .726.017 1.23.044 1.328.128.459.702.631 1.071.32.243-.204.25-.266.237-2.081l-.012-1.643-.112-.147a.94.94 0 0 0-.24-.217c-.121-.066-.598-.07-8.228-.076-4.455-.004-8.161.008-8.235.026"/></svg>