<svg xmlns="http://www.w3.org/2000/svg" width="40" height="40" fill="none" viewBox="0 0 40 40"><path fill="#000" d="M19.32 26.692V14.77h-5v-1.41h11.41v1.41h-5v11.923h-1.41zM4 36.052v-6.708h2.686V10.707H4V4h6.707v2.686h18.637V4h6.707v6.707h-2.686v18.637h2.686v6.707h-6.707v-2.686H10.707v2.686H4zm6.707-4.097h18.637v-2.61h2.611V10.706h-2.611v-2.61H10.707v2.61h-2.61v18.637h2.61v2.611zM5.41 9.297h3.887V5.41H5.41v3.887zm25.344 0h3.887V5.41h-3.887v3.887zm0 25.344h3.887v-3.887h-3.887v3.887zm-25.344 0h3.887v-3.887H5.41v3.887z"/></svg>