<svg xmlns="http://www.w3.org/2000/svg" width="24" height="24" fill="none" viewBox="0 0 24 24"><path fill="#000" d="M7.339 18.625V5.375H12.2c1.02 0 1.941.317 2.765.952.824.635 1.235 1.489 1.235 2.563 0 .748-.18 1.357-.541 1.828-.36.471-.75.813-1.166 1.026.512.177 1.002.527 1.469 1.05.466.522.7 1.225.7 2.11 0 1.278-.471 2.218-1.414 2.819-.942.601-1.891.902-2.848.902H7.34zm2.15-1.992h2.83c.788 0 1.344-.219 1.67-.656.325-.437.488-.857.488-1.258s-.162-.82-.488-1.258c-.326-.437-.898-.655-1.716-.655H9.49v3.827zm0-5.758h2.594c.608 0 1.09-.174 1.445-.521.356-.348.534-.764.534-1.248 0-.516-.188-.937-.564-1.264-.377-.327-.838-.49-1.384-.49H9.489v3.523z"/></svg>