<svg xmlns="http://www.w3.org/2000/svg" width="40" height="40" fill="none" viewBox="0 0 40 40"><path fill="#000" d="M9.273 31.853c-1.196 0-2.216-.423-3.057-1.268-.842-.845-1.263-1.871-1.263-3.078H2.82V10.769c0-.682.236-1.259.706-1.73.47-.47 1.048-.705 1.73-.705h22.302v6.113H31.2l5.978 8.019v5.04h-2.57c0 1.208-.423 2.234-1.27 3.08-.845.844-1.872 1.267-3.08 1.267-1.203 0-2.224-.423-3.063-1.268s-1.258-1.871-1.258-3.078H13.624c0 1.213-.426 2.241-1.278 3.083-.852.842-1.876 1.263-3.073 1.263zm.015-1.41c.816 0 1.507-.284 2.075-.852.567-.567.85-1.258.85-2.074 0-.815-.283-1.507-.85-2.074a2.827 2.827 0 0 0-2.075-.851c-.815 0-1.507.284-2.074.851s-.85 1.259-.85 2.074c0 .816.283 1.507.85 2.075.567.567 1.259.85 2.074.85zm-5.057-4.347h.948c.237-.802.74-1.489 1.508-2.062a4.222 4.222 0 0 1 2.588-.859c.915 0 1.767.282 2.556.846.788.565 1.301 1.256 1.539 2.075h12.777V9.744H5.257c-.257 0-.492.107-.706.32-.214.214-.32.449-.32.705v15.327zm26.042 4.346c.816 0 1.507-.283 2.075-.85.567-.568.85-1.26.85-2.075 0-.815-.283-1.507-.85-2.074a2.827 2.827 0 0 0-2.075-.851c-.815 0-1.507.284-2.074.851s-.85 1.259-.85 2.074c0 .816.283 1.507.85 2.075.567.567 1.259.85 2.074.85zm-2.715-7.76h8.062l-5.189-6.825h-2.873v6.825z"/></svg>