<svg xmlns="http://www.w3.org/2000/svg" width="32" height="32" fill="none" viewBox="0 0 32 32"><path fill="#000" d="M7.792 26.077c-1.04 0-1.924-.364-2.65-1.092-.727-.728-1.09-1.612-1.09-2.652H1.794V8.41c0-.673.233-1.243.7-1.71a2.327 2.327 0 0 1 1.71-.7H22.36v5.077h3.538l4.308 5.77v5.486h-2.41c0 1.04-.364 1.924-1.093 2.652-.728.728-1.613 1.092-2.654 1.092-1.04 0-1.924-.364-2.65-1.092-.727-.728-1.09-1.612-1.09-2.652h-8.77c0 1.043-.364 1.928-1.092 2.654-.729.727-1.613 1.09-2.654 1.09zm.003-2c.489 0 .902-.169 1.238-.505.337-.337.505-.75.505-1.239 0-.489-.168-.901-.505-1.238a1.684 1.684 0 0 0-1.238-.505c-.489 0-.902.168-1.239.505-.336.337-.505.75-.505 1.238 0 .49.169.902.505 1.239.337.337.75.505 1.239.505zm-4-3.744h.964c.284-.494.694-.908 1.23-1.242a3.344 3.344 0 0 1 1.806-.501c.651 0 1.249.165 1.793.495.545.33.959.746 1.243 1.248h9.528V8H4.205a.392.392 0 0 0-.282.128.392.392 0 0 0-.128.282v11.923zm20.256 3.744c.49 0 .902-.169 1.239-.505.337-.337.505-.75.505-1.239 0-.489-.169-.901-.505-1.238a1.684 1.684 0 0 0-1.239-.505c-.489 0-.901.168-1.238.505-.337.337-.505.75-.505 1.238 0 .49.168.902.505 1.239.337.337.75.505 1.238.505zm-1.692-6.41h5.974l-3.461-4.59h-2.513v4.59z"/></svg>