<svg xmlns="http://www.w3.org/2000/svg" width="25" height="24" fill="none" viewBox="0 0 25 24"><path fill="#000" d="M9.808 18.75v-1.5H21v1.5H9.808zm0-6v-1.5H21v1.5H9.808zm0-6v-1.5H21v1.5H9.808zM5.663 19.663c-.457 0-.849-.163-1.174-.488A1.602 1.602 0 0 1 4 18c0-.458.163-.85.489-1.175a1.602 1.602 0 0 1 1.174-.489c.458 0 .85.163 1.175.49.326.325.489.716.489 1.174 0 .457-.163.849-.489 1.175a1.602 1.602 0 0 1-1.175.488zm0-6c-.457 0-.849-.163-1.174-.488A1.602 1.602 0 0 1 4 12c0-.458.163-.85.489-1.175a1.602 1.602 0 0 1 1.174-.489c.458 0 .85.163 1.175.49.326.325.489.716.489 1.174 0 .457-.163.849-.489 1.175a1.602 1.602 0 0 1-1.175.488zm0-6c-.457 0-.849-.163-1.174-.488A1.602 1.602 0 0 1 4 6c0-.458.163-.85.489-1.175a1.602 1.602 0 0 1 1.174-.489 1.6 1.6 0 0 1 1.175.489c.326.326.489.717.489 1.175 0 .457-.163.849-.489 1.175a1.602 1.602 0 0 1-1.175.488z"/></svg>