<svg xmlns="http://www.w3.org/2000/svg" width="20" height="20" fill="none" viewBox="0 0 20 20"><g clip-path="url(#clip0_1174_1158)"><path fill="#000" d="M7.516 10.098l-.473-.473 2.984-2.984 2.985 2.984-.473.473-2.18-2.18v8.722h-.668V7.917l-2.175 2.18zM16.37 5.98c0-.055.008-.106.008-.157A5.166 5.166 0 0 0 11.21.656a5.16 5.16 0 0 0-4.657 2.942 2.663 2.663 0 0 0-3.82 1.934 3.996 3.996 0 0 0 1.293 7.778h4.337v-.67H4.027A3.334 3.334 0 0 1 .7 9.31a3.34 3.34 0 0 1 2.254-3.153l.375-.128.066-.391a1.992 1.992 0 0 1 2.864-1.449l.609.304.293-.613a4.516 4.516 0 0 1 4.05-2.555c2.481 0 4.5 2.02 4.5 4.5 0 .012 0 .028-.003.043-.004.032-.004.067-.004.102l-.015.68.679.003a3.006 3.006 0 0 1 2.992 3 3.005 3.005 0 0 1-2.985 2.997h-4.68v.668h4.684a3.668 3.668 0 0 0-.008-7.336h.001z"/></g><defs><clipPath id="clip0_1174_1158"><path fill="#fff" d="M0 0h20v20H0z"/></clipPath></defs></svg>