<svg xmlns="http://www.w3.org/2000/svg" width="40" height="40" fill="none" viewBox="0 0 40 40"><path fill="#000" d="M19.85 14.02c0 .146-.006.288-.015.434l-.019.193c-.009.08.031.08.003-.016.01.031-.015.096-.018.127a5.394 5.394 0 0 1-.314 1.13c.003.022-.04.093-.05.112a5.722 5.722 0 0 1-.584.984c.054-.078-.058.071-.077.096a6.255 6.255 0 0 1-.27.304 6.272 6.272 0 0 1-.291.283c-.047.04-.09.08-.14.121l-.078.065c-.009.01-.021.016-.03.025-.053.04-.044.034.027-.022-.018.04-.13.096-.164.121l-.134.093a5.458 5.458 0 0 1-.714.398c-.025.012-.05.021-.074.034-.13.062.13-.05-.003.003l-.193.075c-.26.096-.53.17-.804.223-.062.012-.124.025-.186.034-.028.003-.078.022-.106.016.075.018.11-.013.038-.007a6.642 6.642 0 0 1-.429.035 5.782 5.782 0 0 1-.866-.035c-.118-.012.031.01.037.007-.027.009-.096-.016-.127-.019a5.964 5.964 0 0 1-.968-.255c-.065-.024-.127-.05-.193-.074-.074-.028-.015.022.034.015-.027.004-.083-.037-.111-.05a5.523 5.523 0 0 1-.714-.396l-.152-.103c-.038-.025-.13-.068-.15-.108l.063.046a18.996 18.996 0 0 1-.047-.037l-.077-.065a5.623 5.623 0 0 1-.717-.717l-.066-.078c-.003-.006-.009-.01-.012-.016l.022.028c-.04-.018-.084-.111-.109-.149a4.449 4.449 0 0 1-.233-.36 6.525 6.525 0 0 1-.267-.509c-.012-.025-.021-.05-.034-.074-.056-.121.044.111-.003-.003a5.218 5.218 0 0 1-.329-1.164c-.006-.028-.028-.1-.019-.128-.003.01.019.155.007.037a5.156 5.156 0 0 1 .003-1.297c.006-.071-.025-.037-.007.037-.006-.028.013-.077.016-.105a6.65 6.65 0 0 1 .087-.435c.062-.258.149-.506.245-.751.053-.137-.059.127.003-.003.013-.025.022-.05.034-.075a4.953 4.953 0 0 1 .289-.543c.062-.105.13-.208.202-.307.025-.034.077-.146.12-.165-.049.022-.07.087-.02.028.03-.037.058-.074.09-.111a5.59 5.59 0 0 1 .704-.702c.025-.019.174-.13.096-.078-.078.053.071-.052.1-.071a5.568 5.568 0 0 1 .881-.512c.022-.01.09-.056.112-.05-.006 0-.143.056-.034.016l.192-.075c.13-.046.264-.09.397-.127.121-.034.245-.062.367-.09a2.16 2.16 0 0 1 .208-.037c.034-.007.071-.01.105-.016.06-.01-.143.016.003 0a5.473 5.473 0 0 1 1.254 0c.044.006.143.031-.015-.003a3.188 3.188 0 0 1 .332.059 5.631 5.631 0 0 1 .94.286c.032.015.063.027.094.043a5.26 5.26 0 0 1 .698.388l.152.103c.028.018.056.04.084.058.015.013.034.025.05.038.052.04.043.03-.028-.022.096.034.204.168.279.236a5.135 5.135 0 0 1 .562.587c.03.037.087.08.102.127-.015-.022-.03-.04-.046-.062.015.022.034.043.05.065l.07.1a5.84 5.84 0 0 1 .491.85c.016.03.028.062.044.093.04.08-.056-.146-.006-.016a5.584 5.584 0 0 1 .35 1.289c-.03-.15-.01-.078-.006-.038.006.072.016.143.022.215-.013.127-.01.273-.01.419 0 .325.286.636.621.62.335-.015.621-.273.621-.62-.006-1.242-.382-2.493-1.111-3.505a6.257 6.257 0 0 0-2.93-2.235c-2.356-.866-5.147-.105-6.736 1.835a6.206 6.206 0 0 0-1.4 3.47 6.083 6.083 0 0 0 3.51 5.963 6.244 6.244 0 0 0 3.8.444c2.418-.478 4.405-2.527 4.777-4.967a7.17 7.17 0 0 0 .087-1.002c0-.326-.286-.637-.62-.621a.63.63 0 0 0-.619.618zm10.999 1.722c0 .102-.003.201-.013.304-.003.05-.009.1-.012.149-.016.155.019-.103-.006.046a3.88 3.88 0 0 1-.242.863c-.04.103.052-.108-.01.022-.024.05-.046.1-.071.15-.09.176-.19.344-.304.505-.022.031-.062.112-.096.13-.004.003.083-.096.034-.046l-.038.046c-.068.084-.14.165-.217.243a3.051 3.051 0 0 1-.205.195c-.03.028-.062.053-.093.08l-.062.054c-.087.074.078-.053.012-.01a4.614 4.614 0 0 1-.748.45c-.018.01-.037.016-.055.025-.075.04.111-.043.034-.015-.053.018-.103.04-.155.059a3.888 3.888 0 0 1-.727.186c-.146.025.09-.006-.025.003a3.678 3.678 0 0 1-.323.025 4.697 4.697 0 0 1-.627-.025c-.114-.012.122.019-.024-.003-.05-.01-.097-.016-.146-.025a4.891 4.891 0 0 1-.305-.074 2.901 2.901 0 0 1-.276-.09c-.046-.016-.09-.035-.133-.053-.084-.031.015.021.034.015a.266.266 0 0 1-.075-.034c-.18-.084-.35-.18-.518-.285-.08-.053-.155-.11-.233-.165-.068-.046.09.078.031.022a15.185 15.185 0 0 1-.046-.038c-.04-.034-.084-.068-.125-.105a4.01 4.01 0 0 1-.406-.422c-.019-.022-.034-.044-.053-.062-.047-.053.037.046.034.046-.03-.018-.062-.084-.084-.114a4.465 4.465 0 0 1-.307-.503 4.84 4.84 0 0 1-.062-.128l-.034-.074c-.037-.072.056.146.006.015a4.232 4.232 0 0 1-.236-.84s-.018-.078-.012-.085c-.003.003.018.162.006.038a3.828 3.828 0 0 1-.012-.798c.003-.05.009-.1.015-.15.012-.114-.022.134.003-.024.016-.102.037-.208.062-.31.047-.196.115-.382.186-.572.025-.065-.021.056-.021.053-.003-.006.028-.062.034-.074a4.5 4.5 0 0 1 .366-.636l.084-.115c.04-.056-.034.046-.034.046a.361.361 0 0 1 .065-.078 4.01 4.01 0 0 1 .53-.53c.041-.066.184-.134.25-.177.164-.109.338-.205.518-.286.012-.006.068-.037.074-.034.003 0-.118.047-.053.022a3.274 3.274 0 0 1 .428-.149c.094-.028.19-.05.286-.069l.146-.027c.028-.004.06-.007.084-.013-.031.01-.124.016-.037.006.214-.021.431-.03.648-.024.094.003.187.012.28.021.161.019-.09-.015.025.003.056.01.111.019.167.031a3.702 3.702 0 0 1 .717.214c.112.044-.03-.015-.034-.015a4.558 4.558 0 0 1 .348.174c.084.046.164.096.245.146.065.043.208.108.248.177.004.003-.099-.081-.046-.034.018.018.043.034.062.052.037.031.071.062.109.093.074.069.149.137.217.211.065.069.127.14.19.212l.037.046c.043.05.043.012-.022-.03.037.024.071.095.096.13.112.16.214.329.304.505.022.044.044.087.062.13.01.02.016.038.025.057.037.074-.043-.115-.015-.034.034.096.074.192.105.291.062.193.109.391.143.59.025.146-.006-.09.003.025l.015.149c.007.102.01.211.01.32.003.326.285.636.62.62.336-.015.625-.273.621-.62a4.762 4.762 0 0 0-3.135-4.436c-1.803-.661-3.957-.078-5.174 1.406a4.824 4.824 0 0 0-1.093 2.682c-.08.956.162 1.95.655 2.769.478.791 1.201 1.462 2.049 1.844a4.834 4.834 0 0 0 2.961.341c1.85-.37 3.38-1.952 3.666-3.821.04-.26.068-.521.068-.785.003-.326-.285-.637-.62-.621a.632.632 0 0 0-.618.62zM23.743 27.93v2.039c0 .096-.003.189-.003.285 0 .143.037-.133 0 .003a3.39 3.39 0 0 1-.019.081c-.003.01-.03.118-.037.118 0 0 .068-.127.003-.019-.018.028-.03.06-.05.09-.006.013-.015.022-.021.035-.037.055-.031.046.025-.028.009.028-.15.155-.168.174-.1.093.115-.066-.003 0a.505.505 0 0 0-.068.043.519.519 0 0 1-.109.056l.071-.031c-.024.01-.052.018-.077.028a.778.778 0 0 1-.08.021l-.041.01c-.069.012-.056.009.04-.003-.003.009-.118.006-.13.006h-.047c-.878.003-1.757 0-2.635 0H6.872c-.015 0-.028 0-.043-.003a.445.445 0 0 0 .037.006c-.003.006-.09-.019-.102-.022-.035-.01-.066-.021-.1-.028-.133-.034.118.069-.003 0a1.297 1.297 0 0 1-.09-.05c-.018-.009-.034-.021-.053-.03-.055-.038-.046-.031.028.024-.024.007-.127-.114-.146-.136-.009-.01-.018-.019-.027-.031a.425.425 0 0 0 .021.03.53.53 0 0 1-.065-.102 1.469 1.469 0 0 0-.037-.071c-.068-.121.034.13 0-.003-.01-.04-.025-.078-.034-.121l-.01-.04c-.012-.069-.009-.056.003.04-.018-.006-.006-.283-.006-.31v-2.059a5.485 5.485 0 0 1 .034-.648l.01-.084a.885.885 0 0 0-.007.037c.004-.028.01-.056.013-.084a6.48 6.48 0 0 1 .35-1.313c.013-.03.026-.065.038-.096.053-.137-.06.127.003-.003l.102-.224a6.262 6.262 0 0 1 .569-.946c.015-.025.046-.084.07-.1-.015.022-.03.04-.046.062l.05-.065a6.423 6.423 0 0 1 .944-.95c.028-.021.062-.062.096-.074-.134.062-.04.03.003 0 .056-.04.109-.08.165-.118.127-.09.26-.174.397-.252.124-.07.251-.14.379-.204.062-.032.124-.06.186-.087.028-.013.084-.05.112-.05a.636.636 0 0 0-.035.015c.025-.009.05-.021.078-.03a6.195 6.195 0 0 1 1.291-.351c.04-.007.087-.022.128-.019-.165-.006-.044.006.003 0a7.685 7.685 0 0 1 .72-.037h6.211c.143 0 .286.006.432.015.087.007.177.013.264.025.024.003.198.028.043.003.053.01.102.016.155.025a6.03 6.03 0 0 1 1.118.301l.118.047a5.372 5.372 0 0 1 .27.121 6.15 6.15 0 0 1 1.071.658 6.856 6.856 0 0 1 .233.196c.254.223.49.468.704.732l.071.09c.06.075-.087-.121 0 .003l.15.208a6.15 6.15 0 0 1 .505.888c.016.034.031.071.05.105.068.146-.046-.124.01.025a6.423 6.423 0 0 1 .357 1.23c.009.046.015.096.024.142l.006.028c.016.078.019.162.025.242.022.171.028.351.028.534 0 .326.286.637.62.621.336-.015.622-.273.622-.62a6.965 6.965 0 0 0-1.527-4.312 6.808 6.808 0 0 0-3.915-2.406c-.73-.149-1.453-.149-2.191-.149h-4.936c-.739 0-1.471.022-2.194.199-2.602.633-4.694 2.862-5.116 5.513-.137.866-.1 1.747-.1 2.62 0 .297-.018.602.007.9.071.816.655 1.564 1.48 1.732.311.062.624.046.941.046h15.62c.525-.003 1.052-.21 1.41-.602.3-.332.471-.733.508-1.176.01-.106.007-.212.007-.32v-2.048c0-.327-.286-.637-.621-.622a.632.632 0 0 0-.615.624z"/><path fill="#000" d="M33.754 26.296v1.927c0 .056-.003.109 0 .165v.053c-.01-.01.034-.118.01-.062a.41.41 0 0 0-.016.059c-.022.117.003-.044.019-.035 0 0-.025.05-.028.053-.063.121.009-.018.015-.012a.713.713 0 0 1-.084.084c-.025-.025.118-.069.028-.028a.434.434 0 0 0-.053.028c-.055.04.053-.035.056-.022 0 .003-.068.018-.077.022-.109.034.12.003-.003-.003h-7.475c-.584 0-1.173-.022-1.76 0h-.028l.62.62c0-.617.032-1.244-.03-1.86-.124-1.207-.537-2.377-1.257-3.36a7.478 7.478 0 0 0-1.481-1.506c.04.326.084.648.124.974.037-.03.075-.065.112-.096.018-.015.149-.115.028-.025a4.744 4.744 0 0 1 .708-.437c.043-.022.09-.04.133-.062.149-.072-.121.043.034-.016.078-.028.155-.059.233-.084a4.25 4.25 0 0 1 .584-.152c.046-.01.102-.025.152-.025-.156.003.009 0 .037-.003.087-.01.17-.015.258-.018.074-.004.149-.007.226-.007h5.125c.087 0 .174.003.26.01.069.006.2-.01.258.024l-.08-.009c.028.003.055.01.083.013l.125.021a2.5 2.5 0 0 1 .204.047c.162.04.323.087.479.146l.114.043c.13.05-.096-.046-.015-.006.068.034.137.062.205.096a4.448 4.448 0 0 1 .627.385l.034.025c.053.04.043.031-.028-.022.037.006.096.078.127.103.13.108.252.226.367.35.059.066.118.13.173.2.016.02.072.067.078.095-.05-.068-.062-.08-.034-.046.012.015.025.03.037.05a4.2 4.2 0 0 1 .286.447 6.072 6.072 0 0 1 .167.329c.013.024.022.05.034.074a4.943 4.943 0 0 1 .155.478c.022.08.041.164.06.245.009.04.015.084.024.124.007.044.02.233.01.047.015.186.04.37.04.559.003.326.286.636.62.62.336-.015.625-.273.622-.62-.007-1.453-.64-2.884-1.751-3.828a5.186 5.186 0 0 0-3.38-1.235h-4.672c-.385 0-.76.01-1.142.065-.966.14-1.853.584-2.586 1.22-.146.127-.196.338-.17.521.027.208.136.33.294.454-.121-.093.025.021.056.046l.158.134a5.717 5.717 0 0 1 .571.571l.122.14c.018.024.04.046.059.071.012.016.09.121.037.047-.06-.081.03.043.034.05.018.024.037.049.053.074.037.05.071.102.105.152a6.08 6.08 0 0 1 .398.683c.027.056.055.112.08.167l.037.084c.06.127-.037-.096.01.025.1.248.186.503.254.76.034.13.066.264.09.398l.038.214c.003.025.018.078.015.096l-.01-.068.01.071c.04.345.04.693.04 1.037v.894c0 .335.286.62.621.62h8.956c.282 0 .555.007.825-.108.516-.217.835-.707.85-1.266.004-.152 0-.308 0-.463v-1.636c0-.326-.285-.636-.62-.62-.338.024-.624.282-.624.63z"/></svg>