<svg xmlns="http://www.w3.org/2000/svg" width="24" height="24" fill="none" viewBox="0 0 24 24"><path fill="#000" d="M13.999 11.23c.763 0 1.413-.267 1.948-.801a2.65 2.65 0 0 0 .803-1.947c0-.764-.267-1.413-.802-1.948a2.649 2.649 0 0 0-1.947-.803c-.763 0-1.413.267-1.948.802a2.649 2.649 0 0 0-.803 1.947c0 .763.267 1.413.802 1.948a2.65 2.65 0 0 0 1.947.803zm-5.71 4.616a7.553 7.553 0 0 1 2.584-1.908A7.54 7.54 0 0 1 14 13.27a7.54 7.54 0 0 1 3.127.67 7.554 7.554 0 0 1 2.585 1.907c.083 0 .152-.03.206-.091a.314.314 0 0 0 .082-.217V4.308a.3.3 0 0 0-.087-.221.3.3 0 0 0-.22-.087H8.307a.3.3 0 0 0-.221.087.3.3 0 0 0-.087.22v11.231c0 .084.027.156.082.217.054.06.123.091.206.091zm.019 1.654a1.74 1.74 0 0 1-1.277-.531 1.74 1.74 0 0 1-.531-1.277V4.308c0-.497.177-.923.531-1.277A1.74 1.74 0 0 1 8.308 2.5h11.384c.497 0 .923.177 1.277.531.354.354.531.78.531 1.277v11.384c0 .497-.177.923-.531 1.277a1.74 1.74 0 0 1-1.277.531H8.308zm-4 4a1.74 1.74 0 0 1-1.277-.531 1.74 1.74 0 0 1-.531-1.277V6.5H4v13.192a.3.3 0 0 0 .087.221.3.3 0 0 0 .22.087H17.5v1.5H4.308zM14 9.73c-.348 0-.643-.12-.886-.364a1.205 1.205 0 0 1-.364-.885c0-.348.121-.643.364-.886s.538-.364.886-.364c.347 0 .643.121.886.364s.364.538.364.886c0 .347-.121.642-.364.885a1.206 1.206 0 0 1-.886.365zM10.335 16h7.33a5.566 5.566 0 0 0-1.724-.923A6.21 6.21 0 0 0 14 14.769a6.21 6.21 0 0 0-1.941.308 5.566 5.566 0 0 0-1.724.923z"/></svg>