<svg xmlns="http://www.w3.org/2000/svg" width="24" height="24" fill="none" viewBox="0 0 24 24"><path fill="#000" d="M16.53 11.708l-2.693-2.623.901-.857 1.791 1.745 3.583-3.49.888.878-4.47 4.347zm-7.208.04a2.88 2.88 0 0 1-2.083-.845c-.578-.563-.867-1.24-.867-2.03 0-.79.289-1.466.867-2.029A2.879 2.879 0 0 1 9.322 6a2.88 2.88 0 0 1 2.084.844c.577.563.866 1.24.866 2.03 0 .79-.289 1.466-.866 2.03a2.88 2.88 0 0 1-2.084.843zM3 18v-1.825a2 2 0 0 1 .336-1.117c.225-.343.524-.607.9-.79a12.438 12.438 0 0 1 2.52-.896 11.19 11.19 0 0 1 5.131 0c.848.2 1.689.498 2.522.895.375.184.675.448.899.79a2 2 0 0 1 .336 1.118V18H3zm1.264-1.232H14.38v-.593a.79.79 0 0 0-.149-.462 1.116 1.116 0 0 0-.402-.347 11.028 11.028 0 0 0-2.222-.792 9.85 9.85 0 0 0-4.57 0c-.755.18-1.495.444-2.222.792-.17.09-.303.205-.402.347a.79.79 0 0 0-.149.462v.593zm5.058-6.252c.464 0 .86-.161 1.19-.483a1.56 1.56 0 0 0 .496-1.16 1.56 1.56 0 0 0-.495-1.16 1.645 1.645 0 0 0-1.19-.481c-.465 0-.861.16-1.192.482-.33.322-.495.708-.495 1.16 0 .451.165.838.495 1.16.33.321.727.482 1.191.482z"/></svg>