<svg xmlns="http://www.w3.org/2000/svg" width="24" height="24" fill="none" viewBox="0 0 24 24"><path fill="#000" d="M16.536 12.537l-.898-.865 1.775-1.725-1.774-1.703.897-.878 1.787 1.724 1.767-1.724.91.878-1.78 1.703L21 11.672l-.91.865-1.767-1.704-1.787 1.704zm-7.151-.79a2.92 2.92 0 0 1-2.104-.844c-.584-.563-.876-1.24-.876-2.03 0-.79.292-1.466.876-2.029A2.922 2.922 0 0 1 9.385 6c.82 0 1.52.281 2.104.844.583.563.875 1.24.875 2.03 0 .79-.292 1.466-.875 2.03a2.923 2.923 0 0 1-2.104.843zM3 18v-1.825c0-.402.113-.775.34-1.117a2.24 2.24 0 0 1 .908-.79c.84-.399 1.69-.697 2.546-.896a11.408 11.408 0 0 1 5.181 0c.857.2 1.706.498 2.547.895.379.184.681.448.908.79.226.343.34.716.34 1.118V18H3zm1.277-1.232h10.215v-.593c0-.167-.05-.32-.15-.462a1.124 1.124 0 0 0-.406-.347 11.21 11.21 0 0 0-2.244-.792 10.042 10.042 0 0 0-4.615 0c-.762.18-1.51.444-2.244.792-.17.09-.306.205-.406.347a.785.785 0 0 0-.15.462v.593zm5.108-6.252c.468 0 .869-.161 1.202-.483.334-.321.5-.708.5-1.16 0-.45-.166-.837-.5-1.16a1.67 1.67 0 0 0-1.202-.481c-.469 0-.87.16-1.203.482-.333.322-.5.708-.5 1.16 0 .451.167.838.5 1.16a1.67 1.67 0 0 0 1.203.482z"/></svg>