<svg xmlns="http://www.w3.org/2000/svg" width="40" height="40" fill="none" viewBox="0 0 40 40"><path fill="#000" d="M16.829 25.793l9.038-5.827-9.038-5.806v11.633zm-9.393 5.874c-.683 0-1.26-.236-1.73-.706S5 29.914 5 29.23V10.769c0-.682.235-1.259.706-1.73.47-.47 1.047-.705 1.73-.705h25.128c.683 0 1.26.235 1.73.705.47.471.706 1.048.706 1.73v18.462c0 .683-.235 1.26-.706 1.73-.47.47-1.047.706-1.73.706H7.436zm0-1.41h25.128c.257 0 .492-.107.705-.32.214-.215.32-.45.32-.706V10.769c0-.256-.106-.491-.32-.705-.213-.213-.448-.32-.705-.32H7.436c-.257 0-.492.107-.705.32-.214.214-.32.449-.32.705v18.462c0 .256.106.491.32.705.213.214.448.32.705.32z"/></svg>