<svg xmlns="http://www.w3.org/2000/svg" width="20" height="20" fill="none" viewBox="0 0 20 20"><g clip-path="url(#a)"><path fill="#000" fill-rule="evenodd" d="M9.716 16.826a2.25 2.25 0 0 0 2.467-.494l4.654-4.711a2.294 2.294 0 0 0 .663-1.62 2.313 2.313 0 0 0-.663-1.62l-4.654-4.71a2.262 2.262 0 0 0-1.6-.671 2.24 2.24 0 0 0-1.601.671L6.659 6.028l.872.882 2.323-2.354a1.023 1.023 0 0 1 1.455 0l4.658 4.71a1.047 1.047 0 0 1 0 1.472l-4.658 4.71a1.023 1.023 0 0 1-1.455 0l-2.323-2.355-.876.882 2.327 2.355c.21.212.46.38.734.496zM6.94 9.376a2.28 2.28 0 0 0-.576-.994 2.238 2.238 0 0 0-2.466-.496 2.269 2.269 0 0 0-1.016.843 2.31 2.31 0 0 0 0 2.544c.249.377.602.67 1.016.844a2.24 2.24 0 0 0 2.466-.496 2.28 2.28 0 0 0 .576-.995h4.477l-1.852 1.873.872.887 2.91-2.943a.628.628 0 0 0 0-.883L10.44 6.62l-.873.883 1.852 1.874h-4.48zm-2.378 1.647c-.2-.04-.383-.14-.527-.285a1.047 1.047 0 0 1 .527-1.756 1.017 1.017 0 0 1 1.056.442 1.05 1.05 0 0 1-.462 1.54c-.188.079-.395.1-.594.06z" clip-rule="evenodd"/></g><defs><clipPath id="a"><path fill="#fff" d="M0 0h20v20H0z"/></clipPath></defs></svg>